<?xml version="1.0" encoding="utf-8"?>
<svg viewBox="0 714.375 238.125 119.063" width="238.125" height="119.063" xmlns="http://www.w3.org/2000/svg" xmlns:xlink="http://www.w3.org/1999/xlink">
  <defs>
    <radialGradient id="radialGradient8268" gradientUnits="userSpaceOnUse" gradientTransform="matrix(0.49484642,0,0,0.24856418,112.72668,196.64644)" cx="-268.28397" cy="765.6449" r="239.54193" xlink:href="#Background"/>
    <linearGradient id="Background">
      <stop id="stop2858" offset="0" style="stop-color:#000000;stop-opacity:0.1254902"/>
      <stop style="stop-color:#000000;stop-opacity:0.03137255" offset="0.8714" id="stop2978"/>
      <stop id="stop2862" offset="1" style="stop-color:#000000;stop-opacity:0"/>
    </linearGradient>
    <linearGradient id="Text-1" gradientTransform="matrix(0.26458333,0,0,0.26458333,-139.09524,-386.94792)">
      <stop style="stop-color:#0e0e0e;stop-opacity:1;" offset="0" id="stop15666"/>
    </linearGradient>
    <linearGradient id="Shadow" gradientTransform="matrix(0.01006758,0,0,0.01150266,-539.14922,6.2963781)">
      <stop style="stop-color:#131116;stop-opacity:0.99607843;" offset="0" id="stop13218"/>
    </linearGradient>
    <linearGradient id="Body" gradientTransform="matrix(0,0,0,0,-550.66328,2.4560221)">
      <stop style="stop-color:#a5b1c2;stop-opacity:1;" offset="0" id="stop13242"/>
    </linearGradient>
    <linearGradient id="Head" gradientTransform="matrix(1.7794098e-4,0,0,1.7794098e-4,-550.5605,2.600199)">
      <stop style="stop-color:#fd9644;stop-opacity:1;" offset="0" id="stop13236"/>
    </linearGradient>
    <linearGradient id="Middle" gradientTransform="matrix(0.01333946,0,0,0.01333946,-543.31773,2.4232587)">
      <stop style="stop-color:#778ca3;stop-opacity:1;" offset="0" id="stop13265"/>
    </linearGradient>
    <linearGradient id="Contour" gradientTransform="matrix(0,0,0,0,-550.66328,2.4560207)">
      <stop style="stop-color:#000000;stop-opacity:1;" offset="0" id="stop13253"/>
    </linearGradient>
  </defs>
  <g id="g3562" transform="matrix(1, 0, 0, 1, 139.095245, 386.947906)">
    <path style="opacity:1;fill:url(#radialGradient8268);fill-opacity:1;stroke:none;stroke-width:0.52455026;stroke-linecap:round;stroke-linejoin:round;stroke-miterlimit:4;stroke-dasharray:none;stroke-opacity:1" d="m -139.09524,327.42709 h 238.125 v 119.0625 h -238.125 z" id="path8101"/>
    <text style="font-style: normal; font-weight: normal; font-size: 10.5833px; line-height: 1.25; font-family: sans-serif; text-align: start; letter-spacing: 0px; word-spacing: 0px; text-anchor: start; fill: url(#Text-1); fill-opacity: 1; stroke: none; stroke-width: 0.264583; white-space: pre;" x="7.8447776" y="380.04974" id="text8260"><tspan id="tspan8258" x="7.8447776" y="380.04974" style="font-style:normal;font-variant:normal;font-weight:normal;font-stretch:normal;font-size:12.69999981px;font-family:'Roboto Slab';font-variant-ligatures:normal;font-variant-caps:normal;font-variant-numeric:normal;font-feature-settings:normal;text-align:center;text-anchor:middle;fill:url(#Text-1);fill-opacity:1;stroke-width:0.26458332;">500 Internal Server Error</tspan></text>
    <text style="font-style: normal; font-weight: normal; font-size: 10.5833px; line-height: 1.25; font-family: sans-serif; text-align: start; letter-spacing: 0px; word-spacing: 0px; text-anchor: start; fill: url(#Text-1); fill-opacity: 1; stroke: none; stroke-width: 0.264583; white-space: pre;" x="7.8513999" y="398.57153" id="text8266"><tspan x="7.8513999" y="398.57153" style="font-style:normal;font-variant:normal;font-weight:300;font-stretch:normal;font-size:10.58333302px;font-family:'Roboto Condensed';font-variant-ligatures:normal;font-variant-caps:normal;font-variant-numeric:normal;font-feature-settings:normal;text-align:center;text-anchor:middle;fill:url(#Text-1);fill-opacity:1;stroke-width:0.26458332;" id="tspan8264">“Oh my, something must be</tspan><tspan id="tspan8292" x="7.8513999" y="411.90405" style="font-style:normal;font-variant:normal;font-weight:300;font-stretch:normal;font-size:10.58333302px;font-family:'Roboto Condensed';font-variant-ligatures:normal;font-variant-caps:normal;font-variant-numeric:normal;font-feature-settings:normal;text-align:center;text-anchor:middle;fill:url(#Text-1);fill-opacity:1;stroke-width:0.26458332;">broken somewhere…”</tspan></text>
    <g transform="translate(422.44045,174.27912)" id="g7824">
      <ellipse style="opacity:0.8;fill:url(#Shadow);fill-opacity:1;stroke-width:0.12885033" id="ellipse13332" ry="1.5732356" rx="18.29217" cy="243.63289" cx="-525.46545"/>
      <path style="fill:url(#Body);stroke-width:0.12885033" class="st7" d="m -511.46769,223.2091 -1.5351,12.44666 -8.00161,7.80833 h -9.67666 l -7.89852,-7.69237 -1.53333,-11.18421 v -1.34004 l 2.17758,-0.59271 c 4.29071,-1.09523 12.44694,-1.10812 12.44694,-1.10812 l 6.73887,0.19328 c 4.53553,0.46386 7.28183,1.46918 7.28183,1.46918 z" id="path12785"/>
      <path style="fill:url(#Head);stroke-width:0.12885033" class="st8" d="m -534.57234,235.07593 c 0.32213,-2.17757 3.07952,-5.56634 4.66438,-6.91926 1.58486,-1.35293 4.45822,-2.77029 4.45822,-2.77029 l 2.4997,0.61848 3.2728,2.79606 c 2.07449,2.13891 3.698,5.36017 3.698,5.36017 l -0.10308,0.0387 -1.09522,0.39944 -1.95853,0.48963 c -3.38876,0.81175 -6.4554,0.74733 -6.4554,0.74733 h -5.01228 l -2.57701,-0.20616 -1.27562,-0.28347 c -0.10307,-0.0387 -0.11596,-0.27059 -0.11596,-0.27059 z" id="path12787"/>
      <path style="fill:url(#Head);stroke-width:0.12885033" class="st9" d="m -540.44791,221.08278 -1.14677,-12.93657 c 0.0387,-3.51762 4.7288,-8.07892 4.7288,-8.07892 l 8.41393,-2.9249 4.08456,0.21905 2.24199,7.58928 3.25992,-2.37084 2.29353,4.13609 2.242,-0.95349 3.23414,-1.48178 c 1.59774,2.61566 1.08234,6.23636 1.08234,6.23636 l -0.59271,6.15904 -0.59271,4.40668 -0.65714,-0.32213 c -5.4246,-1.2885 -10.32091,-1.37869 -10.32091,-1.37869 l -9.53492,0.15462 -5.73384,0.76021 z" id="path12789"/>
      <polyline style="fill:#532501;fill-opacity:1" class="st10" points="662.9,345.7 679.4,341.1 692.7,384.5 676.8,396.1 662.9,345.7      " id="polyline12791" transform="matrix(0.12885033,0,0,0.12885033,-609.3313,153.92599)"/>
      <polygon style="fill:#532501;fill-opacity:1" class="st10" points="730.9,369.6 750.2,396.1 720.9,410.1 707.4,389.1 " id="polygon12793" transform="matrix(0.12885033,0,0,0.12885033,-609.3313,153.92599)"/>
      <polygon style="opacity:0.5;fill:#000000;fill-opacity:1" class="st11" points="700.2,381.5 710.9,413.5 716.9,411 " id="polygon12795" transform="matrix(0.12885033,0,0,0.12885033,-609.3313,153.92599)"/>
      <path style="opacity:0.5;fill:#000000;fill-opacity:1;stroke-width:0.12885033" class="st11" d="m -512.80952,205.2213 c 1.28851,0.63137 1.10811,6.18482 1.10811,6.18482 l 1.01792,-0.83753 0.85041,-1.05657 c 0,0 -0.23193,-2.56412 -0.24481,-2.62854 -0.0129,-0.0644 -0.92772,-2.4997 -0.92772,-2.4997 l -0.38656,-0.0515 -1.41735,0.88906" id="path12797"/>
      <path style="opacity:0.5;fill:#000000;fill-opacity:1;stroke-width:0.12885033" class="st11" d="m -512.44874,211.86998 0.82464,-0.46386 1.58486,-1.5462 -0.21904,3.32434 -0.27059,2.20334 -0.30924,-0.82464 c -0.45097,-1.36582 -1.61063,-2.69298 -1.61063,-2.69298" id="path12799"/>
      <path style="opacity:0.5;fill:#000000;fill-opacity:1;stroke-width:0.12885033" class="st11" d="m -511.37928,213.42907 c 0.47675,1.53332 -0.57983,7.12543 -2.10026,6.77753 l 2.39662,0.88907 0.52828,-5.70807 -0.30924,-0.82464 -0.39944,-0.97927 -0.11596,-0.15462" id="path12801"/>
      <path style="fill:url(#Middle);stroke-width:0.12885033" class="st12" d="m -540.16444,223.19593 -0.28347,-2.11315 2.4095,-0.61848 6.35232,-1.05657 8.58143,-0.0129 6.67445,0.45098 2.78316,0.46386 1.88122,0.54117 0.69579,0.24482 -0.36078,2.16468 c -1.121,-0.57983 -3.54339,-1.01792 -3.54339,-1.01792 l -3.80108,-0.50251 -4.88342,-0.10308 c 0,0 -5.70808,0.0129 -5.73385,0.0129 -0.0258,0 -4.5613,0.37367 -4.5613,0.37367 l -4.6515,0.72156 z" id="path12803"/>
      <path style="opacity:0.3;fill:#ffffff;stroke-width:0.12885033" class="st13" d="m -533.94097,219.98755 c -1.4689,0.23193 -0.87619,2.10026 -0.87619,2.10026 l -4.48399,0.83753 -0.76021,0.29636 -0.41233,-2.20334 2.22911,-0.56695 3.6207,-0.73444 z" id="path12805"/>
      <path style="opacity:0.3;fill:#ffffff;stroke-width:0.12885033" class="st13" d="m -537.20089,222.53879 0.56694,12.36963 c 0.21905,1.97141 4.08456,6.48117 4.08456,6.48117 l -5.94,-5.38594 -1.10811,-6.5456 -0.56694,-6.27501 1.77813,-0.52828 z" id="path12807"/>
      <path style="opacity:0.3;fill:#ffffff;stroke-width:0.12885033" class="st13" d="m -533.16787,202.02582 c 1.61063,-2.6672 4.17475,-4.47111 7.78256,-4.47111 l -0.8633,-0.70867 -6.17193,1.00503 -4.6515,2.86048 c 0,0 -4.20052,3.6078 -4.38091,7.34447 l 1.21119,12.97522 6.49406,-1.24985 0.78599,-0.38655 c -1.5462,-2.56412 -2.34508,-5.95288 -2.29353,-9.29011 0.43808,0.15462 0.90195,0.23193 1.39158,0.23193 2.30642,0 4.18763,-1.88121 4.18763,-4.18763 -0.0129,-2.07449 -1.52043,-3.7882 -3.49184,-4.12321 z" id="path12809"/>
      <path style="opacity:0.5;fill:#000000;fill-opacity:1;stroke-width:0.12885033" class="st11" d="m -520.72093,219.54946 c 3.06664,1.08235 1.53332,2.17757 1.53332,2.17757 l 4.83189,0.64425 c 1.67505,0.21905 2.91202,0.88907 2.91202,0.88907 l 0.21904,-2.16468 c -1.34004,-0.81176 -6.14616,-1.54621 -6.14616,-1.54621 z" id="path12811"/>
      <path style="opacity:0.5;fill:#000000;fill-opacity:1;stroke-width:0.12885033" class="st11" d="m -517.69295,221.92031 c 1.86833,1.15965 5.23133,3.22126 4.49688,13.67102 0.2577,0.0515 0.6829,-3.31146 0.6829,-3.31146 l 1.10812,-9.01952 c -1.76393,-0.6218 -3.51969,-0.99214 -3.51969,-0.99214 z" id="path12813"/>
      <path d="m -511.1087,221.14721 c -1.13388,-0.47675 -2.34507,-0.73445 -3.56915,-0.91484 -1.22408,-0.18039 -2.44816,-0.32213 -3.67223,-0.41232 -2.46104,-0.1675 -4.93497,-0.21905 -7.39601,-0.19328 -2.46105,0.0387 -4.93497,0.14174 -7.38313,0.3479 -1.22407,0.10308 -2.44815,0.23193 -3.67223,0.41232 -0.6056,0.0902 -1.2112,0.19328 -1.81679,0.30924 -0.59271,0.14174 -1.19831,0.28347 -1.76525,0.48963 l -0.0773,-0.18039 c 1.14677,-0.52828 2.35796,-0.82464 3.58204,-1.08234 1.22408,-0.24482 2.46104,-0.42521 3.68512,-0.55406 1.23696,-0.12885 2.47393,-0.23193 3.71089,-0.29635 1.23696,-0.0644 2.48681,-0.0902 3.72377,-0.0902 1.23697,0 2.48682,0.0258 3.72378,0.0773 1.23696,0.0515 2.48681,0.15462 3.71089,0.28347 1.23696,0.14174 2.47393,0.29636 3.68512,0.56694 1.21119,0.2577 2.43527,0.57983 3.54338,1.14677 z" id="path12815" style="fill:url(#Contour);stroke-width:0.12885033"/>
      <path d="m -511.26332,223.36343 c -1.10811,-0.50251 -2.3193,-0.7731 -3.51761,-0.97926 -1.21119,-0.20616 -2.42239,-0.34789 -3.64646,-0.45098 -1.22408,-0.10308 -2.44816,-0.15462 -3.67224,-0.20616 -1.22408,-0.0387 -2.44815,-0.0515 -3.67223,-0.0387 -1.22408,0.0129 -2.44816,0.0515 -3.67224,0.11597 -1.22408,0.0515 -2.44815,0.14173 -3.65935,0.25769 -1.21119,0.11597 -2.43527,0.24482 -3.64646,0.45098 -0.6056,0.10308 -1.19831,0.21905 -1.80391,0.3479 -0.59271,0.14173 -1.18542,0.30924 -1.75236,0.52828 l -0.0515,-0.11596 c 1.13388,-0.50252 2.34507,-0.78599 3.55627,-1.01792 1.21119,-0.21904 2.43527,-0.39944 3.65935,-0.5154 1.22407,-0.12885 2.44816,-0.21905 3.67223,-0.28347 1.22408,-0.0515 2.46104,-0.0902 3.68512,-0.0902 2.46104,0 4.92208,0.0773 7.37024,0.32213 1.22408,0.12885 2.44816,0.28347 3.65935,0.5154 1.19831,0.24481 2.4095,0.54117 3.51762,1.08234 z" id="path12817" style="fill:url(#Contour);stroke-width:0.12885033"/>
      <path d="m -530.57798,226.95836 c 0.61848,-0.48964 1.31427,-0.88907 2.04872,-1.18543 0.73445,-0.29635 1.52043,-0.50251 2.33219,-0.55405 0.81176,-0.0515 1.62351,0.0515 2.39662,0.29635 0.7731,0.2577 1.49466,0.64425 2.13891,1.121 1.30139,0.95349 2.35796,2.17757 3.2728,3.45319 0.91484,1.2885 1.71371,2.65432 2.4095,4.07167 v 0 0 c -1.26273,0.55406 -2.60277,0.90195 -3.94282,1.15965 -1.35292,0.27059 -2.71874,0.42521 -4.08455,0.54118 -2.74451,0.21904 -5.50191,0.19327 -8.23354,-0.0644 -0.3479,-0.0387 -0.68291,-0.0644 -1.0308,-0.11597 -0.33501,-0.0515 -0.68291,-0.10307 -1.01792,-0.20616 -0.0902,-0.0258 -0.16751,-0.0515 -0.24482,-0.11596 -0.0258,-0.0129 -0.0387,-0.0387 -0.0515,-0.0644 -0.0129,-0.0258 -0.0258,-0.0515 -0.0258,-0.0773 -0.0129,-0.0515 -0.0129,-0.10307 -0.0129,-0.14173 0,-0.18039 0.0515,-0.3479 0.10308,-0.5154 0.10308,-0.33501 0.23193,-0.65714 0.37367,-0.96638 0.28347,-0.63137 0.60559,-1.23697 0.96637,-1.82968 0.36078,-0.59271 0.76022,-1.15965 1.19831,-1.68793 0.88907,-1.06946 1.88122,-2.03584 3.00221,-2.86048 0.56695,-0.41232 1.14677,-0.7731 1.76526,-1.09523 0.61848,-0.30924 1.26273,-0.56694 1.93275,-0.74733 l 0.0387,0.12885 c -0.64425,0.23193 -1.26274,0.5154 -1.85545,0.85041 -0.59271,0.33501 -1.15965,0.70868 -1.70082,1.121 -1.06946,0.83753 -2.04872,1.79102 -2.91202,2.83471 -0.86329,1.04368 -1.68794,2.13891 -2.3193,3.3501 -0.15462,0.30924 -0.29636,0.61848 -0.39944,0.94061 -0.0515,0.15462 -0.0902,0.32213 -0.0902,0.48963 0,0.0773 0.0129,0.15462 0.0515,0.1804 0.0515,0.0387 0.14174,0.0773 0.21905,0.10307 0.32212,0.10308 0.65714,0.15462 0.99215,0.19328 0.33501,0.0515 0.68291,0.0902 1.01792,0.11596 1.36581,0.10309 2.73162,0.12886 4.09744,0.11597 0.6829,-0.0129 1.36581,-0.0129 2.04872,-0.0515 0.6829,-0.0258 1.36581,-0.0644 2.04872,-0.10308 1.36581,-0.0902 2.73162,-0.24482 4.07167,-0.46386 0.67002,-0.11597 1.34004,-0.24482 2.01006,-0.41232 0.67002,-0.15462 1.32716,-0.36078 1.95853,-0.59271 v 0 0 c -0.87618,-1.30139 -1.75237,-2.60278 -2.71874,-3.83975 -0.48964,-0.60559 -0.97927,-1.21119 -1.52044,-1.76525 -0.54117,-0.55405 -1.10811,-1.08234 -1.72659,-1.53331 -0.61848,-0.45098 -1.28851,-0.83753 -1.99718,-1.08235 -0.70868,-0.2577 -1.46889,-0.38655 -2.22912,-0.36078 -0.76021,0.0129 -1.52043,0.18039 -2.25487,0.43809 -0.70868,0.24482 -1.41736,0.57983 -2.12604,0.92773 z" id="path12819" style="fill:url(#Contour);stroke-width:0.12885033"/>
      <path d="m -530.51356,235.84903 c 0.0773,-0.14174 0.16751,-0.28347 0.23193,-0.4252 0.0773,-0.14174 0.14174,-0.28348 0.1804,-0.4381 0.0387,-0.14173 0.0258,-0.28347 -0.0515,-0.38655 -0.0773,-0.11596 -0.20617,-0.20616 -0.33501,-0.29635 -0.0644,-0.0387 -0.12885,-0.0902 -0.19328,-0.12885 -0.0644,-0.0387 -0.12885,-0.0902 -0.20616,-0.14174 -0.0773,-0.0515 -0.14174,-0.11597 -0.20616,-0.20616 -0.0644,-0.0902 -0.10308,-0.20616 -0.0902,-0.32213 0.0258,-0.23193 0.15462,-0.37366 0.25771,-0.50251 0.11596,-0.12885 0.23193,-0.23193 0.34789,-0.3479 0.11597,-0.11596 0.23193,-0.21905 0.32213,-0.34789 0.10308,-0.11597 0.19327,-0.25771 0.24481,-0.39944 0.0644,-0.14174 0.0902,-0.29636 0.0773,-0.45098 -0.0129,-0.15462 -0.0644,-0.30924 -0.12885,-0.45097 -0.14174,-0.28348 -0.34789,-0.52829 -0.57982,-0.76022 -0.23194,-0.21905 -0.48964,-0.41232 -0.76022,-0.57983 l 0.16751,-0.24481 c 0.25769,0.21904 0.48962,0.45097 0.72155,0.70867 0.21905,0.24482 0.42521,0.5154 0.55406,0.82465 0.0644,0.15462 0.11597,0.32212 0.12885,0.48963 0.0129,0.1675 -0.0129,0.3479 -0.0773,0.50252 -0.11596,0.32212 -0.30924,0.60559 -0.52829,0.85041 l -0.30924,0.37366 c -0.0902,0.11597 -0.18038,0.24482 -0.19327,0.3479 0,0.0515 0.0129,0.0902 0.0387,0.14173 0.0258,0.0515 0.0773,0.10308 0.14173,0.14174 0.0516,0.0387 0.12886,0.0902 0.19328,0.14174 0.0644,0.0515 0.12885,0.10307 0.19327,0.15462 0.12886,0.10307 0.25771,0.21904 0.36079,0.38655 0.0258,0.0387 0.0387,0.0902 0.0644,0.12885 0.0129,0.0515 0.0258,0.0902 0.0258,0.14173 0,0.0515 0,0.10308 -0.0129,0.14174 l -0.0129,0.0644 -0.0258,0.0644 c -0.0644,0.16751 -0.15462,0.30924 -0.2577,0.43809 -0.0644,0.14173 -0.18039,0.27059 -0.28347,0.38655 z" id="path12823" style="fill:url(#Contour);stroke-width:0.12885033"/>
      <path d="m -528.76119,227.21606 c 0.21905,0.10308 0.45098,0.21904 0.64425,0.38655 0.0515,0.0387 0.10308,0.0773 0.14173,0.12885 0.0515,0.0515 0.0902,0.0902 0.12886,0.14173 0.0773,0.10309 0.15462,0.21905 0.19327,0.36079 0.0515,0.14173 0.0387,0.28347 0.0129,0.4252 -0.0129,0.0644 -0.0387,0.12885 -0.0644,0.19328 -0.0258,0.0644 -0.0515,0.11596 -0.0902,0.18039 -0.12885,0.21904 -0.29636,0.41232 -0.45098,0.60559 -0.0773,0.0902 -0.16751,0.18039 -0.24482,0.28348 -0.0773,0.0902 -0.15462,0.18038 -0.20615,0.29635 -0.0258,0.0515 -0.0516,0.11596 -0.0387,0.15462 0.0129,0.0387 0.0773,0.0515 0.12885,0.0644 0.11596,0.0129 0.24481,0 0.36078,-0.0129 0.11596,-0.0129 0.24482,-0.0258 0.37367,-0.0258 0.12885,0 0.2577,0.0129 0.38655,0.0644 0.12885,0.0515 0.24481,0.16751 0.29635,0.30924 0.0516,0.14174 0.0644,0.28347 0.0516,0.41232 l -0.0129,0.19328 c -0.0129,0.0644 -0.0258,0.12885 -0.0515,0.19327 -0.0515,0.12886 -0.11597,0.2577 -0.23193,0.3479 -0.10308,0.0902 -0.24482,0.14174 -0.36078,0.18039 -0.11597,0.0387 -0.23193,0.0644 -0.29636,0.15462 -0.0644,0.0773 -0.0773,0.20616 -0.0773,0.30924 l 0.0129,0.18039 c 0.0129,0.0515 0.0258,0.11597 0.0515,0.16751 0.0902,0.20616 0.27058,0.36078 0.46386,0.48963 0.19327,0.12885 0.41232,0.24482 0.61848,0.41232 0.10308,0.0773 0.19328,0.1675 0.28347,0.28347 0.0773,0.10308 0.14174,0.23193 0.18039,0.37367 0.0387,0.12885 0.0387,0.27058 0.0387,0.39943 -0.0129,0.12885 -0.0387,0.2577 -0.0773,0.38655 -0.0773,0.24482 -0.19328,0.47675 -0.32213,0.68291 l -0.11597,-0.0644 c 0.0773,-0.23193 0.16751,-0.45098 0.20617,-0.68291 0.0515,-0.23193 0.0644,-0.45098 0.0129,-0.65714 -0.0515,-0.20616 -0.19327,-0.38655 -0.36078,-0.54117 -0.1675,-0.15462 -0.37366,-0.28347 -0.57982,-0.43809 -0.19328,-0.15462 -0.39944,-0.3479 -0.48963,-0.59271 -0.0258,-0.0644 -0.0387,-0.12885 -0.0515,-0.19328 l -0.0129,-0.19328 c 0.0129,-0.12884 0,-0.27058 0.10308,-0.38655 0.0902,-0.11596 0.21905,-0.1675 0.33501,-0.21904 0.11597,-0.0515 0.20616,-0.10308 0.28347,-0.18039 0.14174,-0.15462 0.18039,-0.37367 0.19328,-0.61848 0.0129,-0.11597 0,-0.21905 -0.0258,-0.32213 -0.0258,-0.0902 -0.0902,-0.1675 -0.18039,-0.21904 -0.18039,-0.10308 -0.4381,-0.11597 -0.68291,-0.11597 -0.12885,0 -0.24481,0.0129 -0.37367,-0.0129 -0.0258,0 -0.0644,-0.0129 -0.10307,-0.0258 -0.0258,-0.0129 -0.0644,-0.0387 -0.0773,-0.0773 -0.0258,-0.0773 0.0129,-0.14174 0.0387,-0.20616 0.0515,-0.11596 0.12885,-0.21904 0.20616,-0.30924 0.0773,-0.10308 0.14174,-0.20616 0.20617,-0.30924 0.12884,-0.20616 0.25769,-0.41232 0.36078,-0.63137 0.10308,-0.20616 0.14173,-0.4252 0.0902,-0.61848 -0.0515,-0.19327 -0.20616,-0.37367 -0.37366,-0.52829 -0.16751,-0.15462 -0.37367,-0.29635 -0.56695,-0.45097 z" id="path12825" style="fill:url(#Contour);stroke-width:0.12885033"/>
      <path d="m -523.23351,226.01775 c -0.41232,0.37366 -0.82464,0.76021 -1.15965,1.19831 -0.16751,0.21904 -0.30925,0.46386 -0.38656,0.72156 -0.0387,0.12885 -0.0515,0.2577 -0.0515,0.38655 0.0129,0.12885 0.0515,0.2577 0.10307,0.38655 0.11597,0.24482 0.28348,0.45098 0.46386,0.65714 0.1804,0.20616 0.37367,0.39944 0.57983,0.60559 0.10309,0.10309 0.19328,0.20616 0.28347,0.30925 0.0516,0.0515 0.0902,0.10308 0.14174,0.15462 l 0.0644,0.0773 0.0387,0.0387 0.0387,0.0515 c 0.0258,0.0387 0.0644,0.0902 0.0773,0.18039 0,0.0515 -0.0129,0.11597 -0.0387,0.16751 -0.0129,0.0258 -0.0387,0.0387 -0.0515,0.0515 -0.0129,0.0129 -0.0387,0.0258 -0.0516,0.0387 -0.11596,0.0515 -0.19327,0.0515 -0.27058,0.0644 -0.15462,0.0129 -0.29636,0 -0.43809,0 -0.27059,-0.0129 -0.55406,-0.0387 -0.79887,0.0258 -0.11597,0.0387 -0.23194,0.10308 -0.25771,0.20616 -0.0387,0.10308 0,0.24482 0.0516,0.3479 0.0515,0.10308 0.15462,0.19327 0.27058,0.2577 0.11597,0.0644 0.24482,0.11596 0.37366,0.15462 0.25771,0.0902 0.54118,0.19327 0.77311,0.37367 0.11596,0.0902 0.21904,0.20616 0.30924,0.32212 0.0773,0.12885 0.14173,0.2577 0.19328,0.39944 0.0902,0.28347 0.12884,0.56694 0.12884,0.86329 0,0.28348 -0.0258,0.56695 -0.0773,0.85042 -0.0129,0.14173 -0.0515,0.28347 -0.0773,0.41232 -0.0129,0.0644 -0.0258,0.14173 -0.0515,0.20616 l -0.0258,0.10308 c 0,0.0387 -0.0129,0.0644 -0.0773,0.0902 l -0.12885,-0.0258 c -0.0515,-0.0515 -0.0387,-0.0773 -0.0387,-0.11596 l 0.0258,-0.10308 c 0.0129,-0.0644 0.0387,-0.12885 0.0515,-0.20616 0.0258,-0.12885 0.0644,-0.27059 0.0773,-0.39944 0.0515,-0.27059 0.0773,-0.54117 0.0902,-0.81176 0.0129,-0.27058 -0.0129,-0.54117 -0.0902,-0.79887 -0.0387,-0.12885 -0.0902,-0.24481 -0.15462,-0.36078 -0.0773,-0.10308 -0.15462,-0.20616 -0.2577,-0.29635 -0.20616,-0.16751 -0.46386,-0.27059 -0.72156,-0.37367 -0.12885,-0.0515 -0.25771,-0.10308 -0.39944,-0.16751 -0.12885,-0.0644 -0.2577,-0.1675 -0.33501,-0.30924 -0.0258,-0.0387 -0.0387,-0.0644 -0.0515,-0.10308 -0.0129,-0.0387 -0.0258,-0.0773 -0.0258,-0.11596 -0.0129,-0.0773 -0.0129,-0.15462 0,-0.24482 0.0258,-0.0773 0.0773,-0.15462 0.14174,-0.20616 0.0644,-0.0515 0.12884,-0.0902 0.20616,-0.11596 0.14173,-0.0644 0.28346,-0.0902 0.4252,-0.11597 0.14174,-0.0258 0.28347,-0.0387 0.42521,-0.0515 0.14173,-0.0129 0.28347,-0.0129 0.39943,-0.0258 0.0644,0 0.12885,-0.0258 0.14174,-0.0258 -0.0129,0 0,0 -0.0258,0.0258 -0.0129,0.0129 -0.0258,0.0387 -0.0129,0.0644 0,0 0,0 0,0.0129 0,0 0,0 0,0 0,0 0,-0.0129 -0.0129,-0.0258 l -0.0258,-0.0258 -0.0387,-0.0387 -0.0644,-0.0773 -0.12885,-0.15462 c -0.0902,-0.10309 -0.18039,-0.20616 -0.27059,-0.32213 -0.18038,-0.21905 -0.36077,-0.43809 -0.52828,-0.67002 -0.0773,-0.11597 -0.16751,-0.23193 -0.24482,-0.36079 -0.0773,-0.11596 -0.14173,-0.25769 -0.19327,-0.38655 -0.0515,-0.14173 -0.0902,-0.28347 -0.0902,-0.4252 0,-0.14173 0.0129,-0.29636 0.0644,-0.43809 0.0902,-0.28347 0.24481,-0.5154 0.42521,-0.73445 0.34789,-0.45097 0.74733,-0.83753 1.14676,-1.23696 z" id="path12827" style="fill:url(#Contour);stroke-width:0.12885033"/>
      <path d="m -520.08956,235.26921 c 0.0773,-0.50252 0.18039,-1.00504 0.18039,-1.49467 0,-0.24482 -0.0387,-0.47675 -0.15462,-0.67002 -0.11597,-0.19328 -0.32213,-0.32213 -0.54117,-0.45098 -0.21905,-0.12885 -0.45098,-0.2577 -0.64426,-0.4252 -0.10307,-0.0902 -0.20616,-0.16751 -0.28347,-0.27059 -0.0258,-0.0258 -0.0387,-0.0515 -0.0644,-0.0902 -0.0129,-0.0387 -0.0387,-0.0773 -0.0387,-0.14174 0,-0.0387 0.0258,-0.0773 0.0515,-0.0902 0.0258,-0.0258 0.0515,-0.0258 0.0644,-0.0387 0.0387,-0.0129 0.0773,-0.0129 0.11596,-0.0129 0.27059,0 0.51541,0.0644 0.7731,0.10309 0.24482,0.0387 0.50252,0.0773 0.76023,0.0515 0.11596,-0.0129 0.25769,-0.0515 0.32212,-0.15462 0.0644,-0.10307 0.0387,-0.24481 0,-0.36078 -0.0515,-0.11596 -0.14174,-0.20615 -0.24481,-0.27058 -0.10309,-0.0644 -0.23194,-0.10308 -0.3479,-0.12885 -0.24482,-0.0515 -0.50252,-0.0773 -0.76022,-0.10308 -0.12885,-0.0129 -0.2577,-0.0387 -0.38655,-0.0773 -0.12885,-0.0387 -0.2577,-0.0902 -0.37367,-0.18039 -0.11596,-0.0902 -0.20616,-0.23193 -0.23193,-0.37367 -0.0387,-0.14174 -0.0258,-0.29636 0.0387,-0.43809 0.11597,-0.27058 0.3479,-0.45098 0.56694,-0.57983 0.46387,-0.2577 0.96638,-0.39943 1.4689,-0.46386 -0.24482,0.0773 -0.47675,0.16751 -0.70868,0.27059 -0.23193,0.10308 -0.46386,0.20616 -0.65713,0.34789 -0.10309,0.0644 -0.19328,0.14174 -0.28348,0.23194 -0.0773,0.0773 -0.15462,0.18038 -0.19327,0.28346 -0.0773,0.20616 -0.0387,0.45098 0.12885,0.57983 0.1675,0.14174 0.42521,0.20616 0.65714,0.27059 0.24481,0.0515 0.50251,0.10308 0.74733,0.1675 0.12885,0.0387 0.24481,0.0902 0.36078,0.15462 0.10308,0.0644 0.20616,0.16751 0.2577,0.29636 0.0387,0.11597 0.0773,0.2577 0,0.37366 -0.0773,0.11597 -0.21905,0.15462 -0.33501,0.16751 -0.2577,0.0387 -0.5154,0.0258 -0.77311,0 l -0.38655,-0.0258 c -0.12885,-0.0129 -0.25769,-0.0258 -0.37366,-0.0129 -0.0258,0 -0.0515,0.0129 -0.0773,0.0129 -0.0129,0 -0.0129,0.0129 -0.0129,0.0129 0,0 0,-0.0129 0,-0.0129 0,0 0,0.0129 0.0258,0.0387 0.0129,0.0258 0.0387,0.0387 0.0515,0.0644 0.0773,0.0902 0.1804,0.16751 0.27059,0.24482 0.19327,0.14173 0.41232,0.27058 0.64425,0.38655 0.21905,0.11596 0.46386,0.27058 0.63137,0.5154 0.15462,0.24481 0.19328,0.52828 0.18039,0.79887 -0.0129,0.52829 -0.16751,1.0308 -0.33501,1.50755 z" id="path12829" style="fill:url(#Contour);stroke-width:0.12885033"/>
      <path style="fill:url(#Contour);stroke-width:0.12885033" d="m -526.1003,196.32652 c -1.12728,0.003 -2.25332,0.0975 -3.36949,0.30048 -1.27562,0.20616 -2.52547,0.56694 -3.73666,1.0308 -1.21119,0.47675 -2.371,1.06936 -3.44046,1.82957 -0.54117,0.36079 -1.04353,0.78599 -1.52028,1.22408 -0.47674,0.45098 -0.92777,0.91483 -1.34009,1.43019 -0.41232,0.51541 -0.78594,1.04373 -1.10806,1.61063 -0.32213,0.56695 -0.6056,1.15975 -0.83753,1.77824 -0.4381,1.23696 -0.65724,2.56407 -0.55416,3.87834 0.21905,2.51259 0.5153,4.99955 0.79877,7.49924 0.29635,2.4997 0.6058,4.98651 0.91504,7.47332 0.30924,2.48681 0.63132,4.98651 0.97921,7.47332 l 0.27054,1.86833 c 0.10308,0.61848 0.19327,1.23696 0.32212,1.86833 l 0.0257,0.11576 c 0.0129,0.0387 0.0258,0.0904 0.0516,0.14194 0.0387,0.0773 0.10324,0.14169 0.15478,0.20611 0.10308,0.11597 0.21904,0.23183 0.32212,0.34779 0.21905,0.21905 0.43799,0.45113 0.66992,0.67018 l 1.35293,1.31417 c 1.8039,1.75238 3.60791,3.4919 5.38605,5.27003 l 0.0644,0.0644 h 0.0901 l 9.68945,-0.14169 h 0.0387 l 0.0257,-0.0259 c 1.86833,-1.66216 3.72378,-3.35015 5.54057,-5.07676 0.45097,-0.43805 0.90195,-0.86324 1.35292,-1.30133 0.21905,-0.21905 0.45113,-0.43799 0.67018,-0.66992 l 0.33496,-0.34805 0.16761,-0.21895 c 0.0258,-0.0387 0.0515,-0.11606 0.0644,-0.1676 0.0258,-0.0515 0.0256,-0.0899 0.0385,-0.1286 0.0773,-0.32212 0.11607,-0.63147 0.16761,-0.94071 l 0.14169,-0.92787 0.24486,-1.86833 c 0.15462,-1.23694 0.30919,-2.48661 0.46381,-3.72357 l 0.41222,-3.73666 c 0.27059,-2.48681 0.52829,-4.97368 0.7731,-7.46049 0.24482,-2.48681 0.50252,-4.97362 0.70868,-7.47332 0.0515,-0.63136 0.0388,-1.27572 -0.0385,-1.90708 -0.0773,-0.67003 -0.21915,-1.28841 -0.42531,-1.894 -0.16544,-0.486 -0.35756,-0.95487 -0.58611,-1.41433 l 0.006,-0.003 -0.16735,-0.34779 -0.0144,0.007 c -10e-4,-0.004 -0.004,-0.007 -0.0116,-0.007 l -0.11677,0.07 -1.64964,0.80732 0.0529,-0.0395 -2.3193,-3.33727 -0.10319,-0.14168 -0.12885,0.11575 -2.75493,2.40916 -0.81412,-1.48128 -1.24346,0.95254 -1.39797,-5.64274 -0.0903,-0.36089 -0.32213,0.12885 -1.95767,0.83275 -0.58057,-1.87638 c -0.39944,-0.0258 -0.79903,-0.0516 -1.18558,-0.0516 -0.16106,-0.003 -0.3219,-0.005 -0.48293,-0.004 z m 1.11435,1.24421 c 0.20837,0 0.41684,0.003 0.6284,0.01 l 2.10338,7.76952 3.25976,-2.57701 2.34523,4.21356 5.42555,-2.50326 c 0.23473,0.43881 0.43745,0.89707 0.60449,1.35644 0.4252,1.14678 0.59276,2.38368 0.50257,3.62065 -0.0902,1.24984 -0.19328,2.48681 -0.32213,3.73666 -0.11596,1.24984 -0.24482,2.48681 -0.38655,3.73665 -0.54117,4.97363 -1.15965,9.93431 -1.80391,14.89505 l -0.2577,1.8555 -0.14168,0.92762 c -0.0515,0.30925 -0.10318,0.61852 -0.16761,0.90195 -0.0129,0.0258 -0.0127,0.0775 -0.0257,0.0904 -0.0129,0.0129 7e-5,0.0258 -0.0129,0.0516 l -0.11602,0.15452 -0.30929,0.33496 c -0.21904,0.21904 -0.42515,0.45113 -0.65708,0.67017 -0.4381,0.43809 -0.88917,0.87608 -1.32727,1.31417 -1.77813,1.73948 -3.55611,3.47892 -5.32136,5.23128 l -9.56085,-0.12885 c -1.85544,-1.6364 -3.68517,-3.32429 -5.4633,-5.038 -0.45098,-0.43809 -0.90175,-0.87608 -1.33984,-1.31417 -0.21905,-0.21905 -0.4383,-0.45112 -0.65734,-0.67018 -0.10308,-0.11595 -0.21884,-0.23188 -0.30904,-0.33496 -0.0387,-0.0515 -0.10309,-0.11607 -0.12885,-0.16761 -0.0129,-0.0257 -0.0131,-0.0514 -0.0259,-0.0901 l -0.0257,-0.11601 c -0.11597,-0.6056 -0.20632,-1.22393 -0.28363,-1.84241 l -0.23177,-1.86833 c -0.29636,-2.48681 -0.57983,-4.98651 -0.83753,-7.47332 -0.2577,-2.49969 -0.50267,-4.9867 -0.7346,-7.48641 -0.23193,-2.49966 -0.45082,-4.99934 -0.61833,-7.48615 -0.0644,-1.18542 0.15457,-2.38363 0.59266,-3.50463 0.21905,-0.55404 0.48953,-1.09522 0.79877,-1.61063 0.30924,-0.5154 0.67018,-0.99225 1.05673,-1.45611 0.38655,-0.46386 0.82469,-0.87618 1.27567,-1.2885 0.46386,-0.38655 0.92762,-0.76021 1.44302,-1.09523 1.00503,-0.67001 2.10021,-1.19831 3.23409,-1.61063 1.13388,-0.41232 2.31941,-0.70871 3.51772,-0.88912 1.19831,-0.18035 2.42223,-0.28326 3.64631,-0.30903 0.2126,-0.006 0.42203,-0.01 0.63142,-0.01 z m 2.9696,0.54586 1.81095,5.24939 0.0604,-0.0181 -1.72261,1.31945 -1.92396,-6.21652 z m 6.82579,3.6604 2.36084,3.07404 -3.65211,1.78754 -1.49839,-2.72675 0.0297,0.034 z" id="path12831"/>
      <path d="m -516.52041,206.90925 -0.50251,3.4403 v -0.0129 c 0.38655,0.11597 0.7731,0.23193 1.14676,0.36079 0.38655,0.12885 0.76022,0.24481 1.14677,0.37366 0.37367,0.12885 0.76022,0.2577 1.13388,0.38655 0.37367,0.12885 0.76022,0.27059 1.13389,0.39944 h 0.0129 0.0129 c 0.30924,0.24481 0.56694,0.52829 0.78599,0.85041 0.21904,0.32213 0.41232,0.65714 0.56694,1.00504 0.32213,0.69579 0.52829,1.44312 0.67002,2.19045 l -0.12885,0.0258 c -0.14173,-0.74733 -0.3479,-1.48178 -0.65714,-2.16468 -0.15462,-0.3479 -0.33501,-0.67003 -0.55405,-0.97927 -0.21905,-0.30924 -0.46386,-0.59271 -0.76022,-0.81176 l 0.0129,0.0129 c -0.38655,-0.12885 -0.76021,-0.2577 -1.13388,-0.38655 -0.37366,-0.12885 -0.76021,-0.27059 -1.13388,-0.39944 -0.37367,-0.12885 -0.74733,-0.27058 -1.13388,-0.41232 -0.37367,-0.14174 -0.74734,-0.28347 -1.121,-0.43809 v 0 -0.0129 l 0.33501,-3.45318 z" id="path12839" style="fill:url(#Contour);stroke-width:0.12885033"/>
      <path d="m -512.51317,211.8571 c 0.27059,-0.10308 0.5283,-0.27059 0.76023,-0.45098 0.23193,-0.18039 0.45097,-0.38655 0.67002,-0.60559 0.20615,-0.21905 0.39943,-0.43809 0.59271,-0.67003 0.18039,-0.23193 0.37366,-0.47674 0.52828,-0.72156 l 0.20616,0.12886 c -0.18039,0.25769 -0.37366,0.48962 -0.56694,0.72155 -0.19327,0.23193 -0.39943,0.46386 -0.63137,0.67003 -0.21904,0.20616 -0.45097,0.41232 -0.69579,0.59271 -0.24481,0.18039 -0.5154,0.33501 -0.81175,0.43809 z" id="path12841" style="fill:url(#Contour);stroke-width:0.12885033"/>
      <polygon style="opacity:0.7;fill:url(#Contour);fill-opacity:1" class="st14" points="616.8,488.3 679.1,488.3 679.1,476.6 673.2,476.6 673.2,470.8 622.6,470.8 622.6,476.6 616.8,476.6 " id="polygon12843" transform="matrix(0.12885033,0,0,0.12885033,-609.3313,153.92599)"/>
      <path d="m -511.34063,225.33484 c 0.16751,0.14174 0.3479,0.28347 0.54117,0.37367 0.19328,0.10308 0.39944,0.15462 0.6056,0.14173 0.41232,-0.0129 0.7731,-0.27058 1.04369,-0.61848 0.27058,-0.34789 0.47675,-0.74733 0.59271,-1.18542 0.0515,-0.21904 0.0902,-0.43809 0.0387,-0.64425 -0.0258,-0.10308 -0.0773,-0.18039 -0.14174,-0.21905 -0.0773,-0.0387 -0.18039,-0.0258 -0.27058,0 -0.0902,0.0387 -0.14174,0.10308 -0.14174,0.19328 0,0.0902 0.0515,0.19327 0.10308,0.29636 0.11597,0.19327 0.28347,0.34789 0.46386,0.48962 0.18039,0.14174 0.38655,0.24482 0.6056,0.30924 0.10308,0.0258 0.21904,0.0387 0.32213,0.0129 0.10307,-0.0258 0.20616,-0.0773 0.27058,-0.15462 0.14173,-0.16751 0.19328,-0.41232 0.20616,-0.63137 0.0129,-0.23193 0,-0.46386 -0.0258,-0.69579 -0.0644,-0.46386 -0.1804,-0.91484 -0.32213,-1.35293 0.14173,0.43809 0.27058,0.88907 0.33501,1.35293 0.0387,0.23193 0.0644,0.46386 0.0515,0.69579 -0.0129,0.23193 -0.0515,0.47675 -0.20616,0.67003 -0.0773,0.0902 -0.19328,0.1675 -0.30924,0.19327 -0.11597,0.0258 -0.24482,0.0258 -0.36078,0 -0.23193,-0.0515 -0.45098,-0.16751 -0.64425,-0.29636 -0.19328,-0.14173 -0.37367,-0.29635 -0.50252,-0.50251 -0.0644,-0.10308 -0.12885,-0.21905 -0.14173,-0.36078 0,-0.0644 0.0129,-0.15462 0.0515,-0.20616 0.0387,-0.0644 0.10309,-0.10308 0.16751,-0.12886 0.0644,-0.0258 0.12885,-0.0387 0.19328,-0.0515 0.0644,0 0.14173,0 0.20616,0.0258 0.14173,0.0644 0.21904,0.20616 0.2577,0.32212 0.0773,0.2577 0.0515,0.50252 0.0129,0.74733 -0.0902,0.47675 -0.27058,0.94061 -0.56693,1.32716 -0.15462,0.19328 -0.33502,0.37367 -0.55406,0.5154 -0.21905,0.12885 -0.47675,0.21905 -0.74733,0.21905 -0.27059,0 -0.51541,-0.0902 -0.73445,-0.21905 -0.21905,-0.12884 -0.39944,-0.29635 -0.56694,-0.46386 z" id="path12845" style="fill:url(#Contour);stroke-width:0.12885033"/>
      <path d="m -540.2031,224.62616 c -0.10308,-0.47674 -0.28347,-0.9406 -0.6056,-1.30138 -0.15462,-0.18039 -0.36078,-0.30924 -0.57982,-0.37367 -0.21905,-0.0644 -0.46386,-0.0515 -0.68291,0.0258 -0.21904,0.0773 -0.42521,0.21905 -0.54117,0.39944 -0.12885,0.18039 -0.15462,0.4252 -0.11597,0.64425 0.0387,0.21904 0.15462,0.43809 0.30924,0.56694 0.0773,0.0644 0.16751,0.11597 0.25771,0.12885 0.0515,0.0129 0.0902,0.0129 0.14173,0.0129 0.0258,0 0.0387,-0.0129 0.0515,-0.0129 0.0129,-0.0129 0.0258,-0.0129 0.0387,-0.0258 0.0644,-0.0387 0.11596,-0.12885 0.15462,-0.23193 0.0387,-0.10308 0.0515,-0.21905 0.0644,-0.33501 0.0129,-0.23193 -0.0129,-0.47675 -0.0773,-0.69579 -0.0644,-0.23193 -0.16751,-0.4381 -0.32213,-0.61848 -0.15462,-0.16751 -0.36078,-0.28348 -0.57982,-0.29636 -0.11597,-0.0129 -0.23193,0 -0.33501,0.0258 -0.10308,0.0258 -0.20616,0.0902 -0.30924,0.15462 -0.19328,0.14174 -0.3479,0.33502 -0.47675,0.54118 -0.27058,0.41232 -0.46386,0.88907 -0.61848,1.36581 h -0.0129 c 0.10308,-0.48963 0.27059,-0.97926 0.51541,-1.43024 0.12885,-0.21904 0.28347,-0.43809 0.47674,-0.60559 0.10308,-0.0902 0.21905,-0.15462 0.3479,-0.20616 0.12885,-0.0387 0.27059,-0.0644 0.41232,-0.0644 0.28347,0 0.55406,0.12885 0.74733,0.33501 0.19328,0.19328 0.32213,0.45098 0.39944,0.69579 0.0773,0.2577 0.11596,0.5154 0.11596,0.79888 0,0.14173 -0.0258,0.27058 -0.0644,0.41231 -0.0387,0.14174 -0.11597,0.28348 -0.2577,0.38655 -0.0387,0.0258 -0.0773,0.0516 -0.11597,0.0644 -0.0387,0.0129 -0.0902,0.0258 -0.12885,0.0258 -0.0773,0 -0.15462,0 -0.23193,-0.0258 -0.15462,-0.0258 -0.29635,-0.11596 -0.39944,-0.21905 -0.20615,-0.20615 -0.32212,-0.48962 -0.34789,-0.76021 -0.0258,-0.27058 0.0258,-0.56694 0.18039,-0.79887 0.15462,-0.24482 0.39944,-0.38655 0.65714,-0.48963 0.2577,-0.0902 0.54117,-0.10309 0.81175,-0.0258 0.2577,0.0773 0.50252,0.23194 0.68291,0.42521 0.36078,0.39944 0.57983,0.88907 0.70868,1.39159 z" id="path12847" style="fill:url(#Contour);stroke-width:0.12885033"/>
      <path d="m -511.72718,226.58469 c 0.38655,-0.1675 0.81176,-0.29635 1.26274,-0.21904 0.11596,0.0129 0.21904,0.0515 0.33501,0.10307 0.10308,0.0516 0.20616,0.11597 0.28347,0.20617 0.16751,0.1675 0.27058,0.38655 0.30924,0.61848 0.0387,0.23193 0.0129,0.45097 -0.0387,0.67002 -0.0644,0.21904 -0.1675,0.42521 -0.33501,0.59271 -0.15462,0.16751 -0.37366,0.29636 -0.61848,0.33501 -0.12885,0.0129 -0.28347,0 -0.38655,-0.10308 -0.11597,-0.0902 -0.15462,-0.23193 -0.18039,-0.34789 -0.0258,-0.24482 0.0387,-0.46386 0.12885,-0.67002 0.10308,-0.20617 0.24482,-0.37367 0.41232,-0.51541 0.16751,-0.14173 0.37367,-0.23193 0.59271,-0.28347 0.21905,-0.0515 0.4381,-0.0515 0.64425,-0.0258 0.10309,0.0129 0.21905,0.0387 0.32213,0.0773 0.10308,0.0387 0.20616,0.10308 0.28347,0.19328 0.15462,0.18039 0.18039,0.4252 0.15462,0.63137 -0.0258,0.21904 -0.0902,0.41231 -0.16751,0.60559 -0.0773,0.19327 -0.18038,0.37367 -0.29635,0.55406 l -0.0129,-0.0129 c 0.19328,-0.36078 0.3479,-0.76021 0.37367,-1.15965 0.0129,-0.19328 -0.0258,-0.39944 -0.15462,-0.52828 -0.12885,-0.12886 -0.32212,-0.19328 -0.5154,-0.20617 -0.39944,-0.0387 -0.79887,0.0644 -1.09523,0.30924 -0.14173,0.12886 -0.27058,0.28348 -0.34789,0.45098 -0.0773,0.1675 -0.11597,0.36078 -0.0902,0.52829 0.0129,0.0773 0.0515,0.15462 0.10308,0.19327 0.0515,0.0387 0.11597,0.0515 0.19328,0.0387 0.0773,-0.0129 0.1675,-0.0515 0.24481,-0.0902 0.0773,-0.0387 0.14174,-0.10308 0.20616,-0.1675 0.24482,-0.27059 0.36079,-0.67002 0.29636,-1.04369 -0.0258,-0.18039 -0.10308,-0.3479 -0.21905,-0.47675 -0.11596,-0.12885 -0.28347,-0.21905 -0.47674,-0.24481 -0.18039,-0.0387 -0.38655,-0.0258 -0.57983,0 -0.19327,0.0258 -0.38655,0.0902 -0.57982,0.15462 z" id="path12849" style="fill:url(#Contour);stroke-width:0.12885033"/>
      <path style="opacity:0.85;fill:url(#Shadow);stroke-width:0.12885033" class="st15" d="m -515.82462,199.47458 c 3.46608,-0.36078 4.83189,-1.71371 3.15683,-3.67223 -1.67505,-1.95853 -2.03583,-3.40165 -0.78598,-3.81397 1.24985,-0.41232 5.28286,2.52546 6.39098,0.0902 1.10811,-2.43527 -5.88846,-7.7439 -4.61284,-10.2436 1.00503,-1.94564 2.60277,-1.26273 2.60277,-1.26273 -3.68512,-1.19831 -5.17978,0.3479 -4.99939,2.37085 0.18039,2.02294 3.56915,3.3501 2.4095,4.61284 -1.15966,1.24985 -1.55909,1.04368 -1.55909,1.89409 0,0.85042 1.50755,0.90196 1.30139,1.27562 -0.19328,0.37367 -3.60781,-1.24984 -4.21341,0.52829 -1.48178,4.36803 2.89914,5.41171 2.34508,6.5456 -0.55406,1.13388 -2.03584,1.67505 -2.03584,1.67505 z" id="path12851"/>
      <path id="path12855" d="m -515.05152,233.723 0.28348,0.86329 -0.79888,0.38656 c 1.06946,0.15462 2.22911,0.1675 0.5154,-1.24985 z" class="st11" style="opacity:0.5;fill:#000000;fill-opacity:1;stroke-width:0.12885033"/>
      <path id="path12857" d="m -528.65811,237.74313 c 3.99436,1.19831 8.28508,1.49466 7.49909,0.0773 -1.4689,0.0902 -7.49909,-0.0773 -7.49909,-0.0773" class="st11" style="opacity:0.5;fill:#000000;fill-opacity:1;stroke-width:0.12885033"/>
      <path d="m -521.10748,237.83332 -0.28347,0.0516 c -0.0902,0.0129 -0.18039,0.0387 -0.28347,0.0515 -0.18039,0.0129 -0.37367,0.0515 -0.55406,0.0644 -0.18039,0.0129 -0.37366,0.0258 -0.55406,0.0387 l -0.55405,0.0129 c -0.73445,0 -1.4689,-0.0129 -2.19046,-0.0515 -1.456,-0.0773 -2.91202,-0.19327 -4.36802,-0.3479 1.456,0.0902 2.91202,0.14174 4.36802,0.15463 0.73445,0 1.45601,-0.0129 2.17758,-0.0515 l 0.54117,-0.0387 c 0.18038,-0.0129 0.36078,-0.0387 0.54117,-0.0515 0.18039,-0.0129 0.34789,-0.0515 0.52828,-0.0773 0.0902,-0.0129 0.16751,-0.0387 0.2577,-0.0515 l 0.2577,-0.0644 h 0.0258 c 0.10307,-0.0258 0.20615,0.0387 0.21904,0.14173 0.0387,0.0902 -0.0258,0.18039 -0.12885,0.21905 0,-0.0129 0,-0.0129 0,0 z" id="path12821" style="fill:url(#Contour);stroke-width:0.12885033"/>
    </g>
  </g>
</svg>