<?xml version="1.0" encoding="utf-8"?>
<svg viewBox="0 238.125 238.125 119.063" width="238.125" height="119.063" xmlns="http://www.w3.org/2000/svg" xmlns:xlink="http://www.w3.org/1999/xlink">
  <defs>
    <radialGradient id="radialGradient2844" gradientUnits="userSpaceOnUse" gradientTransform="matrix(0.49484642,0,0,0.24856418,112.72668,-279.60355)" cx="-268.28397" cy="765.6449" r="239.54193" xlink:href="#Background"/>
    <linearGradient id="Background">
      <stop id="stop2858" offset="0" style="stop-color:#000000;stop-opacity:0.1254902"/>
      <stop style="stop-color:#000000;stop-opacity:0.03137255" offset="0.8714" id="stop2978"/>
      <stop id="stop2862" offset="1" style="stop-color:#000000;stop-opacity:0"/>
    </linearGradient>
    <linearGradient id="linearGradient2846" gradientUnits="userSpaceOnUse" gradientTransform="translate(26.940768,812.71318)" x1="-480.8273" y1="-44.101498" x2="-407.82874" y2="-44.101498" xlink:href="#Body"/>
    <linearGradient id="Body" gradientTransform="matrix(0,0,0,0,-550.66328,2.4560221)">
      <stop style="stop-color:#a5b1c2;stop-opacity:1;" offset="0" id="stop13242"/>
    </linearGradient>
    <linearGradient id="linearGradient2848" gradientUnits="userSpaceOnUse" gradientTransform="translate(26.940768,812.71318)" x1="-471.06415" y1="-66.259689" x2="-406.13541" y2="-66.259689" xlink:href="#Middle"/>
    <linearGradient id="Middle" gradientTransform="matrix(0.01333946,0,0,0.01333946,-543.31773,2.4232587)">
      <stop style="stop-color:#778ca3;stop-opacity:1;" offset="0" id="stop13265"/>
    </linearGradient>
    <linearGradient id="Head" gradientTransform="matrix(1.7794098e-4,0,0,1.7794098e-4,-550.5605,2.600199)">
      <stop style="stop-color:#fd9644;stop-opacity:1;" offset="0" id="stop13236"/>
    </linearGradient>
    <linearGradient id="linearGradient2850" gradientUnits="userSpaceOnUse" gradientTransform="translate(26.940768,812.71318)" x1="-469.37082" y1="-88.375679" x2="-395.88684" y2="-88.375679" xlink:href="#Head"/>
    <linearGradient id="linearGradient2852" gradientUnits="userSpaceOnUse" gradientTransform="translate(26.940768,812.71318)" x1="-497.62833" y1="-82.900078" x2="-482.91751" y2="-82.900078" xlink:href="#Hand"/>
    <linearGradient id="Hand" gradientTransform="matrix(5.0089295e-6,0,0,5.0089295e-6,-550.66032,2.4638708)">
      <stop style="stop-color:#323e4d;stop-opacity:1;" offset="0" id="stop13271"/>
    </linearGradient>
    <linearGradient id="linearGradient2854" gradientUnits="userSpaceOnUse" gradientTransform="translate(26.940768,812.71318)" xlink:href="#Hand"/>
    <linearGradient id="Contour" gradientTransform="matrix(0,0,0,0,-550.66328,2.4560207)">
      <stop style="stop-color:#000000;stop-opacity:1;" offset="0" id="stop13253"/>
    </linearGradient>
    <linearGradient id="Shadow" gradientTransform="matrix(0.01006758,0,0,0.01150266,-539.14922,6.2963781)">
      <stop style="stop-color:#131116;stop-opacity:0.99607843;" offset="0" id="stop13218"/>
    </linearGradient>
    <linearGradient id="linearGradient2856" gradientUnits="userSpaceOnUse" gradientTransform="translate(26.940768,812.71318)" x1="-439.5173" y1="-91.620003" x2="-429.36841" y2="-91.620003" xlink:href="#Contour"/>
    <linearGradient id="Text-1" gradientTransform="matrix(0.26458333,0,0,0.26458333,-139.09524,-386.94792)">
      <stop style="stop-color:#0e0e0e;stop-opacity:1;" offset="0" id="stop15666"/>
    </linearGradient>
  </defs>
  <g id="g2511" transform="matrix(1, 0, 0, 1, 139.095245, 386.947906)">
    <path id="rect2682" d="m -139.09524,-148.8229 h 238.125 v 119.0625 h -238.125 z" style="opacity:1;fill:url(#radialGradient2844);fill-opacity:1;stroke:none;stroke-width:0.52455026;stroke-linecap:round;stroke-linejoin:round;stroke-miterlimit:4;stroke-dasharray:none;stroke-opacity:1"/>
    <g transform="matrix(0.48699338,0,0,0.48699338,109.19004,-461.741)" id="g2836">
      <path style="fill:url(#linearGradient2846);fill-opacity:1;stroke-width:0.26458332" class="st4" d="m -380.88798,758.90213 c -10.00125,-8.67833 -32.19979,-16.80104 -40.37541,-18.17687 -8.17563,-1.37584 -16.56292,-3.46604 -22.83354,-0.82021 l -9.78959,27.88708 c 0,0 9.18104,21.82813 10.34521,23.60083 1.19063,1.77271 8.81063,6.82625 21.14021,7.19667 3.41312,0 11.35062,-3.25437 11.35062,-3.25437 l 17.93875,-5.84729 8.70479,-20.92855 z" id="path2684"/>
      <path style="opacity:1;fill:url(#Body);stroke-width:0.26458332" class="st3" d="m -449.67964,754.88047 c 0,0 -11.56229,6.61458 -19.10292,4.07458 -7.54062,-2.56646 -7.22312,-7.75229 -6.95854,-9.04875 0.26458,-1.29646 1.00542,-4.02167 1.905,-5.18583 0.89958,-1.13771 5.47687,-5.37105 5.47687,-5.37105 l 0.47625,-0.21166 4.92125,4.10104 c 0,0 -5.34458,4.18042 -3.12208,7.22312 2.2225,3.01625 9.55146,1.4023 9.55146,1.4023 l 4.89479,-2.01084 1.71979,-0.92604 3.30729,-2.14312 z" id="path2686"/>
      <path style="opacity:1;fill:url(#Body);stroke-width:0.26458332" class="st3" d="m -386.02089,770.41151 c -3.33375,-0.79375 -3.6248,-5.26521 -3.6248,-5.26521 0.39688,-3.01625 1.82563,-4.55083 3.3073,-6.29708 2.11666,-0.37042 5.45041,0.0794 5.45041,0.0794 0,0 12.17084,0.87312 18.36209,8.09625 6.19125,7.22312 8.06979,13.36145 8.06979,13.36145 l 1.11125,8.28146 -1.19063,6.95854 -1.53458,3.14854 -1.08479,-1.98437 -2.93688,-1.95792 -3.86291,0.13229 0.8202,-1.16416 c 1.16417,-2.67229 1.0848,-4.23333 1.0848,-4.23333 l -0.29105,-2.80459 -0.71437,-2.56646 -1.50813,-3.38666 c -0.89958,-2.01084 -4.18041,-5.68854 -4.18041,-5.68854 l -3.57188,-2.9898 -5.31812,-2.01083 -5.02709,-0.26458 z" id="path2688"/>
      <path style="opacity:1;fill:url(#linearGradient2848);fill-opacity:1;stroke-width:0.26458332" class="st5" d="m -380.88798,758.90213 1.69334,-3.46604 -1.27,-1.5875 c 0,0 -16.85396,-13.14979 -28.15167,-15.37229 -10.84792,-3.91583 -21.69583,-4.47146 -21.69583,-4.47146 l -12.30313,1.37583 -1.50812,4.55084 c 0,0 6.29708,-3.54542 22.46312,0.68791 16.1925,4.20688 25.24125,8.51959 25.24125,8.51959 l 7.54063,3.78354 5.50333,3.57187 z" id="path2690"/>
      <path style="opacity:1;fill:url(#Body);stroke-width:0.26458332" d="m -355.88486,800.52112 a 6.0589581,6.0589581 0 0 1 -6.05896,6.05896 6.0589581,6.0589581 0 0 1 -6.05896,-6.05896 6.0589581,6.0589581 0 0 1 6.05896,-6.05896 6.0589581,6.0589581 0 0 1 6.05896,6.05896 z" id="circle2692"/>
      <path style="opacity:1;fill:url(#Body);stroke-width:0.26458332" d="m -458.43736,738.55566 a 4.7095833,4.7095833 0 0 1 -4.70958,4.70959 4.7095833,4.7095833 0 0 1 -4.70959,-4.70959 4.7095833,4.7095833 0 0 1 4.70959,-4.70958 4.7095833,4.7095833 0 0 1 4.70958,4.70958 z" id="circle2694"/>
      <path style="opacity:1;fill:url(#Head);stroke-width:0.26458332" class="st6" d="m -434.28089,754.9863 c 7.75229,-6.05896 10.87437,-5.92667 14.73729,-5.26521 3.86292,0.66146 16.48354,17.40958 11.48292,29.92438 -2.93688,4.02166 -10.2923,2.75166 -10.2923,2.75166 l -12.14437,-3.54541 -8.20208,-3.91584 c -2.14313,-5.37104 -0.23813,-10.60979 -0.23813,-10.60979 l 2.80458,-6.27062 1.79917,-2.6723 z" id="path2696"/>
      <path style="fill:url(#linearGradient2850);fill-opacity:1;stroke-width:0.26458332" class="st7" d="m -378.79777,755.40963 c 0,0 -4.65667,-4.73604 -10.53042,-7.80521 -5.87374,-3.0427 -9.04874,-4.6302 -9.04874,-4.6302 l -13.99646,-5.74146 -10.00125,-2.27542 -7.3025,-0.89958 -7.09084,0.37041 -5.66208,0.9525 6.0325,-15.4252 6.56167,-13.0175 c 0,0 7.48771,-10.71563 16.32479,-12.54125 8.81062,-1.79917 17.91229,-1.82563 28.07229,2.69875 10.18646,4.52437 13.99646,11.87979 13.99646,11.87979 0,0 2.67229,4.10104 2.48708,10.68916 -0.18521,6.58813 -2.72521,17.43605 -2.72521,17.43605 l -6.79979,16.53645 z" id="path2698"/>
      <path style="fill:url(#linearGradient2852);fill-opacity:1;stroke-width:0.26458332" class="st8" d="m -467.8036,737.60317 c 0.58208,-2.35479 2.72521,-3.3602 2.72521,-3.3602 l -0.9525,-1.4023 -0.84667,-2.19604 0.82021,-3.54541 2.56646,-1.16417 1.98437,-0.0794 2.32834,0.60854 1.11125,0.52917 2.0902,-2.54 c 0,0 -2.32833,-3.01625 -7.8052,-2.32834 -5.45042,0.66146 -6.64105,5.34459 -6.64105,5.34459 l -0.26458,2.93687 0.55563,2.8575 1.05833,2.32834 z" id="path2700"/>
      <path style="fill:url(#Hand);stroke-width:0.26458332" class="st8" d="m -461.08318,742.89484 c 0,0 6.77333,2.69875 9.92187,0.37042 3.14854,-2.35479 3.81,-5.31813 3.73063,-8.04334 -0.0794,-2.7252 -1.34938,-6.42937 -3.78355,-7.03791 -0.60854,0.47625 -2.14312,2.54 -2.14312,2.54 l 0.42333,0.60854 c 0,0 1.69334,1.93146 1.93146,3.59833 0.23813,1.66688 -0.10583,3.06917 -1.11125,4.15396 -1.00542,1.08479 -3.22792,1.29646 -3.22792,1.29646 l -1.71979,-0.44979 -1.42875,-0.82021 -0.74083,1.905 z" id="path2702"/>
      <path style="fill:url(#linearGradient2854);fill-opacity:1;stroke-width:0.26458332" class="st8" d="m -367.97631,799.96546 c 0,0 -1.93146,-1.61395 -3.91583,-1.1377 -2.01084,0.47625 -4.31271,1.27 -4.41855,4.55083 -0.0794,3.25438 3.06917,5.90021 3.06917,5.90021 l -2.03729,3.04271 c 0,0 -3.65125,-1.69334 -4.60375,-5.23875 -0.9525,-3.54542 -0.26458,-6.40292 0.47625,-7.96396 0.74083,-1.56104 2.77812,-3.54542 5.29167,-4.25979 2.54,-0.71438 6.2177,0.0529 6.2177,0.0529 l 2.40771,0.66145 -1.77271,2.24896 z" id="path2704"/>
      <path style="fill:url(#Hand);stroke-width:0.26458332" class="st8" d="m -357.81631,805.20422 c 0,0 2.24896,0.74083 3.01625,2.30187 0.89958,1.85208 1.61396,4.15396 -0.97896,6.13833 -2.59292,1.98438 -6.56167,0.92604 -6.56167,0.92604 l -1.29645,3.46605 c 0,0 3.4925,1.95791 6.93208,0.66145 3.43958,-1.29645 5.34458,-3.54541 6.16479,-5.05354 0.82021,-1.50812 1.03188,-4.23333 0.13229,-6.72041 -0.89958,-2.48709 -3.78354,-4.97417 -3.78354,-4.97417 l -1.69333,-1.11125 -0.42334,2.43417 z" id="path2706"/>
      <path style="opacity:0.3;fill:#ffffff;stroke-width:0.26458332" class="st9" d="m -380.1736,700.85255 c -25.4,-9.49854 -40.48125,8.255 -47.3075,33.39042 -3.4925,-0.60855 -13.30854,0.37041 -14.89604,1.11125 1.95791,-8.83709 11.77396,-28.46917 15.66333,-32.19979 3.88938,-3.75709 12.25021,-10.53042 21.08729,-10.4775 8.83709,0.0529 20.82271,4.36562 20.82271,4.36562 z" id="path2708"/>
      <path style="opacity:0.3;fill:#ffffff;stroke-width:0.26458332" class="st9" d="m -429.94173,734.42817 c -2.64583,0.7673 -1.53458,4.33917 -1.53458,4.33917 l -8.36083,0.0529 -4.25979,1.08479 1.56104,-4.36562 3.73062,-0.82021 8.20209,-0.71438 z" id="path2710"/>
      <path style="opacity:0.3;fill:#ffffff;stroke-width:0.26458332" class="st9" d="m -438.93756,738.74088 -10.45104,28.52209 c -2.96333,0.29104 -4.49792,0.89958 -4.49792,0.89958 l 5.715,-17.33021 4.02167,-10.90083 3.4925,-0.97896 z" id="path2712"/>
      <path style="opacity:0.3;fill:#ffffff;stroke-width:0.26458332" class="st9" d="m -462.22089,734.32234 c -3.06917,-0.39687 -5.63563,3.78354 -5.45042,5.3975 -0.68792,-2.19604 0.66146,-4.28625 1.66688,-4.89479 1.00541,-0.60854 2.59291,-0.97896 2.59291,-0.97896 z" id="path2714"/>
      <path style="opacity:0.3;fill:#ffffff;stroke-width:0.26458332" class="st9" d="m -463.43798,722.20442 c -6.00604,2.01084 -7.54062,9.68375 -3.09562,12.72646 -0.55563,0.635 -1.40229,2.69875 -1.40229,2.69875 0,0 -3.54542,-4.60375 -2.88396,-8.28146 0.635,-3.6777 3.62479,-5.84729 3.62479,-5.84729 l 2.43417,-1.19062 z" id="path2716"/>
      <path style="opacity:0.3;fill:#ffffff;stroke-width:0.26458332" class="st9" d="m -472.14277,743.58276 c -3.14854,4.52437 -3.51896,11.21833 3.83646,12.01208 -0.13229,0.9525 0.18521,3.41313 0.18521,3.41313 l -3.41313,-1.29646 c -4.6302,-3.14854 -4.1275,-7.64646 -4.20687,-8.59896 -0.0529,-0.9525 2.03729,-4.52438 2.03729,-4.52438 l 0.79375,-1.24354 z" id="path2718"/>
      <path style="opacity:0.3;fill:#ffffff;stroke-width:0.26458332" class="st9" d="m -387.21152,764.67005 c -1.93146,2.46062 2.09021,3.70417 7.54063,4.28625 5.42395,0.58208 13.2027,5.63562 14.57854,7.88458 -3.46604,-6.35 -18.44146,-16.88041 -22.11917,-12.17083 z" id="path2720"/>
      <path style="opacity:0.3;fill:#ffffff;stroke-width:0.26458332" class="st9" d="m -373.34735,794.9913 c -5.05354,1.64041 -8.5725,8.54604 -1.66688,14.34042 -0.13229,0.21166 -0.3175,0.79374 -0.3175,0.79374 l -0.0529,2.09021 c -1.03188,-0.26458 -2.09021,-1.29646 -2.09021,-1.29646 l -1.93146,-2.56645 -0.92604,-3.91584 0.39687,-3.75708 1.40229,-2.98979 1.95792,-1.77271 2.51354,-0.97896 z" id="path2722"/>
      <path style="opacity:0.3;fill:#ffffff;stroke-width:0.26458332" class="st9" d="m -361.49402,814.72921 c 0,0.66146 -0.26458,1.66688 -0.26458,1.66688 l -1.05834,1.24354 -0.635,0.18521 0.92605,-2.83104 0.21166,-0.44979 z" id="path2724"/>
      <path style="opacity:0.3;fill:#ffffff;stroke-width:0.26458332" class="st9" d="m -439.46673,766.62797 c 7.80521,4.3127 31.06209,0.0794 26.43188,-9.92188 -4.63021,-9.97479 -10.87438,-7.09083 -10.87438,-7.09083 0,0 -5.18583,1.87854 -5.37104,1.74625 -0.18521,-0.13229 -4.28625,3.09562 -4.28625,3.09562 l -1.77271,2.43417 -2.2225,4.39208 z" id="path2726"/>
      <path style="opacity:0.6;fill:#000000;fill-opacity:1;stroke-width:0.26458332" class="st10" d="m -437.50881,782.76755 c 1.93146,3.28083 10.29229,7.27604 12.56771,6.58812 2.27542,-0.71437 1.16417,-1.79916 1.16417,-1.79916 z" id="path2728"/>
      <path style="opacity:0.5;fill:#000000;fill-opacity:1;stroke-width:0.26458332" class="st12" d="m -409.59527,743.82088 c 11.45646,9.525 7.9375,27.25209 6.79979,32.54375 0,0.92604 0.0265,1.93146 0.0265,1.93146 l -1.13771,3.33375 -1.05833,1.50813 -0.55562,0.26458 c -3.04271,4.78896 -6.91732,9.67701 -13.63774,14.43951 1.42875,0 17.10378,-5.44368 17.10378,-5.44368 l 8.89,-2.88396 4.97416,-11.98562 0.3175,-8.06979 -1.11125,-1.5875 c -1.34937,-2.09021 -0.39687,-4.28625 -0.39687,-4.28625 l 0.71437,-1.82563 2.38125,-3.01625 -7.88458,-7.35541 -5.84729,-3.6248 z" id="path2730"/>
      <path style="opacity:0.4;fill:#000000;fill-opacity:1;stroke-width:0.26458332" class="st11" d="m -400.59943,741.67776 c 16.66874,2.14312 32.43791,-26.80229 21.7752,-39.92563 15.02834,5.76792 8.28146,30.10959 8.28146,30.10959 -4.57729,15.18708 -8.28146,23.28333 -8.28146,23.28333 -4.65666,-4.55083 -21.7752,-13.46729 -21.7752,-13.46729 z" id="path2732"/>
      <path d="m -458.33152,739.48172 c -0.42333,2.54 2.96334,4.73604 2.96334,4.73604 l -2.91042,-0.44979 -2.93688,-1.11125 c 1.98438,-0.50271 2.88396,-3.175 2.88396,-3.175 z" id="path2734" style="fill:url(#Contour);stroke-width:0.26458332"/>
      <path d="m -410.9711,744.13838 c 9.89542,3.54542 24.60625,14.71084 24.60625,14.71084 l 1.77271,-0.1323 3.6777,0.21167 0.50271,-0.39687 1.24354,-3.46605 c -1.93145,2.14313 -4.73604,1.11125 -4.73604,1.11125 -5.3975,-4.04812 -13.0175,-7.27604 -13.0175,-7.27604 l -12.7,-5.08 z" id="path2736" style="fill:url(#Contour);stroke-width:0.26458332"/>
      <path d="m -388.93131,762.84442 c 1.5875,-3.62479 5.45042,-4.07458 5.45042,-4.07458 l -2.72521,-0.0529 -0.10584,0.10583 c -0.52916,0.42334 -1.66687,1.74625 -2.06375,2.3548 -0.37041,0.60854 -0.86773,1.78717 -0.86773,1.78717 z" id="path2738" style="fill:url(#Contour);stroke-width:0.26458332"/>
      <path d="m -388.24339,768.95819 c 1.42875,2.03729 -2.30188,13.62415 -2.30188,13.62415 l 5.42396,-12.30312 c -1.08479,0.23812 -3.12208,-1.32103 -3.12208,-1.32103 z" id="path2740" style="fill:url(#Contour);stroke-width:0.26458332"/>
      <path d="m -447.06027,747.15463 c -2.01083,5.18584 -2.83104,7.38188 -4.28625,8.38729 1.69334,-0.66145 2.01084,-1.08479 2.01084,-1.08479 l 2.48708,-6.69396 z" id="path2742" style="stroke-width:0.26458332"/>
      <path d="m -402.79548,776.36463 c 0.97896,3.70417 -1.48166,6.72042 -2.69875,7.03792 2.69875,-2.56646 2.69875,-7.03792 2.69875,-7.03792 z" id="path2744" style="fill:url(#Contour);fill-opacity:1;stroke-width:0.26458332"/>
      <path d="m -365.33048,796.92276 c -1.93146,1.95791 -2.01083,5.34458 -0.18521,7.24958 -0.0529,-0.97896 -0.84666,-1.61396 -0.79375,-3.51896 0.0529,-1.905 0.97896,-3.73062 0.97896,-3.73062 z" id="path2746" style="fill:url(#Contour);stroke-width:0.26458332"/>
      <path style="fill:url(#Contour);stroke-width:0.26458332" d="m -461.9498,721.74354 c -0.15198,6.2e-4 -0.30417,0.004 -0.4563,0.0108 -1.21708,0.0529 -2.40781,0.3176 -3.54552,0.7674 -1.13771,0.44979 -2.19594,1.11125 -3.06906,1.98437 -0.87313,0.87313 -1.53448,1.95802 -1.87844,3.14865 -0.37042,1.19062 -0.39719,2.46083 -0.18553,3.65145 0.21167,1.19063 0.60865,2.35438 1.16428,3.41271 0.52916,1.0848 1.21729,2.06386 1.93167,3.01636 l 0.23823,-0.15865 c -0.3175,-0.50271 -0.635,-1.00521 -0.92604,-1.50792 -0.29105,-0.52916 -0.58209,-1.03198 -0.79375,-1.56114 -0.50271,-1.05834 -0.84688,-2.16959 -1.00563,-3.30729 -0.18521,-1.13771 -0.13251,-2.27573 0.18499,-3.36052 0.3175,-1.08479 0.92605,-2.06344 1.7198,-2.85719 1.5875,-1.61396 3.88958,-2.46063 6.165,-2.64584 1.16417,-0.0794 2.32844,0.0266 3.41323,0.37052 0.87024,0.27593 1.68656,0.72536 2.35903,1.35548 -0.84934,0.0669 -1.51377,0.51977 -1.59163,1.71359 0,0 0.65169,-1.50873 1.92855,-1.1958 l -1.80351,2.40399 c -1.1489,-0.69871 -2.42459,-1.29035 -3.82921,-1.44642 -0.68792,-0.0794 -1.42917,-0.0794 -2.14355,0.13229 -0.68791,0.18521 -1.37562,0.55552 -1.90479,1.08469 -1.08479,1.03187 -1.56093,2.61948 -1.34926,4.07469 0.21166,1.4552 1.11125,2.83124 2.38125,3.51916 l 0.23823,-0.42375 c -1.03188,-0.79375 -1.7198,-1.98416 -1.85209,-3.22771 -0.13229,-1.24354 0.21156,-2.56635 1.08469,-3.46593 0.84667,-0.89959 2.19583,-1.27 3.49229,-1.19063 1.32291,0.0794 2.61927,0.52906 3.86281,1.08469 l 0.0532,0.0263 0.0527,-0.0527 2.09031,-2.56676 0.0527,-0.0791 -0.0527,-0.0796 c -0.0328,-0.0449 -0.0697,-0.0865 -0.10387,-0.13023 -0.0126,-0.0436 -0.0426,-0.0836 -0.0935,-0.11627 -0.70504,-0.85166 -1.67421,-1.48364 -2.71302,-1.87017 -0.99549,-0.37042 -2.05171,-0.518 -3.11557,-0.51366 z" id="path2748"/>
      <path style="fill:url(#Contour);stroke-width:0.26458332" d="m -451.39954,727.86668 -0.10594,0.13229 -1.87843,2.7249 -0.0264,0.0263 0.0264,0.0269 c 0.0109,0.0143 0.0212,0.0281 0.032,0.0424 l 1.97146,-2.23242 c 0.0282,0.4878 0.0125,1.65321 -0.73329,2.29547 0,0 1.42618,-0.7506 1.31516,-2.06758 0.73732,0.48141 1.35303,1.14036 1.8066,1.88257 0.58209,0.9525 0.97907,2.06375 1.16428,3.175 0.39687,2.24896 0.10583,4.65677 -1.05834,6.58823 -0.58208,0.9525 -1.37551,1.77281 -2.32801,2.3549 -0.9525,0.58208 -2.06418,0.87281 -3.20189,1.0051 -1.1377,0.1323 -2.30187,0.0531 -3.43958,-0.185 -0.55562,-0.0794 -1.13728,-0.26458 -1.69291,-0.39687 -0.55562,-0.15875 -1.11146,-0.37042 -1.66709,-0.52917 l -0.10593,0.26458 c 1.08479,0.4498 2.22271,0.87282 3.38687,1.1374 1.16417,0.26458 2.38115,0.39718 3.59823,0.31781 1.21708,-0.0794 2.43438,-0.39698 3.51917,-1.03198 1.05833,-0.635 1.98395,-1.53479 2.61895,-2.59312 0.66146,-1.05833 1.05876,-2.24885 1.21751,-3.46594 0.18518,-1.21708 0.15854,-2.46031 -0.0796,-3.65094 -0.23812,-1.19062 -0.66135,-2.355 -1.34927,-3.38687 -0.68791,-1.03188 -1.64031,-1.9051 -2.80447,-2.3549 z m -1.95233,2.95279 -0.008,0.009 c 0.0263,0.0271 0.0519,0.0554 0.078,0.0827 -0.0236,-0.0309 -0.0466,-0.0609 -0.0703,-0.092 z m 0.0703,0.092 c 0.38828,0.50676 0.77245,0.99767 1.08831,1.53221 0.34396,0.58208 0.63532,1.19073 0.84698,1.82573 0.18519,0.635 0.29107,1.29656 0.26459,1.95802 -0.0529,0.635 -0.23844,1.2701 -0.5824,1.82573 -0.68792,1.08479 -1.9049,1.79875 -3.20136,1.9575 -1.27,0.18521 -2.64562,-0.23792 -3.62458,-1.11104 l -0.26458,0.31729 c 0.50271,0.50271 1.11093,0.89979 1.79885,1.13792 0.66146,0.23812 1.40229,0.3176 2.11667,0.23822 0.71437,-0.0794 1.42906,-0.31739 2.03761,-0.68781 0.60854,-0.37041 1.13749,-0.89979 1.50791,-1.53479 0.37042,-0.635 0.55539,-1.34958 0.58187,-2.06396 0.0265,-0.71437 -0.13187,-1.42833 -0.36999,-2.08979 -0.45903,-1.27505 -1.28778,-2.35236 -2.19988,-3.30523 z m -0.078,-0.0827 c -0.008,-0.008 -0.0162,-0.017 -0.0243,-0.0253 v 0.0527 z" id="path2750"/>
      <path style="fill:url(#Contour);stroke-width:0.26458332" d="m -472.30162,748.50418 -3.25406,1.1374 c 0,0 -0.29125,1.00541 0.0527,2.24896 0.16365,-0.56459 0.49798,-1.10343 1.00151,-1.57045 -0.0429,1.1382 0.61359,3.81422 3.73464,4.69273 -1.8733,-0.89706 -3.56195,-4.37228 -2.31201,-5.59862 1.12684,-0.4933 2.62536,-0.75267 4.50774,-0.61908 l -1.16375,-0.29094 z" id="path2752"/>
      <path style="opacity:0.5;fill:#000000;fill-opacity:1;stroke-width:0.26458332" class="st12" d="m -350.03756,808.74963 c -2.48708,-2.56646 -4.10104,0.50271 -4.10104,0.50271 -0.21167,-1.77271 -2.11667,-3.54542 -2.11667,-3.54542 l 0.39688,-4.15396 0.10583,-0.60854 1.29646,1.00542 c 2.80458,2.30188 3.36021,3.91583 3.36021,3.91583 z" id="path2754"/>
      <path style="opacity:0.5;fill:#000000;fill-opacity:1;stroke-width:0.26458332" class="st12" d="m -362.12902,794.46213 c 6.985,-4.52437 3.67771,-26.9875 -9.23396,-32.59666 11.72104,1.74625 16.8275,18.30916 16.8275,18.30916 l 1.08479,8.94292 -1.00541,5.90021 -0.97896,2.38125 -0.74083,1.05833 c -1.05834,-3.86292 -5.95313,-3.99521 -5.95313,-3.99521 z" id="path2756"/>
      <path style="opacity:0.5;fill:#000000;fill-opacity:1;stroke-width:0.26458332" class="st12" d="m -450.87027,749.74755 c -1.71979,5.00062 -9.81604,9.2075 -15.98083,9.65729 6.77333,0.79375 14.44625,-3.14854 14.44625,-3.14854 l 3.04271,-1.79917 2.64583,-7.43479 -0.47625,-0.0529 -2.54,1.79917 z" id="path2758"/>
      <path style="opacity:0.5;fill:#74717c;stroke-width:0.26458332" class="st12" d="m -467.98881,739.48172 c -1.21708,3.6777 1.32292,8.51958 1.32292,8.51958 1.27,-3.59833 4.10104,-4.84188 4.10104,-4.84188 -3.175,0.37042 -4.73604,-1.82562 -5.02708,-2.83104 -0.29105,-0.97896 -0.39688,-0.84666 -0.39688,-0.84666 z" id="path2760"/>
      <path style="opacity:0.5;fill:#000000;fill-opacity:1;stroke-width:0.26458332" class="st12" d="m -461.29485,734.69276 c 2.43417,3.30729 0,8.33437 -4.18042,7.9375 1.93146,1.40229 4.73604,-0.15875 4.73604,-0.15875 l 1.53459,-1.5875 0.74083,-2.14313 -0.44979,-2.19604 -1.77271,-1.71979 z" id="path2762"/>
      <path style="opacity:0.5;fill:#000000;fill-opacity:1;stroke-width:0.26458332" class="st12" d="m -358.98048,795.57338 c 2.54,3.20146 0.47625,11.08604 -5.18583,10.90084 3.09562,0.60854 5.92667,0.13229 7.64646,-2.9898 1.71979,-3.12208 -0.10584,-6.11187 -0.10584,-6.11187 l -1.61395,-1.66688 z" id="path2764"/>
      <path style="opacity:0.5;fill:#000000;fill-opacity:1;stroke-width:0.26458332" class="st12" d="m -366.17714,795.41463 c -3.73063,-0.29104 -5.13292,3.33375 -5.13292,3.33375 1.00542,-0.26458 3.25437,1.16417 3.25437,1.16417 0.15875,-1.48167 1.34938,-3.04271 1.34938,-3.04271 l 1.48167,-1.19063 z" id="path2766"/>
      <path style="opacity:0.5;fill:#000000;fill-opacity:1;stroke-width:0.26458332" class="st12" d="m -407.92839,767.18359 c 0.71437,7.69938 -7.09084,14.73729 -15.90146,13.12333 5.47687,2.09021 7.80521,2.43417 11.16542,1.98438 3.33375,-0.47625 4.04812,-2.14313 4.81541,-3.54542 0.76729,-1.40229 0.92604,-4.41854 0.92604,-4.41854 l -0.26458,-4.445 z" id="path2768"/>
      <path d="m -380.86152,759.03442 c 2.38125,-6.13833 4.86833,-12.22375 6.93208,-18.44145 1.03188,-3.12209 1.93146,-6.24417 2.69875,-9.41917 0.74084,-3.175 1.27,-6.37646 1.4023,-9.57792 0.15875,-3.20146 -0.18521,-6.40291 -1.13771,-9.3927 -0.21167,-0.7673 -0.55563,-1.45521 -0.84667,-2.16959 -0.13229,-0.37041 -0.34396,-0.68791 -0.52917,-1.03187 -0.1852,-0.34396 -0.37041,-0.68792 -0.55562,-1.03188 -0.84667,-1.29646 -1.79917,-2.54 -2.91042,-3.62479 -2.19604,-2.2225 -4.89479,-3.96875 -7.75229,-5.34458 -2.88396,-1.37584 -5.92667,-2.46063 -9.04875,-3.25438 -3.12208,-0.79375 -6.27062,-1.48166 -9.47208,-1.66687 -3.175,-0.21167 -6.35,-0.0265 -9.41917,0.68791 -1.53458,0.34396 -3.01625,0.87313 -4.445,1.48167 -0.71437,0.3175 -1.40229,0.68792 -2.09021,1.03188 -0.66145,0.42333 -1.34937,0.79375 -1.98437,1.24354 -2.59292,1.77271 -4.84188,4.04812 -6.82625,6.50875 -2.01083,2.48708 -3.70417,5.23875 -5.23875,8.09625 -1.56104,2.83104 -2.91042,5.82083 -4.23333,8.81062 -2.61938,6.00604 -4.92125,12.17083 -7.64646,18.20333 l -0.42334,-0.15875 c 2.09021,-6.24416 3.99521,-12.54125 6.35,-18.7325 2.3548,-6.16479 5.10646,-12.32958 9.23396,-17.72708 2.03729,-2.69875 4.49792,-5.15937 7.32896,-7.14375 2.80458,-2.01083 6.05896,-3.41312 9.41917,-4.18041 3.36021,-0.7673 6.82625,-0.9525 10.21291,-0.71438 3.38667,0.21167 6.69396,0.92604 9.94834,1.79917 3.22791,0.84666 6.40291,2.03729 9.47208,3.51896 3.04271,1.50812 5.92667,3.41312 8.33437,5.9002 1.21709,1.21709 2.24896,2.64584 3.175,4.10105 0.21167,0.37041 0.39688,0.76729 0.60855,1.1377 0.1852,0.39688 0.42333,0.7673 0.55562,1.16417 0.3175,0.79375 0.66146,1.5875 0.89958,2.43417 1.00542,3.30729 1.27,6.77333 1.03188,10.13354 -0.23813,3.36021 -0.87313,6.6675 -1.71979,9.89541 -0.84667,3.22792 -1.905,6.35 -3.06917,9.47209 -2.32833,6.19125 -5.00062,12.22375 -7.75229,18.20333 z" id="path2770" style="fill:url(#Contour);stroke-width:0.26458332"/>
      <path d="m -446.39881,746.57255 c -1.93146,1.66687 -4.10104,3.12208 -6.45583,4.15396 -2.35479,1.05833 -4.86834,1.74625 -7.46125,1.87854 -1.29646,0.0529 -2.61938,-0.0265 -3.88938,-0.42333 -0.635,-0.21167 -1.27,-0.50271 -1.77271,-1.00542 -0.13229,-0.10583 -0.23812,-0.29104 -0.34395,-0.42333 l -0.26459,-0.42334 -0.21166,-0.47625 c -0.0529,-0.15875 -0.10584,-0.3175 -0.15875,-0.50271 -0.15875,-0.68791 -0.0794,-1.40229 0.1852,-2.03729 0.26459,-0.635 0.66146,-1.19062 1.0848,-1.66687 0.42333,-0.50271 0.89958,-0.9525 1.37583,-1.34938 0.23812,-0.21166 0.47625,-0.42333 0.74083,-0.60854 l 0.37042,-0.29104 0.18521,-0.15875 0.10583,-0.0794 c 0.0265,-0.0265 0.0529,-0.0794 0.13229,-0.0265 l 0.13229,0.15875 c 0.0265,0.0794 -0.0265,0.0794 -0.0529,0.13229 l -0.0794,0.0794 -0.18521,0.15875 -0.37041,0.3175 c -0.23813,0.21167 -0.47625,0.42333 -0.68792,0.635 -0.44979,0.42333 -0.89958,0.89958 -1.29646,1.37583 -0.39687,0.47625 -0.74083,1.00542 -0.9525,1.56105 -0.21166,0.55562 -0.26458,1.16416 -0.13229,1.71979 0.0529,0.13229 0.0794,0.29104 0.13229,0.42333 l 0.18521,0.39688 0.23813,0.39687 c 0.0794,0.13229 0.15875,0.23813 0.26458,0.3175 0.39687,0.39688 0.9525,0.68792 1.53458,0.87313 1.16417,0.37041 2.43417,0.47625 3.67771,0.42333 2.51354,-0.10583 5.00063,-0.76729 7.3025,-1.74625 2.32833,-1.00542 4.49792,-2.35479 6.45583,-3.96875 z" id="path2772" style="fill:url(#Contour);stroke-width:0.26458332"/>
      <path d="m -467.75068,739.32297 c -1.53459,1.16416 -3.01625,2.4077 -4.28625,3.83645 -1.27,1.42875 -2.30188,3.04271 -2.88396,4.84188 -0.26459,0.89958 -0.42334,1.82562 -0.42334,2.75167 0,0.92604 0.18521,1.85208 0.50271,2.7252 0.3175,0.87313 0.84667,1.61396 1.48167,2.30188 0.34396,0.3175 0.66146,0.66146 1.03187,0.92604 l 0.55563,0.42333 0.60854,0.37042 c 1.61396,0.9525 3.4925,1.45521 5.37104,1.61396 l 0.71438,0.0529 0.34396,0.0265 h 0.37041 l 1.42875,-0.0529 c 0.47625,-0.0265 0.9525,-0.13229 1.42875,-0.18521 0.47625,-0.0794 0.9525,-0.10583 1.42875,-0.23813 3.75709,-0.8202 7.35542,-2.38125 10.76854,-4.20687 l 0.10584,0.18521 c -3.36021,1.95791 -6.90563,3.65125 -10.74209,4.57729 -0.47625,0.15875 -0.9525,0.18521 -1.4552,0.29104 -0.47625,0.0794 -0.97896,0.18521 -1.45521,0.21167 l -1.48167,0.0794 -0.37042,0.0265 -0.37041,-0.0265 -0.74084,-0.0529 c -1.98437,-0.13229 -3.96875,-0.635 -5.68854,-1.64042 l -0.66146,-0.37041 -0.60854,-0.4498 c -0.42333,-0.29104 -0.76729,-0.66145 -1.13771,-1.00541 -0.34395,-0.37042 -0.68791,-0.74084 -0.9525,-1.19063 -0.29104,-0.42333 -0.52916,-0.89958 -0.71437,-1.37583 -0.37042,-0.9525 -0.52917,-1.98438 -0.52917,-2.98979 0,-1.03188 0.18521,-2.03729 0.47625,-2.98979 0.635,-1.93146 1.77271,-3.6248 3.12209,-5.05355 1.34937,-1.4552 2.91041,-2.64583 4.55083,-3.75708 z" id="path2774" style="fill:url(#Contour);stroke-width:0.26458332"/>
      <path d="m -458.25214,737.94713 c 0.13229,1.32292 -0.26459,2.67229 -1.11125,3.65125 -0.82021,1.00542 -2.03729,1.64042 -3.30729,1.77271 -1.27,0.13229 -2.56646,-0.23812 -3.54542,-1.03187 -0.97896,-0.79375 -1.66688,-1.93146 -1.82563,-3.20146 -0.15875,-1.24354 0.15875,-2.56646 0.9525,-3.59834 0.7673,-1.03187 1.95792,-1.74625 3.25438,-1.93145 1.29646,-0.18521 2.64583,0.15875 3.70417,0.9525 1.05833,0.8202 1.74625,2.06375 1.87854,3.38666 z m -0.71438,0.0794 c -0.15875,-1.11125 -0.74083,-2.16958 -1.61396,-2.88396 -0.87312,-0.71437 -2.03729,-1.05833 -3.20145,-0.9525 -1.13771,0.10584 -2.24896,0.68792 -2.9898,1.5875 -0.74083,0.89959 -1.11125,2.11667 -0.97895,3.3073 0.13229,1.19062 0.74083,2.30187 1.69333,3.0427 0.9525,0.74084 2.16958,1.05834 3.36021,0.87313 1.16416,-0.15875 2.24896,-0.82021 2.93687,-1.74625 0.66146,-0.92604 0.97896,-2.09021 0.79375,-3.22792 z" id="path2776" style="fill:url(#Contour);stroke-width:0.26458332"/>
      <path d="m -355.56735,799.88609 c 0.18521,1.66687 -0.3175,3.38667 -1.37584,4.65667 -1.03187,1.29646 -2.59291,2.11666 -4.20687,2.30187 -1.61396,0.18521 -3.30729,-0.29104 -4.60375,-1.27 -1.29646,-1.00541 -2.16958,-2.51354 -2.38125,-4.15396 -0.21167,-1.64041 0.23812,-3.33375 1.24354,-4.65666 1.00542,-1.32292 2.54,-2.2225 4.20688,-2.43417 1.66687,-0.23813 3.41312,0.23812 4.73604,1.29646 1.32291,1.00541 2.19604,2.61937 2.38125,4.25979 z m -0.60854,0.0794 c -0.18521,-1.50813 -1.00542,-2.91042 -2.19605,-3.83646 -1.19062,-0.92604 -2.7252,-1.37583 -4.23333,-1.21708 -1.50812,0.15875 -2.93687,0.9525 -3.88937,2.14312 -0.9525,1.19063 -1.42875,2.77813 -1.24355,4.31271 0.15875,1.53459 0.97896,2.98979 2.19605,3.96875 1.21708,0.97896 2.83104,1.40229 4.36562,1.21709 1.53458,-0.18521 2.96333,-1.03188 3.88938,-2.27542 0.92604,-1.21708 1.32291,-2.80459 1.11125,-4.31271 z" id="path2778" style="fill:url(#Contour);stroke-width:0.26458332"/>
      <path d="m -356.14944,798.4838 c 1.05834,-2.16959 1.7198,-4.52438 1.93146,-6.87917 0.23813,-2.38125 0.10584,-4.7625 -0.26458,-7.11729 -0.39688,-2.32833 -1.03188,-4.65667 -1.95792,-6.82625 -0.89958,-2.19604 -2.03729,-4.28625 -3.41312,-6.21771 -2.72521,-3.86291 -6.42938,-7.03791 -10.68917,-9.15458 l -0.79375,-0.39688 -0.82021,-0.34395 c -0.55562,-0.23813 -1.08479,-0.47625 -1.66687,-0.66146 -0.55563,-0.18521 -1.11125,-0.42334 -1.69334,-0.58209 l -1.74625,-0.47625 c -2.35479,-0.55562 -4.73604,-0.87312 -7.1702,-1.03187 h 0.0265 l -1.87854,0.10583 v 0 0 c -0.37041,0.44979 -0.74083,0.87313 -1.08479,1.34938 l -0.47625,0.71437 c -0.0794,0.13229 -0.15875,0.23813 -0.23812,0.34396 l -0.21167,0.37042 c -0.58208,0.97896 -0.97896,2.06375 -1.03188,3.175 -0.0529,1.11125 0.18521,2.24896 0.79375,3.14854 0.29105,0.47625 0.68792,0.87312 1.11125,1.21708 0.21167,0.15875 0.4498,0.34396 0.68792,0.44979 0.10583,0.0794 0.23813,0.1323 0.37042,0.18521 0.0529,0.0265 0.13229,0.0529 0.18521,0.0794 l 0.15875,0.0265 c 0.5027,0.0529 1.08479,-0.0265 1.66687,-0.10583 0.58208,-0.0794 1.13771,-0.13229 1.71979,-0.18521 1.16417,-0.10583 2.32834,-0.10583 3.4925,0 2.32834,0.21167 4.63021,0.9525 6.64104,2.14312 1.00542,0.60855 1.95792,1.29646 2.83105,2.06375 0.87312,0.79375 1.66687,1.64042 2.4077,2.51355 1.48167,1.79916 2.75167,3.75708 3.70417,5.9002 0.92604,2.11667 1.66688,4.39209 1.69333,6.72042 0.0529,1.16417 -0.13229,2.32833 -0.52916,3.43958 -0.39688,1.0848 -1.03188,2.11667 -1.93146,2.8575 l -0.0529,-0.0794 c 0.87313,-0.74083 1.48167,-1.7727 1.82563,-2.83104 0.34396,-1.08479 0.50271,-2.2225 0.44979,-3.38666 0,-0.1323 0,-0.29105 0,-0.42334 l -0.0529,-0.42333 -0.10583,-0.84667 c -0.13229,-0.55562 -0.23813,-1.11125 -0.39688,-1.66687 -0.1852,-0.55563 -0.34395,-1.08479 -0.52916,-1.64042 l -0.66146,-1.5875 c -0.9525,-2.09021 -2.2225,-4.02167 -3.70417,-5.76792 -0.74083,-0.87312 -1.53458,-1.69333 -2.38125,-2.46062 -0.87312,-0.74083 -1.77271,-1.42875 -2.75166,-2.01083 -1.95792,-1.16417 -4.18042,-1.87855 -6.42938,-2.06375 -1.13771,-0.10584 -2.27542,-0.0794 -3.41312,0.0265 -0.58209,0.0529 -1.13771,0.10583 -1.7198,0.1852 -0.58208,0.0529 -1.1377,0.15875 -1.79916,0.10584 -0.0794,-0.0265 -0.18521,-0.0265 -0.26459,-0.0529 -0.0794,-0.0265 -0.13229,-0.0529 -0.21166,-0.0794 -0.13229,-0.0529 -0.29104,-0.13229 -0.42334,-0.21167 -0.26458,-0.15875 -0.5027,-0.34396 -0.74083,-0.52916 -0.44979,-0.39688 -0.87312,-0.84667 -1.19062,-1.34938 -0.66146,-1.00542 -0.9525,-2.24896 -0.82021,-3.43958 0.13229,-1.19063 0.58208,-2.30188 1.21708,-3.28084 l 0.23813,-0.37041 c 0.0794,-0.13229 0.1852,-0.23813 0.26458,-0.34396 l 0.52917,-0.68792 c 0.37041,-0.44979 0.79375,-0.84666 1.19062,-1.24354 v 0 0 0 l 1.85208,-0.34396 v 0 h 0.0265 c 2.43417,-0.10583 4.92125,-0.0265 7.35542,0.37042 2.43417,0.42333 4.84187,1.11125 7.14375,2.11667 2.30187,1.00541 4.445,2.32833 6.40292,3.91583 1.95791,1.5875 3.6777,3.43958 5.15937,5.47687 1.45521,2.0373 2.67229,4.2598 3.59833,6.58813 0.89959,2.35479 1.53459,4.78896 1.82563,7.27604 0.29104,2.48708 0.26458,5.00063 -0.18521,7.46125 -0.44979,2.46062 -1.34937,4.84187 -2.75167,6.87917 z" id="path2780" style="fill:url(#Contour);stroke-width:0.26458332"/>
      <path d="m -360.83256,797.2138 c -0.52917,0.34396 -1.08479,0.79375 -1.42875,1.37583 -0.37042,0.58208 -0.635,1.24354 -0.76729,1.93146 -0.15875,0.68792 -0.21167,1.40229 -0.23813,2.11667 0,0.34396 0.0265,0.71437 0.0529,1.05833 0.0529,0.34396 0.10583,0.71438 0.26458,1.00542 l -0.0794,-0.0265 v 0 c 0.29104,-0.10583 0.52916,-0.39688 0.76729,-0.66146 0.21167,-0.29104 0.42333,-0.58208 0.60854,-0.87312 0.37042,-0.60855 0.71438,-1.27001 0.9525,-1.93146 0.23813,-0.66146 0.42333,-1.37584 0.42333,-2.09021 0,-0.34396 -0.0265,-0.68792 -0.13229,-1.03188 -0.0529,-0.15875 -0.13229,-0.3175 -0.21166,-0.47625 l -0.1323,-0.21166 c -0.0265,-0.0529 -0.0529,-0.10584 -0.0794,-0.18521 z m 0.0529,-0.26459 c 0.0794,0.0794 0.1852,0.15875 0.26458,0.23813 0.0529,0.0794 0.10583,0.15875 0.15875,0.23812 0.10583,0.15875 0.18521,0.34396 0.26458,0.52917 0.13229,0.37042 0.18521,0.74083 0.18521,1.13771 0,0.76729 -0.15875,1.50812 -0.42333,2.19604 -0.26459,0.71438 -0.58209,1.37583 -1.00542,1.98438 -0.21167,0.3175 -0.42333,0.60854 -0.68792,0.87312 -0.13229,0.13229 -0.26458,0.26459 -0.42333,0.39688 -0.15875,0.10583 -0.3175,0.23812 -0.52917,0.26458 v 0 h -0.0265 l -0.0265,-0.0265 c -0.29104,-0.29104 -0.39688,-0.68791 -0.50271,-1.03187 -0.0529,-0.18521 -0.0794,-0.37042 -0.10583,-0.55563 -0.0265,-0.18521 -0.0529,-0.37041 -0.0794,-0.55562 -0.0794,-0.74084 -0.0265,-1.50813 0.10583,-2.27542 0.15875,-0.74083 0.4498,-1.48167 0.89959,-2.11667 0.44979,-0.60854 1.08479,-1.08479 1.93146,-1.29646 z" id="path2782" style="fill:url(#Contour);stroke-width:0.26458332"/>
      <path d="m -461.95631,736.38609 c -0.39687,0.0529 -0.89958,0.23813 -1.27,0.55563 -0.37042,0.29104 -0.66146,0.68791 -0.89958,1.11125 -0.23813,0.42333 -0.39688,0.87312 -0.50271,1.34937 -0.0529,0.23813 -0.10583,0.47625 -0.13229,0.71438 -0.0265,0.23812 -0.0265,0.5027 0.0529,0.66145 l -0.10583,-0.0794 c 0.15875,0 0.39688,-0.13229 0.58208,-0.26458 0.18521,-0.13229 0.37042,-0.29104 0.55563,-0.44979 0.37042,-0.3175 0.68792,-0.66146 0.97896,-1.03188 0.29104,-0.37041 0.52916,-0.79375 0.68791,-1.24354 0.0265,-0.10583 0.0794,-0.21166 0.0794,-0.34396 0,-0.10583 0.0265,-0.23812 0.0265,-0.34395 0,-0.10584 -0.0265,-0.23813 -0.0265,-0.34396 0,-0.0794 0,-0.18521 -0.0265,-0.29104 z m 0.0794,-0.13229 c 0.3175,0.50271 0.29104,1.05833 0.15875,1.56104 -0.1323,0.50271 -0.39688,0.9525 -0.68792,1.34938 -0.29104,0.42333 -0.66146,0.76729 -1.03188,1.11125 -0.1852,0.15875 -0.39687,0.3175 -0.635,0.44979 -0.23812,0.10583 -0.44979,0.26458 -0.79375,0.23812 h -0.0794 l -0.0265,-0.0529 c -0.10583,-0.29104 -0.0794,-0.55562 -0.0529,-0.79375 0.0265,-0.26458 0.0794,-0.50271 0.1323,-0.74083 0.13229,-0.47625 0.3175,-0.9525 0.55562,-1.40229 0.23813,-0.44979 0.55563,-0.84667 0.97896,-1.16417 0.42333,-0.34396 0.89958,-0.55562 1.48167,-0.55562 z" id="path2784" style="fill:url(#Contour);stroke-width:0.26458332"/>
      <path d="m -441.47756,763.05609 c 2.32833,-3.4925 4.92125,-6.90562 8.20208,-9.68375 1.64042,-1.37583 3.46605,-2.59292 5.47688,-3.43958 2.01083,-0.84667 4.20687,-1.24354 6.37646,-1.32292 h 0.82021 0.39687 c 0.13229,0 0.3175,0.0265 0.44979,0.0529 0.15875,0.0265 0.3175,0.0265 0.47625,0.0794 l 0.42334,0.13229 c 0.29104,0.0794 0.55562,0.23813 0.8202,0.37042 1.03188,0.55562 1.85209,1.32292 2.61938,2.09021 1.48167,1.61396 2.69875,3.38666 3.73062,5.26521 2.06375,3.73062 3.57188,7.77874 4.41855,11.9327 0.42333,2.09021 0.66145,4.20688 0.55562,6.35 -0.0794,1.05834 -0.21167,2.14313 -0.55562,3.14854 -0.34396,1.03188 -0.87313,1.98438 -1.61396,2.80459 -0.76729,0.79375 -1.79917,1.27 -2.83104,1.5875 -1.05834,0.3175 -2.14313,0.42333 -3.20146,0.44979 -2.16959,0.0794 -4.28625,-0.3175 -6.35,-0.82021 -2.06375,-0.50271 -4.10104,-1.13771 -6.08542,-1.85208 -1.98437,-0.71438 -3.94229,-1.50813 -5.90021,-2.35479 -3.86291,-1.69334 -7.64646,-3.54542 -11.32416,-5.66209 1.905,0.89959 3.81,1.77271 5.76791,2.59292 1.93146,0.82021 3.86292,1.64042 5.82084,2.40771 3.91583,1.50812 7.88458,2.91041 11.9327,3.83646 2.0373,0.44979 4.07459,0.8202 6.11188,0.97895 1.03187,0.0794 2.06375,0.0529 3.06917,-0.13229 1.00541,-0.18521 1.95791,-0.60854 2.67229,-1.32291 0.68791,-0.74084 1.16416,-1.66688 1.48166,-2.64584 0.29105,-0.97896 0.42334,-2.01083 0.47625,-3.04271 0.0529,-2.06375 -0.23812,-4.15395 -0.74083,-6.16479 -0.50271,-2.01083 -1.16417,-3.99521 -1.98437,-5.92666 -0.79375,-1.93146 -1.7198,-3.78354 -2.80459,-5.55625 -1.08479,-1.77271 -2.24896,-3.4925 -3.65125,-4.94771 -0.68791,-0.71438 -1.45521,-1.37583 -2.27541,-1.82563 -0.21167,-0.10583 -0.42334,-0.23812 -0.635,-0.29104 l -0.3175,-0.10583 c -0.10584,-0.0265 -0.21167,-0.0265 -0.3175,-0.0529 -0.10584,0 -0.18521,-0.0529 -0.3175,-0.0265 h -0.37042 -0.76729 c -2.03729,0.0265 -4.04813,0.42333 -5.95313,1.13771 -1.905,0.74083 -3.65125,1.82562 -5.29166,3.06916 -1.64042,1.24355 -3.14855,2.69875 -4.60375,4.20688 -1.48167,1.48167 -2.77813,3.12208 -4.15396,4.73604 z" id="path2786" style="fill:url(#Contour);stroke-width:0.26458332"/>
      <path d="m -432.27006,753.21359 c -1.16417,1.64042 -2.30187,3.28083 -3.33375,5.00063 -1.00542,1.71979 -1.905,3.4925 -2.59292,5.34458 -0.68791,1.85208 -1.11125,3.78354 -1.21708,5.76792 -0.0794,1.95791 0.21167,3.94229 0.92604,5.84729 l -0.0265,0.0265 c -0.97895,-1.77271 -1.48166,-3.81 -1.50812,-5.87375 -0.0265,-2.06375 0.39687,-4.10105 1.08479,-6.00605 0.68792,-1.93145 1.64042,-3.73062 2.77813,-5.42395 1.1377,-1.7198 2.43416,-3.28084 3.88937,-4.68313 z" id="path2788" style="fill:url(#Contour);stroke-width:0.26458332"/>
      <path d="m -414.72818,782.74109 c -0.71438,-1.40229 -0.9525,-3.04271 -0.82021,-4.60375 0.13229,-1.5875 0.55562,-3.12208 1.19062,-4.55083 0.635,-1.42875 1.45521,-2.77813 2.48709,-3.96875 0.5027,-0.60854 1.08479,-1.16417 1.71979,-1.61396 0.3175,-0.23813 0.66146,-0.44979 1.03187,-0.60854 0.37042,-0.15875 0.76729,-0.26459 1.19063,-0.21167 l -0.0265,0.21167 c -0.34396,0 -0.68792,0.15875 -1.00542,0.34396 -0.3175,0.1852 -0.60854,0.42333 -0.87312,0.66145 -0.55563,0.50271 -1.03188,1.05834 -1.48167,1.66688 -0.89958,1.19062 -1.61396,2.51354 -2.2225,3.88937 -0.58208,1.37584 -1.03187,2.80459 -1.24354,4.28625 -0.18521,1.45521 -0.18521,2.96334 0.23812,4.41855 z" id="path2790" style="fill:url(#Contour);stroke-width:0.26458332"/>
      <path d="m -421.42214,781.52401 c -0.34396,-1.08479 -0.55563,-2.2225 -0.66146,-3.36021 -0.10583,-1.13771 -0.10583,-2.27542 -0.0265,-3.43958 0.18521,-2.27542 0.71438,-4.55084 1.56104,-6.6675 0.42334,-1.05834 0.92604,-2.11667 1.50813,-3.09563 0.58208,-0.97896 1.27,-1.93146 2.03729,-2.77812 0.76729,-0.84667 1.64042,-1.64042 2.61937,-2.24896 0.97896,-0.60854 2.09021,-1.03188 3.25438,-1.11125 l 0.0265,0.18521 c -2.19604,0.42333 -3.99521,1.905 -5.3975,3.59833 -1.40229,1.71979 -2.46063,3.67771 -3.28084,5.74146 -0.79375,2.06375 -1.34937,4.23333 -1.5875,6.45583 -0.13229,1.11125 -0.1852,2.2225 -0.15875,3.33375 0.0265,1.11125 0.1323,2.2225 0.3175,3.33375 z" id="path2792" style="fill:url(#Contour);stroke-width:0.26458332"/>
      <path d="m -429.43902,779.01047 c -0.76729,-2.6723 -1.08479,-5.47688 -0.89958,-8.28146 0.15875,-2.80459 0.87312,-5.60917 2.09021,-8.14917 1.19062,-2.56646 2.91041,-4.86833 4.92125,-6.79979 2.01083,-1.95792 4.33916,-3.54542 6.77333,-4.84188 l 0.10583,0.15875 c -2.27541,1.53459 -4.445,3.25438 -6.29708,5.23875 -1.87854,1.98438 -3.43958,4.23334 -4.55083,6.6675 -1.13771,2.46063 -1.79917,5.08 -2.09021,7.77875 -0.29104,2.69875 -0.18521,5.45042 0.13229,8.17563 z" id="path2794" style="fill:url(#Contour);stroke-width:0.26458332"/>
      <path d="m -435.02173,776.70859 c -0.71437,-1.03187 -1.19062,-2.27542 -1.48166,-3.51896 -0.26459,-1.24354 -0.37042,-2.54 -0.34396,-3.83646 0.0529,-2.56645 0.635,-5.10645 1.48167,-7.51416 0.87312,-2.40771 2.0902,-4.68313 3.59833,-6.74688 1.53458,-2.03729 3.38667,-3.86291 5.52979,-5.21229 -1.95792,1.61396 -3.59833,3.51896 -4.97417,5.58271 -1.37583,2.06375 -2.46062,4.33917 -3.28083,6.6675 -0.82021,2.35479 -1.34937,4.78896 -1.53458,7.24958 -0.15875,2.48709 0,5.00063 1.00541,7.32896 z" id="path2796" style="fill:url(#Contour);stroke-width:0.26458332"/>
      <path d="m -438.30256,782.45005 14.9225,4.445 c 0.3175,0.10583 0.52917,0.44979 0.42333,0.76729 -0.10583,0.3175 -0.44979,0.52917 -0.76729,0.42333 -0.0265,0 -0.0265,0 -0.0529,-0.0265 z" id="path2798" style="fill:url(#Contour);stroke-width:0.26458332"/>
      <path d="m -362.18194,788.58838 c 0.15875,-0.89958 0.82021,-1.69333 1.61396,-2.19604 0.79375,-0.50271 1.71979,-0.71437 2.64584,-0.76729 0.92604,-0.0529 1.85208,0.0794 2.69875,0.44979 l 0.3175,0.13229 c 0.10583,0.0529 0.21166,0.13229 0.29104,0.18521 0.10583,0.0529 0.21166,0.13229 0.29104,0.18521 l 0.26458,0.23812 c 0.37042,0.29105 0.635,0.74084 0.79375,1.16417 l -0.42333,0.21167 c -0.47625,-0.60854 -1.16417,-0.92604 -1.905,-1.11125 -0.74083,-0.18521 -1.50813,-0.23813 -2.27542,-0.18521 -0.76729,0.0529 -1.50812,0.23812 -2.19604,0.52917 -0.71437,0.26458 -1.32292,0.68791 -1.95792,1.27 z" id="path2800" style="fill:url(#Contour);stroke-width:0.26458332"/>
      <path d="m -364.53673,781.31234 c 0,-1.00542 0.52917,-1.905 1.13771,-2.64583 0.635,-0.71438 1.40229,-1.29646 2.2225,-1.74625 0.82021,-0.44979 1.71979,-0.79375 2.69875,-0.89959 0.92604,-0.10583 1.98438,0.0529 2.72521,0.71438 l -0.15875,0.18521 c -0.74083,-0.50271 -1.64042,-0.55563 -2.48708,-0.39688 -0.84667,0.15875 -1.66688,0.50271 -2.43417,0.9525 -0.74083,0.44979 -1.45521,1.00542 -2.03729,1.64042 -0.58209,0.635 -1.05834,1.37583 -1.19063,2.19604 z" id="path2802" style="fill:url(#Contour);stroke-width:0.26458332"/>
      <path d="m -368.18798,775.78255 c -0.23812,-0.97896 -0.21166,-2.06375 0.15875,-3.06917 0.37042,-1.00541 1.16417,-1.85208 2.03729,-2.43416 0.87313,-0.60855 1.87855,-0.97896 2.91042,-1.16417 0.50271,-0.0794 1.03188,-0.13229 1.56104,-0.0794 0.52917,0.0529 1.05834,0.10583 1.56104,0.44979 l -0.23812,0.39688 c -0.39688,-0.1323 -0.87313,-0.10584 -1.32292,-0.0794 -0.44979,0.0529 -0.92604,0.10583 -1.37583,0.23812 -0.89958,0.23813 -1.77271,0.60854 -2.51354,1.11125 -0.76729,0.50271 -1.40229,1.16417 -1.85209,1.95792 -0.47625,0.76729 -0.71437,1.66687 -0.92604,2.67229 z" id="path2804" style="fill:url(#Contour);stroke-width:0.26458332"/>
      <path d="m -373.53256,771.46984 c -0.82021,-0.74083 -1.21708,-1.93146 -1.19063,-3.06917 0.0265,-1.16416 0.4498,-2.24895 1.0848,-3.175 0.635,-0.92604 1.48166,-1.71979 2.48708,-2.2225 1.00542,-0.5027 2.19604,-0.68791 3.22792,-0.3175 l -0.0265,0.1323 c -1.03188,0.0529 -1.95792,0.44979 -2.69875,1.00541 -0.76729,0.55563 -1.40229,1.29646 -1.905,2.09021 -0.50271,0.79375 -0.82021,1.69333 -1.00542,2.59292 -0.18521,0.92604 -0.13229,1.85208 0.13229,2.88396 z" id="path2806" style="fill:url(#Contour);stroke-width:0.26458332"/>
      <path d="m -380.72923,769.98817 c -0.9525,-0.60854 -1.5875,-1.66687 -1.82562,-2.80458 -0.26459,-1.13771 -0.15875,-2.32833 0.13229,-3.43958 0.29104,-1.11125 0.82021,-2.16959 1.5875,-3.06917 0.37042,-0.44979 0.82021,-0.84667 1.32292,-1.13771 0.5027,-0.29104 1.08479,-0.50271 1.69333,-0.52916 l 0.0529,0.47625 c -0.97896,0.29104 -1.74625,0.97895 -2.3548,1.79916 -0.60854,0.82021 -1.05833,1.77271 -1.37583,2.75167 -0.3175,0.97896 -0.44979,2.01083 -0.37042,3.04271 0.0794,1.03187 0.42334,2.03729 1.13771,2.88396 z" id="path2808" style="fill:url(#Contour);stroke-width:0.26458332"/>
      <path d="m -451.24068,755.70067 c -0.0794,0 -0.15875,0 -0.23813,-0.0265 l -0.21167,-0.0794 c -0.13229,-0.0529 -0.26458,-0.13229 -0.37041,-0.23812 -0.21167,-0.18521 -0.39688,-0.39688 -0.55563,-0.60854 -0.3175,-0.44979 -0.55562,-0.97896 -0.68791,-1.50813 -0.1323,-0.52916 -0.1323,-1.11125 0,-1.66687 0.13229,-0.55563 0.47625,-1.03188 0.87312,-1.40229 l 0.15875,0.15875 c -0.3175,0.39687 -0.55562,0.84666 -0.635,1.32291 -0.0794,0.47625 -0.0529,0.97896 0.0794,1.45521 0.13229,0.47625 0.3175,0.9525 0.58208,1.37583 0.13229,0.21167 0.26458,0.42334 0.42333,0.60855 0.15875,0.15875 0.34396,0.37041 0.55563,0.42333 z" id="path2810" style="fill:url(#Contour);stroke-width:0.26458332"/>
      <path d="m -457.22027,758.39942 c -0.37041,0 -0.74083,-0.0529 -1.08479,-0.21166 -0.34396,-0.15875 -0.66146,-0.39688 -0.89958,-0.66146 -0.47625,-0.58208 -0.76729,-1.27 -0.87313,-1.98438 -0.10583,-0.71437 -0.0529,-1.42875 0.21167,-2.11666 0.13229,-0.34396 0.3175,-0.66146 0.58208,-0.89959 0.26459,-0.23812 0.60854,-0.42333 0.97896,-0.44979 l 0.0265,0.18521 c -0.635,0.15875 -1.00542,0.74083 -1.16417,1.32292 -0.15875,0.60854 -0.15875,1.24354 -0.0529,1.87854 0.13229,0.60854 0.37041,1.21708 0.76729,1.66687 0.37041,0.47625 0.92604,0.74084 1.53458,0.84667 z" id="path2812" style="fill:url(#Contour);stroke-width:0.26458332"/>
      <path d="m -467.98881,759.27255 c -0.42333,-0.74083 -0.60854,-1.53458 -0.68792,-2.35479 -0.0794,-0.82021 0,-1.66688 0.23813,-2.46063 0.23812,-0.79375 0.635,-1.5875 1.29646,-2.14312 0.66146,-0.55563 1.53458,-0.84667 2.32833,-0.76729 v 0.23812 c -0.76729,0.13229 -1.45521,0.44979 -1.95792,0.9525 -0.5027,0.52917 -0.84666,1.19063 -1.05833,1.905 -0.21167,0.71438 -0.26458,1.48167 -0.23812,2.2225 0.0529,0.74083 0.1852,1.50813 0.47625,2.19604 z" id="path2814" style="fill:url(#Contour);stroke-width:0.26458332"/>
      <path d="m -466.69235,749.50942 c -0.68792,-0.44979 -1.48167,-0.66145 -2.27542,-0.76729 -0.79375,-0.13229 -1.61396,-0.10583 -2.43416,0 -0.82021,0.0794 -1.61396,0.26459 -2.38125,0.55563 -0.37042,0.13229 -0.74084,0.3175 -1.05834,0.52916 -0.3175,0.21167 -0.60854,0.47625 -0.71437,0.79375 l -0.44979,-0.10583 c 0.10583,-0.52917 0.47625,-0.87312 0.8202,-1.16417 0.37042,-0.26458 0.7673,-0.47625 1.16417,-0.635 0.82021,-0.34395 1.66688,-0.5027 2.54,-0.60854 0.87313,-0.10583 1.74625,-0.0529 2.59292,0.10584 0.84666,0.1852 1.69333,0.5027 2.35479,1.1377 z" id="path2816" style="fill:url(#Contour);stroke-width:0.26458332"/>
      <path d="m -466.05735,746.46672 c -0.37042,-0.55563 -0.79375,-1.05834 -1.32292,-1.48167 -0.50271,-0.42333 -1.08479,-0.74083 -1.69333,-0.97896 -0.60854,-0.23812 -1.24354,-0.39687 -1.905,-0.44979 -0.635,-0.0529 -1.32292,0 -1.82563,0.26458 l -0.26458,-0.37041 c 0.635,-0.47625 1.42875,-0.58209 2.14313,-0.55563 0.74083,0.0265 1.4552,0.18521 2.11666,0.47625 0.66146,0.29104 1.29646,0.68792 1.82563,1.19063 0.52916,0.5027 0.92604,1.1377 1.16416,1.79916 z" id="path2818" style="fill:url(#Contour);stroke-width:0.26458332"/>
      <path d="m -379.19464,755.46255 c -0.9525,-1.03188 -2.06375,-1.93146 -3.20146,-2.80458 -1.11125,-0.87313 -2.30188,-1.69334 -3.4925,-2.48709 -2.40771,-1.56104 -4.86834,-2.98979 -7.38188,-4.33916 -5.05354,-2.6723 -10.29229,-4.97417 -15.68979,-6.82625 -5.3975,-1.85209 -10.95375,-3.28084 -16.58937,-3.99521 -5.63563,-0.68792 -11.43,-0.68792 -16.93334,0.82021 l -0.13229,-0.4498 2.09021,-0.635 2.11667,-0.47625 c 0.71437,-0.13229 1.42875,-0.23812 2.14312,-0.34395 0.71438,-0.0794 1.45521,-0.1323 2.16959,-0.21167 2.88395,-0.18521 5.79437,-0.10583 8.67833,0.23812 2.88396,0.3175 5.715,0.84667 8.51958,1.53459 2.80459,0.68791 5.55625,1.53458 8.28146,2.48708 2.72521,0.9525 5.3975,2.01083 8.04333,3.20146 2.61938,1.19062 5.2123,2.48708 7.72584,3.86292 2.51354,1.40229 5.00062,2.88395 7.35541,4.52437 1.16417,0.84667 2.35479,1.66688 3.46604,2.59292 1.11125,0.92604 2.19605,1.87854 3.175,2.98979 z" id="path2820" style="fill:url(#Contour);stroke-width:0.26458332"/>
      <path style="opacity:0.8;fill:url(#Shadow);fill-opacity:1;stroke-width:0.26458332" d="m -402.05466,836.08112 a 20.346458,2.1166666 0 0 1 -20.34646,2.11666 20.346458,2.1166666 0 0 1 -20.34646,-2.11666 20.346458,2.1166666 0 0 1 20.34646,-2.11667 20.346458,2.1166666 0 0 1 20.34646,2.11667 z" id="ellipse2822"/>
      <path id="path2824" d="m -407.87548,722.20442 5.2123,-6.87916 c 0.44979,-2.64583 0.26458,-4.49792 -0.635,-4.86833 -1.56105,-0.60855 -4.70959,3.65124 -7.03792,9.52499 -2.32833,5.87375 -2.93688,11.13896 -1.37583,11.7475 1.56104,0.60855 4.70958,-3.65125 7.03791,-9.525 0.0529,-0.13229 0.10584,-0.29104 0.15875,-0.42333 z" style="fill:url(#linearGradient2856);fill-opacity:1;stroke-width:0.26458332"/>
      <path d="m -381.97277,758.21422 0.37042,0.3175 0.52916,0.44979 c 0.10584,-0.0265 0.18521,-0.0529 0.29105,-0.0529 0.0794,0 0.15875,0 0.23812,0 l -0.60854,-0.66146 -0.42333,-0.42333 c -0.1323,-0.1323 -0.26459,-0.23813 -0.39688,-0.37042 -0.52917,-0.47625 -1.05833,-0.9525 -1.64042,-1.40229 l -0.84666,-0.66146 -0.87313,-0.635 c -0.58208,-0.42333 -1.16416,-0.82021 -1.77271,-1.21708 -2.38125,-1.5875 -4.92124,-2.9898 -7.46124,-4.28625 -2.56646,-1.29646 -5.15938,-2.48709 -7.83167,-3.54542 -2.67229,-1.05833 -5.34458,-2.06375 -8.06979,-2.93688 -5.45042,-1.7727 -11.03313,-3.20145 -16.72167,-4.04812 -2.8575,-0.42333 -5.715,-0.66146 -8.62542,-0.60854 l -1.08479,0.0265 -1.08479,0.0794 c -0.71437,0.0529 -1.42875,0.18521 -2.16958,0.26458 -1.42875,0.26458 -2.8575,0.635 -4.15396,1.34938 v 0 l -0.0794,0.0265 -0.0265,0.10583 -10.16,27.91354 -0.0794,0.21167 0.10583,0.23812 v 0 l 5.2123,11.58875 c 1.7727,3.86292 3.43958,7.72584 5.42395,11.50938 0.55563,1.00541 1.42875,1.71979 2.32834,2.32833 0.89958,0.60854 1.85208,1.11125 2.83104,1.53458 1.95792,0.87313 3.96875,1.56105 6.0325,2.11667 2.06375,0.55563 4.15396,0.97896 6.27062,1.24354 2.11667,0.23813 4.2598,0.39688 6.40292,0.0265 h 0.0265 0.0265 l 13.59958,-4.47146 13.59958,-4.41854 v 0 l 0.15875,-0.0529 0.0529,-0.15875 7.80521,-19.39396 c -0.18521,0 -0.37042,0 -0.52917,-0.0529 l -7.85812,19.02355 -13.41438,4.49791 -13.57312,4.49792 c -2.01084,0.37042 -4.15396,0.21167 -6.21771,-0.0529 -2.09021,-0.26458 -4.15396,-0.68792 -6.16479,-1.24354 -2.03729,-0.55563 -4.02167,-1.21709 -5.92667,-2.09021 -0.9525,-0.44979 -1.87854,-0.92604 -2.72521,-1.50813 -0.84666,-0.58208 -1.64041,-1.24354 -2.11666,-2.11666 -0.9525,-1.85209 -1.82563,-3.78354 -2.69875,-5.715 -0.84667,-1.93146 -1.7198,-3.86292 -2.54,-5.82084 l -2.51355,-5.92666 -2.27541,-5.66209 9.28687,-27.86062 c 1.27,-0.50271 2.61938,-0.74083 3.96875,-0.92604 0.71438,-0.0529 1.40229,-0.13229 2.09021,-0.10583 l 1.05833,-0.0265 1.05834,0.0265 c 2.80458,0.10583 5.60916,0.44979 8.41375,0.89958 2.77812,0.47625 5.55625,1.05833 8.30791,1.74625 2.75167,0.66146 5.47688,1.42875 8.17563,2.30187 5.3975,1.7198 10.71562,3.73063 15.84854,6.13834 2.56646,1.19062 5.08,2.54 7.51417,3.99521 0.60854,0.37041 1.21708,0.74083 1.79916,1.1377 l 0.87313,0.58209 0.84666,0.635 c 0.58209,0.39687 1.11125,0.84666 1.66688,1.29646 z" id="path2826" style="fill:url(#Contour);stroke-width:0.26458332"/>
      <path d="m -392.58256,754.40422 c 2.56646,1.7727 4.70958,3.25437 5.00062,5.79437 1.21709,-0.60854 1.95792,-1.905 1.95792,-1.905 l -3.20146,-2.40771 z" id="path2828" style="fill:url(#Contour);stroke-width:0.26458332"/>
      <path d="m -355.56735,801.15609 c -0.52917,3.62479 0.15875,5.47688 0.15875,5.47688 l -1.16417,-0.87313 c -0.68792,-0.44979 -1.21708,-0.55562 -1.21708,-0.55562 l 1.50812,-2.01084 c 0.55563,-1.16417 0.47625,-1.98437 0.47625,-1.98437 z" id="path2830" style="fill:url(#Contour);stroke-width:0.26458332"/>
      <path style="fill:url(#Contour);stroke-width:0.26458332" d="m -371.27368,794.33962 c -0.65815,-0.01 -1.31961,0.0299 -1.96784,0.12248 -1.29646,0.1852 -2.59291,0.63479 -3.70416,1.37562 -1.11125,0.7673 -2.01094,1.79938 -2.61949,2.99 -0.60854,1.19063 -0.9525,2.51354 -1.05833,3.83646 -0.10583,1.32292 0.0266,2.67239 0.37052,3.94239 0.34396,1.27 0.89969,2.51355 1.69344,3.57188 0.82021,1.05833 1.93136,1.93156 3.20136,2.35489 l 0.18499,0.0527 0.10594,-0.15864 1.95802,-3.04271 0.0527,-0.10594 -0.0791,-0.0796 c -0.50271,-0.55562 -1.00552,-1.08438 -1.42885,-1.69292 -0.4498,-0.60854 -0.82011,-1.24385 -1.08469,-1.90531 -0.29104,-0.66146 -0.44995,-1.37594 -0.47646,-2.09031 -0.0265,-0.68792 0.13261,-1.40209 0.45011,-2.03709 0.635,-1.27 1.93135,-2.14291 3.33364,-2.43396 1.40229,-0.31749 3.06917,0.0526 4.23333,1.00511 l 0.0528,-0.13215 c -0.55562,-0.52917 -1.42864,-0.95274 -2.16947,-1.16441 -0.74084,-0.18521 -1.53437,-0.23771 -2.30167,-0.10542 -0.76731,0.13229 -1.50854,0.42302 -2.14354,0.87281 -0.635,0.42334 -1.19031,1.03178 -1.53427,1.74615 -0.34396,0.68792 -0.52933,1.48208 -0.50281,2.27583 0,0.76729 0.21166,1.53458 0.52916,2.24896 0.61675,1.38769 1.58401,2.52444 2.65721,3.53415 l -1.51878,2.13527 c -0.0762,-0.11511 -0.5655,-0.92184 0,-2.12442 0,0 -1.08546,1.57207 -0.55706,2.62 -1.02383,-0.44931 -1.89299,-1.20556 -2.56471,-2.11719 -0.74083,-1.00541 -1.24365,-2.16927 -1.56115,-3.38635 -0.60854,-2.43417 -0.5026,-5.10677 0.63511,-7.32927 0.58208,-1.11125 1.37573,-2.09011 2.4076,-2.80448 1.03188,-0.71438 2.22239,-1.1376 3.46594,-1.34927 1.24354,-0.21167 2.51375,-0.21198 3.78375,-0.0532 0.66146,0.0265 1.26979,0.18562 1.90479,0.29146 0.635,0.13229 1.24343,0.31719 1.87843,0.47594 l 0.0796,-0.21136 c -0.60854,-0.18521 -1.21708,-0.39729 -1.85208,-0.55604 -0.635,-0.13229 -1.24333,-0.3175 -1.90479,-0.39687 -0.635,-0.10584 -1.29006,-0.16526 -1.94821,-0.17519 z" id="path2832"/>
      <path style="fill:url(#Contour);stroke-width:0.26458332" d="m -355.83172,800.62709 -0.15918,0.23772 c 0.97896,0.76729 1.95792,1.56114 2.77813,2.48718 0.84666,0.89959 1.58792,1.90521 2.14355,2.99 0.55562,1.08479 0.89953,2.27521 0.92604,3.49229 0.0264,1.21709 -0.29136,2.40802 -0.84699,3.49281 -1.1377,2.14313 -3.14854,3.78334 -5.42395,4.68292 -1.13771,0.44979 -2.3548,0.71427 -3.57188,0.68782 -1.06063,-0.0231 -2.10098,-0.26727 -3.01636,-0.7674 1.37584,-0.21167 1.42886,-2.51354 1.42886,-2.51354 -0.21058,1.07393 -1.21071,1.85622 -1.62317,2.14044 l 0.89866,-2.92592 c 1.41555,0.28498 2.88203,0.412 4.32274,0.0977 0.74083,-0.15875 1.45542,-0.42313 2.06396,-0.84646 0.60854,-0.42334 1.1376,-1.00563 1.48156,-1.66709 0.71438,-1.34937 0.635,-2.98989 0,-4.33927 -0.3175,-0.68791 -0.79354,-1.26989 -1.37562,-1.74614 -0.58208,-0.44979 -1.27,-0.79365 -1.98438,-0.9524 l -0.10594,0.15865 c 1.37584,0.39687 2.54022,1.42906 3.1223,2.69906 0.58208,1.27 0.66146,2.83063 0,4.07417 -0.3175,0.60854 -0.79407,1.16427 -1.37615,1.56114 -0.58208,0.39688 -1.24323,0.68823 -1.93114,0.84698 -0.71438,0.18521 -1.42918,0.23771 -2.14355,0.23771 -0.70567,0.0252 -1.38703,-0.0464 -2.06756,-0.14469 l 0.004,-0.014 -0.0227,0.0114 c -0.0277,-0.004 -0.0555,-0.007 -0.0832,-0.0114 h -0.0263 v 0.0264 l -1.37616,3.22823 -0.079,0.15864 0.15864,0.10594 c 1.08479,0.74083 2.38136,1.11094 3.67782,1.1374 1.29645,0.0265 2.59259,-0.26438 3.78322,-0.71417 1.21708,-0.47625 2.32833,-1.13781 3.30729,-1.95802 1.00542,-0.82021 1.82605,-1.82532 2.40813,-2.98948 0.58209,-1.16417 0.89935,-2.46094 0.84646,-3.7574 -0.0265,-1.27 -0.42355,-2.5401 -1.00563,-3.67781 -0.58208,-1.13771 -1.34938,-2.16948 -2.24896,-3.06906 -0.87312,-0.92604 -1.87812,-1.69302 -2.88353,-2.46032 z" id="path2834"/>
    </g>
    <text id="text8504" y="-103.62769" x="18.80895" style="font-style: normal; font-weight: normal; font-size: 10.5833px; line-height: 1.25; font-family: sans-serif; text-align: start; letter-spacing: 0px; word-spacing: 0px; text-anchor: start; fill: url(#Text-1); fill-opacity: 1; stroke: none; stroke-width: 0.264583; white-space: pre;"><tspan style="font-style:normal;font-variant:normal;font-weight:normal;font-stretch:normal;font-size:12.69999981px;font-family:'Roboto Slab';font-variant-ligatures:normal;font-variant-caps:normal;font-variant-numeric:normal;font-feature-settings:normal;text-align:center;text-anchor:middle;fill:url(#Text-1);fill-opacity:1;stroke-width:0.26458332;" y="-103.62769" x="18.80895" id="tspan8502">404 Not Found</tspan></text>
    <text id="text8519" y="-85.105911" x="18.844091" style="font-style: normal; font-weight: normal; font-size: 10.5833px; line-height: 1.25; font-family: sans-serif; text-align: start; letter-spacing: 0px; word-spacing: 0px; text-anchor: start; fill: url(#Text-1); fill-opacity: 1; stroke: none; stroke-width: 0.264583; white-space: pre;"><tspan style="font-style:normal;font-variant:normal;font-weight:300;font-stretch:normal;font-size:10.58333302px;font-family:'Roboto Condensed';font-variant-ligatures:normal;font-variant-caps:normal;font-variant-numeric:normal;font-feature-settings:normal;text-align:center;text-anchor:middle;fill:url(#Text-1);fill-opacity:1;stroke-width:0.26458332;" y="-85.105911" x="18.844091" id="tspan8517">Sorry, I looked everywhere, and</tspan><tspan id="tspan8521" style="font-style:normal;font-variant:normal;font-weight:300;font-stretch:normal;font-size:10.58333302px;font-family:'Roboto Condensed';font-variant-ligatures:normal;font-variant-caps:normal;font-variant-numeric:normal;font-feature-settings:normal;text-align:center;text-anchor:middle;fill:url(#Text-1);fill-opacity:1;stroke-width:0.26458332;" y="-71.773399" x="18.844091">still came up empty handed.</tspan></text>
  </g>
</svg>