<?xml version="1.0" encoding="utf-8"?>
<svg viewBox="0 833.438 238.125 119.063" width="238.125" height="119.063" xmlns="http://www.w3.org/2000/svg" xmlns:xlink="http://www.w3.org/1999/xlink">
  <defs>
    <radialGradient id="radialGradient9632" gradientUnits="userSpaceOnUse" gradientTransform="matrix(0.49484642,0,0,0.24856418,112.72668,315.70894)" cx="-268.28397" cy="765.6449" r="239.54193" xlink:href="#Background"/>
    <linearGradient id="Background">
      <stop id="stop2858" offset="0" style="stop-color:#000000;stop-opacity:0.1254902"/>
      <stop style="stop-color:#000000;stop-opacity:0.03137255" offset="0.8714" id="stop2978"/>
      <stop id="stop2862" offset="1" style="stop-color:#000000;stop-opacity:0"/>
    </linearGradient>
    <linearGradient id="Text-1" gradientTransform="matrix(0.26458333,0,0,0.26458333,-139.09524,-386.94792)">
      <stop style="stop-color:#0e0e0e;stop-opacity:1;" offset="0" id="stop15666"/>
    </linearGradient>
    <linearGradient id="Shadow" gradientTransform="matrix(0.01006758,0,0,0.01150266,-539.14922,6.2963781)">
      <stop style="stop-color:#131116;stop-opacity:0.99607843;" offset="0" id="stop13218"/>
    </linearGradient>
    <linearGradient id="Hand" gradientTransform="matrix(5.0089295e-6,0,0,5.0089295e-6,-550.66032,2.4638708)">
      <stop style="stop-color:#323e4d;stop-opacity:1;" offset="0" id="stop13271"/>
    </linearGradient>
    <linearGradient id="Contour" gradientTransform="matrix(0,0,0,0,-550.66328,2.4560207)">
      <stop style="stop-color:#000000;stop-opacity:1;" offset="0" id="stop13253"/>
    </linearGradient>
    <linearGradient id="Head" gradientTransform="matrix(1.7794098e-4,0,0,1.7794098e-4,-550.5605,2.600199)">
      <stop style="stop-color:#fd9644;stop-opacity:1;" offset="0" id="stop13236"/>
    </linearGradient>
    <linearGradient id="Body" gradientTransform="matrix(0,0,0,0,-550.66328,2.4560221)">
      <stop style="stop-color:#a5b1c2;stop-opacity:1;" offset="0" id="stop13242"/>
    </linearGradient>
    <linearGradient id="Middle" gradientTransform="matrix(0.01333946,0,0,0.01333946,-543.31773,2.4232587)">
      <stop style="stop-color:#778ca3;stop-opacity:1;" offset="0" id="stop13265"/>
    </linearGradient>
  </defs>
  <g id="g3622" transform="matrix(1, 0, 0, 1, 139.095245, 386.947906)">
    <path style="opacity:1;fill:url(#radialGradient9632);fill-opacity:1;stroke:none;stroke-width:0.52455026;stroke-linecap:round;stroke-linejoin:round;stroke-miterlimit:4;stroke-dasharray:none;stroke-opacity:1" d="m -139.09524,446.48959 h 238.125 v 119.0625 h -238.125 z" id="path9466"/>
    <text style="font-style: normal; font-weight: normal; font-size: 9.52068px; line-height: 1.25; font-family: sans-serif; text-align: start; letter-spacing: 0px; word-spacing: 0px; text-anchor: start; fill: url(#Text-1); fill-opacity: 1; stroke: none; stroke-width: 0.238017; white-space: pre;" x="-60.01495" y="495.08923" id="text9624"><tspan id="tspan9622" x="-60.01495" y="495.08923" style="font-style:normal;font-variant:normal;font-weight:normal;font-stretch:normal;font-size:11.42481136px;font-family:'Roboto Slab';font-variant-ligatures:normal;font-variant-caps:normal;font-variant-numeric:normal;font-feature-settings:normal;text-align:center;text-anchor:middle;fill:url(#Text-1);fill-opacity:1;stroke-width:0.2380169;">503 Service Unavailable</tspan></text>
    <text style="font-style: normal; font-weight: normal; font-size: 9.52068px; line-height: 1.25; font-family: sans-serif; text-align: start; letter-spacing: 0px; word-spacing: 0px; text-anchor: start; fill: url(#Text-1); fill-opacity: 1; stroke: none; stroke-width: 0.238017; white-space: pre;" x="-60.165188" y="511.75134" id="text9630"><tspan x="-60.165188" y="511.75134" style="font-style:normal;font-variant:normal;font-weight:300;font-stretch:normal;font-size:9.52067566px;font-family:'Roboto Condensed';font-variant-ligatures:normal;font-variant-caps:normal;font-variant-numeric:normal;font-feature-settings:normal;text-align:center;text-anchor:middle;fill:url(#Text-1);fill-opacity:1;stroke-width:0.2380169;" id="tspan9628">“Sorry, I’m currently unable to handle</tspan><tspan id="tspan9656" x="-60.165188" y="523.74518" style="font-style:normal;font-variant:normal;font-weight:300;font-stretch:normal;font-size:9.52067566px;font-family:'Roboto Condensed';font-variant-ligatures:normal;font-variant-caps:normal;font-variant-numeric:normal;font-feature-settings:normal;text-align:center;text-anchor:middle;fill:url(#Text-1);fill-opacity:1;stroke-width:0.2380169;">your request. Try again later!”</tspan></text>
    <g transform="translate(120.01847,411.42712)" id="g7454">
      <ellipse cx="-82.727913" cy="118.58364" rx="14.277597" ry="1.3689065" id="ellipse13347" style="opacity:0.8;fill:url(#Shadow);fill-opacity:1;stroke-width:0.12885033"/>
      <path id="path9373" d="m -30.899494,104.68216 c 0.566943,0.0902 1.108114,-0.42521 1.108114,-0.42521 l 0.399432,-9.921476 c -0.03867,-0.309241 -0.322121,-0.528286 -0.863293,-0.682906 -0.541171,-0.141735 -5.025163,-0.914837 -5.025163,-0.914837 -0.489633,-0.0902 -0.695792,0.231931 -0.695792,0.554058 -0.0129,0.322126 0,9.225681 0,9.225681 z" class="st7" style="fill:#f3efe3;stroke-width:0.12885033"/>
      <path id="path9403" d="m -30.551601,104.6435 c 0.06443,-0.23193 0.06443,-1.55909 0.06443,-1.55909 l 0.09019,-4.123205 0.103082,-4.16187 c 0.0129,-0.502514 0.07731,-1.017914 -0.206159,-1.095224 -0.283474,-0.07731 0.74733,0.09019 0.74733,0.09019 l 0.309241,0.425209 -0.03867,2.628547 -0.180393,4.174753 -0.167506,3.24703 -0.296355,0.23193 z" class="st12" style="opacity:0.3;fill:#000000;fill-opacity:1;stroke-width:0.12885033"/>
      <path id="path9375" d="m -37.200278,100.71357 1.288507,0.85041 c 0.798869,0.0644 3.646465,-0.97926 3.646465,-0.97926 l 0.206159,-0.0644 c 0.59271,-0.38655 0.618482,-1.18542 0.399437,-1.468894 -0.219045,-0.283469 -2.07449,-1.095224 -3.298572,-1.224077 -1.224077,-0.128849 -3.015098,0.721563 -3.221257,1.069457 -0.206159,0.347898 0.180392,1.005032 0.180392,1.005032 z" class="st8" style="fill:url(#Hand);stroke-width:0.12885033"/>
      <path id="path9401" d="m -36.452943,99.940466 c 0.335008,0.167504 0.901951,0.231934 0.901951,0.231934 l 2.087376,-0.528289 0.657139,-0.231931 c 0.463861,-0.193278 1.133881,-0.309241 1.133881,-0.309241 0.283469,0.502514 0.06442,1.120991 -0.425209,1.456011 -0.450975,0.11596 -1.584856,0.54117 -1.584856,0.54117 l -1.791021,0.46386 -0.541171,-0.0387 -1.224077,-0.79887 c 0.01291,-0.28347 0.785987,-0.785984 0.785987,-0.785984 z" class="st12" style="opacity:0.6;fill:#000000;fill-opacity:1;stroke-width:0.12885033"/>
      <path id="path9377" d="m -36.182359,99.373523 c -0.180388,-0.270584 -0.605596,-0.425204 -1.0308,-0.309241 -0.425208,0.115968 -1.017918,0.554057 -1.327159,0.953498 -0.322127,0.41232 -0.476747,1.35292 -0.541171,1.68793 -0.06442,0.33502 0,1.4689 0,1.4689 l -0.103082,3.36299 -0.07731,2.34508 -0.231931,4.1361 c -0.231931,2.25488 -0.502514,3.00221 -0.554057,3.11817 -0.05154,0.11597 -0.141735,0.46386 -0.399437,0.57983 -0.257698,0.11596 -2.38373,0.29635 -2.38373,0.29635 l -2.731624,0.23193 -3.698009,0.23194 -4.161865,0.1675 -4.445334,0.0387 -3.594926,-0.10308 c -1.546204,-0.0387 -3.86551,-0.55406 -3.86551,-0.55406 0,0 -0.914837,-0.2577 -1.198306,-0.45097 -0.283469,-0.19328 -0.489633,-0.36079 -0.5154,-0.4381 -0.02576,-0.0773 -0.03867,-0.5154 -0.03867,-0.5154 l 0.167506,-2.17757 0.05154,-1.34004 c 0.03867,-1.15965 -0.309241,-2.28065 -0.309241,-2.28065 l -0.59271,-1.01792 -0.695792,-0.46386 -0.953494,-0.18039 -0.373665,0.0129 -0.167506,1.36582 c 0.322126,-0.33502 0.837526,-0.24482 1.108114,-0.1804 0.270584,0.0773 0.631368,0.46387 0.631368,0.46387 l 0.219044,0.64425 0.115963,0.96637 -0.0129,1.53332 -0.0902,1.99719 0.01291,1.00503 c 0.01291,0.85041 0.283469,1.30139 0.283469,1.30139 l 0.193273,0.21904 c 0.180393,0.21905 1.881217,0.47675 1.881217,0.47675 l 2.177571,0.24481 c 1.494666,0.16751 5.360171,0.20616 5.360171,0.20616 l 4.857661,-0.0387 5.914228,-0.20616 4.767461,-0.28347 2.293539,-0.10308 c 1.056571,-0.0902 1.365812,-0.65714 1.365812,-0.65714 l 0.167506,-0.56694 0.167506,-2.08738 0.180388,-2.70585 0.193278,-3.20838 0.15462,-3.68512 0.01291,-1.1983 c 0.02576,-0.79888 0.193273,-1.66217 0.193273,-1.66217 0.167507,-0.90195 0.670025,-1.57198 0.670025,-1.57198 l 0.322122,-0.30924 c 0.438095,-0.167502 0.798874,-0.502515 0.631368,-0.760217 z" class="st9" style="fill:url(#Hand);stroke-width:0.12885033"/>
      <path style="opacity:0.3;fill:#000000;fill-opacity:1;stroke-width:0.12885033" class="st12" d="m -31.556633,99.785845 -0.115963,4.535535 -4.3036,-1.79103 0.02576,-0.97926 c 0.554058,0.15462 2.873364,-0.67002 2.873364,-0.67002 l 1.082342,-0.4252 c 0.180393,0.0387 0.43809,-0.670025 0.43809,-0.670025 z" id="path9477"/>
      <path id="path9381" d="m -38.192424,99.656997 c -0.05154,-0.07731 -0.115963,-0.154621 -0.141735,-0.244817 -0.03867,-0.0902 -0.05154,-0.193278 -0.02576,-0.296355 0.03867,-0.206164 0.167506,-0.360784 0.309241,-0.476747 0.283474,-0.23193 0.618481,-0.373665 0.953494,-0.502519 0.335012,-0.115962 0.67002,-0.206159 1.017918,-0.283469 0.347894,-0.07731 0.695792,-0.128848 1.043686,-0.167506 h 0.0129 0.01291 c 0.154621,0.0129 0.309241,0.02576 0.463861,0.05154 0.154621,0.02576 0.309241,0.05154 0.450976,0.07731 l 0.23193,0.05154 0.219045,0.06442 c 0.154621,0.03867 0.29636,0.0902 0.438094,0.141735 0.28347,0.115968 0.566939,0.244816 0.837527,0.386551 0.270583,0.15462 0.528285,0.322127 0.74733,0.541171 v 0 l 0.0129,0.01291 v 0.0129 c 0.05154,0.15462 0.0902,0.309241 0.0902,0.463861 0,0.154621 -0.01291,0.309241 -0.07731,0.463861 -0.05154,0.141737 -0.128848,0.283467 -0.23193,0.399437 -0.05154,0.0644 -0.115968,0.11596 -0.180392,0.15462 -0.03867,0.0258 -0.06442,0.0387 -0.103077,0.0644 -0.03867,0.0129 -0.0902,0.0258 -0.115968,0.0387 -0.566943,0.16751 -1.146767,0.39944 -1.71371,0.59271 -0.283469,0.10308 -0.579824,0.19328 -0.863298,0.28347 -0.141735,0.0387 -0.296355,0.0902 -0.43809,0.11597 -0.15462,0.0387 -0.296355,0.0644 -0.476747,0.0773 -0.05154,0 -0.0902,0 -0.141734,0 -0.03867,-0.0129 -0.0902,-0.0129 -0.128849,-0.0258 -0.07731,-0.0258 -0.154621,-0.0515 -0.231931,-0.0902 -0.141734,-0.0773 -0.270588,-0.15462 -0.399437,-0.24482 -0.257702,-0.18039 -0.476747,-0.38655 -0.695791,-0.60559 l 0.0902,-0.0902 c 0.244816,0.18039 0.489628,0.3479 0.74733,0.50252 0.128849,0.0773 0.257702,0.15462 0.386551,0.20616 0.128849,0.0515 0.257702,0.11596 0.373665,0.10308 0.128854,-0.0129 0.283474,-0.0387 0.425209,-0.0644 0.141734,-0.0258 0.296355,-0.0644 0.438089,-0.10308 0.296355,-0.0773 0.579829,-0.15462 0.876184,-0.23193 l 0.876179,-0.24481 c 0.29636,-0.0902 0.579829,-0.1804 0.876184,-0.25771 0.141734,-0.0129 0.257702,-0.10307 0.360779,-0.21904 0.0902,-0.11596 0.167506,-0.24482 0.21905,-0.373663 0.03867,-0.141734 0.06442,-0.283469 0.05154,-0.438089 -0.0129,-0.14174 -0.06442,-0.283474 -0.115967,-0.412323 l 0.0129,0.02576 v 0 c -0.231931,-0.167506 -0.502514,-0.322127 -0.760216,-0.45098 -0.270584,-0.128849 -0.541172,-0.244812 -0.824641,-0.335008 -0.283474,-0.0902 -0.566943,-0.167506 -0.863298,-0.219045 -0.141734,-0.03867 -0.296355,-0.05154 -0.438089,-0.07731 -0.14174,-0.02576 -0.29636,-0.02576 -0.438095,-0.05154 h 0.02576 c -0.682906,0.0902 -1.365812,0.206163 -2.010065,0.399437 -0.322127,0.103081 -0.644253,0.23193 -0.901951,0.425208 -0.128853,0.09019 -0.244816,0.219045 -0.270588,0.360779 -0.03867,0.141735 0.01291,0.296355 0.115968,0.425204 z" style="fill:url(#Contour);stroke-width:0.12885033"/>
      <path id="path9383" d="m -35.886004,100.12086 c 0.141739,-0.0258 0.257702,-0.0515 0.386551,-0.0644 0.128853,-0.0129 0.257702,-0.0387 0.386551,-0.0515 0.257702,-0.05154 0.515404,-0.103082 0.773102,-0.167506 0.257702,-0.06442 0.515404,-0.128849 0.760221,-0.206159 l 0.760216,-0.206159 v 0 c -0.244817,0.103077 -0.489633,0.206159 -0.73445,0.296355 -0.244816,0.0902 -0.502513,0.167506 -0.760216,0.244816 -0.257702,0.07731 -0.515399,0.141733 -0.773102,0.193273 -0.128848,0.0258 -0.257702,0.0515 -0.399437,0.0644 -0.128848,-0.0129 -0.270583,-0.0387 -0.399436,-0.10307 z" style="fill:url(#Contour);stroke-width:0.12885033"/>
      <path id="path9385" d="m -35.911771,101.56398 v 0.96637 l -0.03867,-0.0644 v 0 l 3.105293,1.30139 1.546204,0.64425 0.386551,0.16751 c 0.115968,0.0387 0.244817,0.0515 0.373665,0.0258 0.257703,-0.0515 0.502519,-0.21905 0.695792,-0.39944 v 0 l -0.0129,0.0387 0.06443,-2.74451 c 0.02576,-0.91484 0.05154,-1.829678 0.07731,-2.744514 l 0.09019,-2.74451 0.03867,-1.378698 c 0,-0.115967 0.0129,-0.219049 0,-0.30924 -0.0129,-0.0902 -0.03867,-0.167507 -0.0902,-0.231931 -0.0902,-0.128853 -0.283469,-0.21905 -0.489633,-0.270588 l -0.15462,-0.03867 c -0.05154,-0.01291 -0.115963,-0.02576 -0.167502,-0.02576 l -0.335012,-0.06442 -0.67002,-0.115967 -1.352931,-0.244817 -1.352926,-0.244811 -0.670025,-0.115968 -0.335008,-0.06442 -0.0902,-0.01291 c -0.02576,0 -0.03867,0 -0.06442,0 -0.03867,0 -0.0902,0 -0.128854,0.01291 -0.15462,0.02576 -0.257697,0.128848 -0.296355,0.30924 -0.01291,0.07731 -0.02576,0.193273 -0.02576,0.309241 l -0.01291,0.335013 -0.02576,1.365812 c -0.0129,0.914836 -0.03867,1.829673 -0.0902,2.744509 h -0.128849 c -0.05154,-0.914836 -0.103082,-1.829673 -0.115968,-2.744509 -0.01291,-0.463862 -0.01291,-0.914837 -0.02576,-1.378698 0,-0.115968 0,-0.231931 0,-0.347899 0,-0.115962 0,-0.23193 0.02576,-0.373665 0.02576,-0.141734 0.0902,-0.283469 0.193278,-0.399437 0.103077,-0.115962 0.257698,-0.193273 0.399437,-0.219044 0.07731,-0.01291 0.141735,-0.01291 0.219045,-0.01291 0.03867,0 0.07731,0 0.103077,0.01291 l 0.0902,0.0129 0.335012,0.06442 0.682906,0.128849 1.352931,0.244817 1.352926,0.244816 0.682906,0.128849 0.335013,0.06443 c 0.05154,0.0129 0.115963,0.0129 0.167506,0.03867 l 0.180387,0.03867 0.180392,0.06442 c 0.06442,0.02576 0.115968,0.05154 0.180392,0.07731 0.115963,0.06442 0.231931,0.15462 0.322127,0.270583 0.09019,0.115968 0.141735,0.270588 0.15462,0.399437 0.01286,0.128849 0.01286,0.257702 0,0.373665 -0.0129,0.450976 -0.03867,0.914837 -0.06443,1.365817 l -0.141734,2.74451 c -0.03867,0.914836 -0.0902,1.829668 -0.141735,2.744518 l -0.15462,2.7445 v 0.0258 l -0.01291,0.0129 v 0 c -0.103077,0.10308 -0.219044,0.19328 -0.347893,0.2577 -0.128854,0.0773 -0.257702,0.12885 -0.412323,0.16751 -0.141734,0.0258 -0.309241,0.0258 -0.450975,-0.0258 l -0.386551,-0.1675 -1.55909,-0.64425 -3.105294,-1.30139 v 0 l -0.03867,-0.0129 v -0.0387 -0.96638 z" style="fill:url(#Contour);stroke-width:0.12885033"/>
      <ellipse id="ellipse9387" ry="0.50251633" rx="0.2319306" cy="95.46936" cx="-34.687698" style="fill:url(#Contour);stroke-width:0.12885033"/>
      <ellipse id="ellipse9389" ry="0.59271151" rx="0.27058569" cy="96.306885" cx="-31.685482" style="fill:url(#Contour);stroke-width:0.12885033"/>
      <ellipse id="ellipse9391" ry="0.59271151" rx="0.27058569" cy="95.817253" cx="-33.283222" style="fill:url(#Contour);stroke-width:0.12885033"/>
      <path id="path9393" d="m -38.591861,97.10576 -0.979261,-4.896314 c -0.206159,0.82464 -1.468894,2.22911 -1.468894,2.22911 -0.206159,-1.816788 -0.953494,-3.839739 -0.953494,-3.839739 -0.5154,1.494661 -2.705857,3.401649 -2.705857,3.401649 l 2.718743,-0.876184 0.257702,4.136098 c 0.322127,-1.610633 1.945641,-3.208375 1.945641,-3.208375 z" class="st10" style="fill:#f1c40f;fill-opacity:1;stroke-width:0.12885033"/>
      <path id="path9395" d="m -40.408649,104.45023 c -0.438089,-1.48178 -1.842558,-3.10529 -1.842558,-3.10529 l -0.682906,3.22125 c -0.438095,-1.40447 -1.945641,-3.54338 -1.945641,-3.54338 l -1.791021,4.44533 1.971408,-2.17756 c 0.52829,0.46386 2.203343,3.59492 2.203343,3.59492 l 0.631367,-3.67223 c 0.399437,0.15462 1.456008,1.23696 1.456008,1.23696 z" class="st10" style="fill:#f1c40f;fill-opacity:1;stroke-width:0.12885033"/>
      <polygon id="polygon9397" points="1237.1,567.9 1237.2,559.2 1237.5,541.7 1238,524.2 1238.3,515.4 1238.7,506.7 1238.7,515.4 1238.6,524.2 1238.3,541.7 1237.8,559.2 1237.5,567.9 1237.1,576.7 " style="fill:url(#Contour)" transform="matrix(0.12885033,0,0,0.12885033,-189.9008,29.67838)"/>
      <path id="path9399" d="m -66.861622,111.62719 c -0.657135,-0.20616 -1.10811,3.23414 -1.10811,3.23414 0,0 0.07731,-2.80893 0.09019,-3.41453 0.01291,-0.6056 -0.206159,-1.85545 -0.773102,-2.03584 -0.566938,-0.18038 -0.901951,-0.0387 -0.901951,-0.0387 l 0.412323,-1.24985 c 0,0 0.773102,0.10308 1.288502,0.60559 0.528285,0.50252 0.785988,1.45601 0.785988,1.45601 z" class="st11" style="opacity:0.5;fill:#000000;fill-opacity:1;stroke-width:0.12885033"/>
      <path style="opacity:1;fill:url(#Head);stroke-width:0.12885033" class="st13" d="m -96.961057,96.255348 c 0,0 -1.623514,-10.449763 -1.19831,-13.31024 0.425208,-2.860478 5.038049,-11.51922 15.758394,-10.900738 10.733232,0.618481 13.542171,4.522644 15.333192,8.594318 1.120995,2.435268 0,9.947244 0,9.947244 l -0.528286,5.669416 z" id="path9407"/>
      <path id="path9379" d="m -69.631904,108.12246 c 0.296355,-0.0387 0.605596,-0.0387 0.901951,0.0387 0.29636,0.0773 0.592715,0.20616 0.824645,0.39943 0.244817,0.19328 0.43809,0.45098 0.579824,0.70868 0.141735,0.27059 0.244817,0.55406 0.322127,0.85041 0.141735,0.57983 0.193278,1.18542 0.193278,1.77813 0,0.59272 -0.02576,1.18543 -0.07731,1.77814 -0.05154,0.59271 -0.115968,1.17254 -0.154621,1.76525 -0.0129,0.14174 -0.0129,0.29636 -0.0129,0.43809 0,0.0773 0.0129,0.14174 0.02576,0.20616 0.0129,0.0387 0.02576,0.0644 0.03867,0.0902 0.02576,0.0258 0.03867,0.0515 0.06442,0.0773 0.206158,0.20616 0.463861,0.33501 0.734449,0.45097 0.541171,0.21905 1.120995,0.3479 1.700824,0.45098 0.579824,0.10308 1.159653,0.1675 1.752363,0.21904 1.172539,0.10308 2.357959,0.15462 3.530498,0.18039 1.172538,0.0258 2.357963,0.0258 3.543383,0.0129 1.185425,-0.0129 2.357963,-0.0387 3.543383,-0.0773 1.185425,-0.0387 2.357964,-0.0773 3.530503,-0.14173 2.357958,-0.11597 4.715922,-0.27059 7.060995,-0.52829 0.296359,-0.0387 0.579828,-0.0644 0.876183,-0.11597 0.309241,0 0.43809,-0.30924 0.541172,-0.56694 0.193278,-0.55405 0.296355,-1.13388 0.386551,-1.71371 0.167506,-1.17254 0.257702,-2.34507 0.322126,-3.51761 0.128849,-2.35796 0.167507,-4.71592 0.167507,-7.07388 v -0.88907 c 0,-0.29636 -0.01291,-0.59271 0.0129,-0.88907 0.03867,-0.59271 0.15462,-1.19831 0.425204,-1.75237 0.270588,-0.541167 0.721563,-1.030795 1.314273,-1.249845 0.283469,-0.115963 0.631367,-0.141734 0.940608,-0.05154 0.154621,0.05154 0.322127,0.128848 0.425204,0.283469 0.05154,0.07731 0.07731,0.180392 0.05154,0.283474 -0.01291,0.0902 -0.06442,0.180387 -0.115967,0.244816 -0.103077,0.128849 -0.231931,0.219046 -0.36078,0.296356 l -0.103082,0.0515 -0.0902,0.0515 c -0.06442,0.0387 -0.115963,0.0773 -0.167501,0.12885 -0.206164,0.19327 -0.37367,0.42521 -0.502519,0.69579 -0.244816,0.52829 -0.360779,1.10811 -0.438089,1.68794 -0.07731,0.57983 -0.103082,1.17254 -0.0902,1.75236 0.0129,0.59272 -0.01291,1.18543 -0.02576,1.77814 -0.0902,2.35796 -0.231931,4.71592 -0.386551,7.07389 l -0.115963,1.76524 -0.06442,0.88907 c -0.02576,0.29636 -0.03867,0.57983 -0.103082,0.88907 -0.03867,0.15462 -0.103082,0.30924 -0.193278,0.4252 -0.09019,0.12886 -0.219045,0.23193 -0.36078,0.30924 -0.270583,0.15462 -0.579824,0.23193 -0.876183,0.27059 -0.154621,0.0258 -0.296355,0.0258 -0.450976,0.0387 l -0.438089,0.0129 -0.88907,0.0387 -3.543383,0.18039 c -1.18542,0.0644 -2.357959,0.11597 -3.543384,0.1675 -2.357958,0.10309 -4.715922,0.16751 -7.086766,0.19328 -2.357964,0.0258 -4.728808,-0.0129 -7.086767,-0.19328 -0.592715,-0.0515 -1.172539,-0.10307 -1.765254,-0.18038 -0.579824,-0.0773 -1.172534,-0.16751 -1.752362,-0.29636 -0.141735,-0.0258 -0.28347,-0.0644 -0.425204,-0.10308 l -0.193278,-0.0515 c -0.06442,-0.0258 -0.15462,-0.0387 -0.219045,-0.0902 -0.141734,-0.0773 -0.23193,-0.20617 -0.309241,-0.3479 -0.07731,-0.14174 -0.115967,-0.28347 -0.15462,-0.42521 -0.128849,-0.59271 -0.128849,-1.18542 -0.128849,-1.77813 0.02576,-1.18543 0.128849,-2.35796 0.07731,-3.5305 -0.01291,-0.29636 -0.03867,-0.57983 -0.0902,-0.8633 -0.05154,-0.28347 -0.128853,-0.56694 -0.283474,-0.79887 -0.141734,-0.23193 -0.360779,-0.38655 -0.631362,-0.41232 -0.257702,-0.0258 -0.541171,0.0515 -0.798874,0.15462 l -0.103082,-0.2577 c 0.283474,-0.10308 0.592715,-0.19328 0.927723,-0.15462 0.167506,0.0258 0.322126,0.0773 0.463861,0.18039 0.141734,0.10308 0.244816,0.23193 0.322127,0.36078 0.15462,0.27058 0.23193,0.57983 0.283469,0.87618 0.05154,0.29636 0.06443,0.59271 0.07731,0.88907 0.01291,0.59271 -0.01291,1.18542 -0.03867,1.77813 -0.02576,0.59271 -0.06442,1.17254 -0.0902,1.76525 -0.01291,0.59271 -0.02576,1.18542 0.103081,1.75237 0.03867,0.14173 0.07731,0.28347 0.141735,0.39943 0.06442,0.12885 0.15462,0.24482 0.270583,0.30924 0.06443,0.0387 0.115968,0.0515 0.193278,0.0773 l 0.206159,0.0644 c 0.141735,0.0387 0.283474,0.0773 0.425209,0.10308 1.146767,0.2577 2.332191,0.36078 3.504725,0.43809 2.357964,0.14173 4.715923,0.16751 7.073886,0.16751 2.357959,-0.0129 4.715922,-0.0644 7.073881,-0.15462 1.185425,-0.0387 2.357963,-0.0902 3.543383,-0.15462 1.172539,-0.0644 2.357964,-0.12885 3.530502,-0.21905 l 0.889065,-0.0644 c 0.296355,-0.0258 0.592715,-0.0258 0.876184,-0.0644 0.283469,-0.0387 0.566943,-0.11597 0.811755,-0.2577 0.115968,-0.0644 0.21905,-0.15462 0.309241,-0.27059 0.07731,-0.10308 0.141739,-0.23193 0.167506,-0.36078 0.05154,-0.27059 0.06442,-0.57983 0.103082,-0.8633 l 0.07731,-0.87618 0.128849,-1.76525 c 0.15462,-2.35796 0.309241,-4.71592 0.412322,-7.07388 0.02576,-0.59271 0.03867,-1.17254 0.03867,-1.76525 0,-0.59271 0.02576,-1.18542 0.103082,-1.77813 0.07731,-0.59272 0.206158,-1.17254 0.463861,-1.7266 0.128848,-0.27059 0.296355,-0.52828 0.515399,-0.74733 0.05154,-0.0515 0.115968,-0.10308 0.180393,-0.14174 l 0.103081,-0.06442 0.0902,-0.05154 c 0.115963,-0.07731 0.231931,-0.167507 0.296355,-0.270588 0.03867,-0.05154 0.06442,-0.103077 0.06442,-0.154621 0,-0.05154 -0.01291,-0.103077 -0.03867,-0.141734 -0.06442,-0.0902 -0.180388,-0.154621 -0.309241,-0.180388 -0.128849,-0.03867 -0.257698,-0.03867 -0.399432,-0.03867 -0.128854,0.01291 -0.270588,0.03867 -0.399437,0.0902 -0.528286,0.193273 -0.940608,0.631368 -1.198311,1.133881 -0.257697,0.5154 -0.373665,1.08234 -0.412317,1.66217 -0.02576,0.28347 -0.01291,0.57982 -0.01291,0.87618 l -0.01291,0.88907 c -0.02576,2.35796 -0.0902,4.72881 -0.244817,7.08677 -0.07731,1.17253 -0.167506,2.35796 -0.347893,3.5305 -0.03867,0.29635 -0.0902,0.57982 -0.15462,0.87618 -0.06443,0.28347 -0.128854,0.57983 -0.244817,0.86329 -0.05154,0.14174 -0.115968,0.28347 -0.206164,0.39944 -0.05154,0.0644 -0.103077,0.11596 -0.180387,0.15462 -0.03867,0.0258 -0.07731,0.0258 -0.115968,0.0387 -0.03867,0.0129 -0.07731,0.0129 -0.115962,0.0258 -0.296355,0.0515 -0.579829,0.0902 -0.876184,0.12885 -1.172539,0.14174 -2.345078,0.24482 -3.530498,0.33501 -1.172539,0.10308 -2.357963,0.18039 -3.530502,0.2577 -1.172534,0.0773 -2.357959,0.14174 -3.543383,0.19328 -1.18542,0.0515 -2.357959,0.0773 -3.543384,0.0902 -2.357958,0.0258 -4.728808,-0.0258 -7.086766,-0.28347 -0.59271,-0.0644 -1.172539,-0.14173 -1.752363,-0.2577 -0.579829,-0.11596 -1.159653,-0.24481 -1.71371,-0.47674 -0.270589,-0.11597 -0.541172,-0.2577 -0.760217,-0.47675 -0.02576,-0.0258 -0.05154,-0.0515 -0.07731,-0.0902 -0.02576,-0.0387 -0.03867,-0.0773 -0.05154,-0.11597 -0.02576,-0.0773 -0.02576,-0.15462 -0.02576,-0.23193 -0.01291,-0.15462 0,-0.29636 0.01291,-0.45098 0.03867,-0.59271 0.103082,-1.17254 0.14174,-1.76525 0.03867,-0.59271 0.06442,-1.17253 0.03867,-1.76524 -0.02576,-0.57983 -0.07731,-1.17254 -0.231931,-1.7266 -0.15462,-0.55406 -0.412322,-1.09523 -0.850412,-1.44312 -0.438089,-0.36079 -1.017918,-0.46386 -1.597742,-0.47675 z" style="fill:url(#Contour);stroke-width:0.12885033"/>
      <path style="opacity:1;fill:url(#Body);stroke-width:0.12885033" class="st14" d="m -67.853769,98.394262 -1.597743,12.395408 -8.001608,7.80833 h -9.67666 l -7.898522,-7.69237 -1.533323,-11.184209 v -1.340045 l 2.177572,-0.59271 c 4.290718,-1.095229 12.446942,-1.108115 12.446942,-1.108115 l 6.738873,0.193278 c 4.522649,0.476743 7.344469,1.520433 7.344469,1.520433 z" id="path9409"/>
      <path style="opacity:1;fill:url(#Middle);stroke-width:0.12885033" class="st15" d="m -96.677588,98.36849 -0.283469,-2.113142 2.409497,-0.618482 6.352323,-1.056576 8.581432,-0.01291 6.674448,0.45098 2.783168,0.463861 1.881216,0.541172 0.695792,0.244811 -0.360784,2.164686 c -1.120996,-0.579824 -3.543384,-1.017914 -3.543384,-1.017914 l -3.801085,-0.502518 -4.883429,-0.103082 c 0,0 -5.708068,0.01291 -5.733835,0.01291 -0.02576,0 -4.561302,0.373665 -4.561302,0.373665 l -4.651498,0.721564 z" id="path9411"/>
      <path style="opacity:0.3;fill:#ffffff;stroke-width:0.12885033" class="st16" d="m -90.454119,95.160119 c -1.468894,0.231931 -0.876179,2.100261 -0.876179,2.100261 l -4.483992,0.837527 -0.760216,0.296355 -0.412322,-2.203343 2.229109,-0.566939 3.620694,-0.734449 z" id="path9413"/>
      <path style="opacity:0.3;fill:#ffffff;stroke-width:0.12885033" class="st16" d="m -93.726914,97.711356 0.566938,12.369634 c 0.21905,1.97141 4.08456,6.48117 4.08456,6.48117 l -5.940005,-5.38594 -1.108109,-6.5456 -0.566943,-6.275016 1.778134,-0.528285 z" id="path9415"/>
      <path style="opacity:0.3;fill:#000000;fill-opacity:1;stroke-width:0.12885033" class="st17" d="m -75.314201,73.667884 c 6.906375,4.896309 5.643645,16.621693 3.466073,21.298957 0.399437,0.193278 1.249849,0.425209 1.249849,0.425209 l 1.327154,0.23193 1.675058,0.631368 0.850412,-8.452584 0.322127,-3.672236 c -0.06443,-3.981473 -2.963559,-7.318698 -2.963559,-7.318698 l -3.685118,-2.744509 z" id="path9417"/>
      <path style="opacity:0.5;fill:#000000;fill-opacity:1;stroke-width:0.12885033" class="st11" d="m -77.234075,94.709144 c 3.066641,1.082343 1.533323,2.177566 1.533323,2.177566 l 4.831885,0.644254 c 1.675053,0.219044 2.912016,0.889069 2.912016,0.889069 l 0.219049,-2.164685 c -1.340045,-0.81176 -6.146163,-1.546204 -6.146163,-1.546204 z" id="path9419"/>
      <path style="opacity:0.5;fill:#000000;fill-opacity:1;stroke-width:0.12885033" class="st11" d="m -74.206091,97.079988 c 1.86833,1.159653 5.231326,3.221252 4.496877,13.671022 0.257702,0.0515 0.682906,-3.31146 0.682906,-3.31146 l 1.249849,-8.903554 c -0.773102,-0.450975 -3.775314,-1.108114 -3.775314,-1.108114 z" id="path9421"/>
      <path d="m -67.776459,98.535996 c -1.108115,-0.502514 -2.319306,-0.773102 -3.517612,-0.979261 -1.211196,-0.206163 -2.422388,-0.347898 -3.646465,-0.450975 -1.224077,-0.103082 -2.448159,-0.15462 -3.672237,-0.206164 -1.224077,-0.03867 -2.448154,-0.05154 -3.672232,-0.03867 -1.224077,0.01291 -2.448159,0.05154 -3.672237,0.115963 -1.224077,0.05154 -2.448154,0.141734 -3.659346,0.257702 -1.211196,0.115963 -2.435274,0.244817 -3.646465,0.450975 -0.605596,0.103082 -1.198311,0.219045 -1.803906,0.347899 -0.59271,0.141734 -1.185425,0.309241 -1.752363,0.528285 l -0.05154,-0.115967 c 1.133887,-0.502514 2.345078,-0.785988 3.55627,-1.017919 1.211196,-0.219045 2.435273,-0.399432 3.659351,-0.5154 1.224077,-0.128848 2.448154,-0.219044 3.672237,-0.283469 1.224077,-0.05154 2.46104,-0.0902 3.685117,-0.0902 2.461041,0 4.922081,0.07731 7.370241,0.322127 1.224077,0.128849 2.448155,0.283469 3.659346,0.5154 1.198311,0.244816 2.409502,0.541171 3.517617,1.082342 z" id="path9423" style="fill:url(#Contour);stroke-width:0.12885033"/>
      <path style="opacity:0.3;fill:#ffffff;stroke-width:0.12885033" class="st16" d="m -89.912948,77.185495 c 1.610634,-2.667199 4.174751,-4.471105 7.782564,-4.471105 l -0.863298,-0.708678 -6.17193,1.005033 -4.651498,2.860477 c 0,0 -4.200523,3.607813 -4.38091,7.344469 l 1.211192,12.975228 6.494056,-1.249845 0.785988,-0.386551 c -1.546204,-2.564122 -2.345078,-5.952885 -2.293539,-9.290109 0.438094,0.15462 0.901956,0.23193 1.391584,0.23193 2.306425,0 4.187636,-1.881216 4.187636,-4.187636 -0.01291,-2.061604 -1.507546,-3.7882 -3.491845,-4.123213 z" id="path9437"/>
      <path d="m -82.130384,72.727276 c -1.224078,0.02576 -2.435274,0.115962 -3.646466,0.30924 -1.19831,0.193273 -2.38373,0.476747 -3.517616,0.889065 -1.133881,0.412323 -2.241996,0.940608 -3.234143,1.610633 -0.502513,0.322122 -0.97926,0.708673 -1.443122,1.095224 -0.450975,0.399437 -0.876184,0.824646 -1.27562,1.288507 -0.386551,0.463861 -0.747331,0.940608 -1.056571,1.456008 -0.309241,0.515399 -0.579825,1.056571 -0.798874,1.610628 -0.43809,1.121 -0.657134,2.30642 -0.59271,3.504731 0.15462,2.486812 0.386551,4.999391 0.618482,7.486203 0.23193,2.499698 0.476747,4.999391 0.734449,7.486204 0.270583,2.499701 0.541171,4.986511 0.837526,7.473321 l 0.231931,1.86833 c 0.0902,0.61848 0.167506,1.24985 0.283469,1.84256 l 0.02576,0.11596 c 0.01291,0.0387 0.01291,0.0515 0.02576,0.0902 0.02576,0.0515 0.0902,0.11596 0.128853,0.16751 0.103077,0.11596 0.206159,0.23193 0.309241,0.335 0.219045,0.21905 0.43809,0.45098 0.657134,0.67003 0.438095,0.45097 0.88907,0.87618 1.340045,1.31427 1.816788,1.73948 3.659352,3.4403 5.540563,5.10247 v 0 l -0.15462,-0.0644 9.689546,0.14174 -0.06442,0.0258 v 0 c 1.778135,-1.76525 3.569155,-3.51761 5.34729,-5.2571 0.450975,-0.43809 0.889064,-0.87618 1.327154,-1.31427 0.21905,-0.21904 0.438094,-0.43809 0.657139,-0.67002 l 0.309241,-0.33501 0.115963,-0.15462 c 0.01291,-0.0258 0.01291,-0.0387 0.01291,-0.0515 0.0129,-0.0129 0.0129,-0.0644 0.02576,-0.0902 0.06442,-0.28347 0.115963,-0.59271 0.167506,-0.90195 l 0.141735,-0.92772 0.257702,-1.85545 c 0.631363,-4.96073 1.26273,-9.921472 1.803901,-14.895097 0.141735,-1.236963 0.270589,-2.486807 0.386551,-3.736656 0.115968,-1.249849 0.231931,-2.486812 0.322127,-3.736661 0.0902,-1.224078 -0.07731,-2.461041 -0.502514,-3.620694 -0.206164,-0.579829 -0.463861,-1.133881 -0.773102,-1.662172 -0.309241,-0.528285 -0.657139,-1.030799 -1.04369,-1.507546 -1.571976,-1.881217 -3.698004,-3.247029 -5.991538,-4.045902 -2.319306,-0.811755 -4.767465,-1.120996 -7.202734,-1.056571 z m 0,-1.249849 c 1.275615,0.02576 2.564122,0.15462 3.826852,0.386551 1.262735,0.23193 2.499698,0.592709 3.685123,1.095228 1.18542,0.489633 2.319306,1.120996 3.350105,1.881217 0.515405,0.373665 1.005033,0.798868 1.468894,1.236963 0.463861,0.450975 0.876184,0.927722 1.262735,1.443122 0.386551,0.5154 0.734444,1.043685 1.030804,1.610628 0.296355,0.566943 0.554052,1.146767 0.760216,1.752363 0.206159,0.605601 0.347894,1.224082 0.425204,1.868331 0.07731,0.631367 0.0902,1.27562 0.03867,1.906988 -0.206164,2.499693 -0.476747,4.986505 -0.708677,7.473318 -0.244817,2.486812 -0.5154,4.973624 -0.773102,7.460431 l -0.412323,3.736663 c -0.141735,1.23696 -0.296355,2.48681 -0.463861,3.72377 l -0.244817,1.86833 -0.141734,0.92773 c -0.05154,0.30924 -0.103077,0.61848 -0.167507,0.94061 -0.01291,0.0387 -0.01291,0.0773 -0.03867,0.12884 -0.02576,0.0515 -0.03867,0.12885 -0.06442,0.16751 l -0.167506,0.21904 -0.335013,0.3479 c -0.219045,0.21905 -0.438089,0.45098 -0.67002,0.67002 -0.450975,0.43809 -0.901951,0.87618 -1.352931,1.30139 -1.816787,1.7266 -3.659346,3.41454 -5.540563,5.0767 v 0 l -0.02576,0.0258 h -0.03867 l -9.689546,0.14174 h -0.0902 l -0.06442,-0.0644 v 0 c -1.778134,-1.77813 -3.582036,-3.51761 -5.385942,-5.26997 l -1.352931,-1.31428 c -0.219045,-0.21904 -0.450975,-0.43809 -0.67002,-0.67002 -0.103082,-0.11597 -0.219045,-0.23193 -0.322127,-0.3479 -0.05154,-0.0644 -0.115963,-0.12885 -0.15462,-0.20616 -0.0129,-0.0387 -0.03867,-0.10308 -0.05154,-0.14173 l -0.02576,-0.11597 c -0.141734,-0.63137 -0.23193,-1.23696 -0.322126,-1.86833 l -0.270583,-1.86832 c -0.347899,-2.48682 -0.670021,-4.97363 -0.979261,-7.473327 -0.309241,-2.486812 -0.618482,-4.986505 -0.914842,-7.473317 -0.283469,-2.499698 -0.579824,-4.986511 -0.798869,-7.49909 -0.103081,-1.314273 0.103077,-2.654318 0.554058,-3.878395 0.23193,-0.618482 0.502514,-1.211192 0.837526,-1.778135 0.322127,-0.566943 0.708678,-1.095229 1.10811,-1.610628 0.412322,-0.502519 0.863298,-0.979261 1.340045,-1.430242 0.489633,-0.438089 0.992146,-0.850412 1.520432,-1.224077 1.069462,-0.74733 2.229115,-1.34004 3.440306,-1.829673 1.211192,-0.476747 2.461041,-0.82464 3.736662,-1.030804 1.275615,-0.231931 2.564117,-0.322127 3.852624,-0.296355 z" id="path9439" style="fill:url(#Contour);stroke-width:0.12885033"/>
      <path d="m -67.621839,96.319772 c -1.133881,-0.476747 -2.345077,-0.734449 -3.569155,-0.914836 -1.224077,-0.180392 -2.448154,-0.322127 -3.672232,-0.412323 -2.46104,-0.167506 -4.934967,-0.219045 -7.396012,-0.193278 -2.46104,0.03867 -4.934967,0.141739 -7.383122,0.347898 -1.224077,0.103082 -2.448154,0.231931 -3.672236,0.412323 -0.605596,0.09019 -1.211192,0.193273 -1.816788,0.309241 -0.59271,0.141734 -1.19831,0.283469 -1.765248,0.489628 l -0.07731,-0.180387 c 1.146768,-0.528291 2.357959,-0.824646 3.582036,-1.082343 1.224083,-0.244817 2.461046,-0.425209 3.685123,-0.554057 1.236963,-0.128854 2.473926,-0.231931 3.71089,-0.296355 1.236963,-0.06443 2.486812,-0.0902 3.723775,-0.0902 1.236963,0 2.486807,0.02576 3.723771,0.07731 1.236963,0.05154 2.486812,0.15462 3.710889,0.283469 1.236963,0.141734 2.473927,0.296355 3.685123,0.566943 1.211191,0.257697 2.435269,0.579824 3.543383,1.146767 z" id="path9441" style="fill:url(#Contour);stroke-width:0.12885033"/>
      <path id="path9443" d="m -91.600886,104.39869 c -0.824641,0.0387 -1.675053,1.121 -1.211192,1.97141 0.463862,0.8633 0.747331,1.24985 1.456008,1.30139 0.708678,0.0515 9.599351,-0.0258 9.599351,-0.0258 h 8.929325 c 1.55909,-0.4252 1.391584,-1.76525 1.391584,-1.76525 0,0 -0.05154,-1.14676 -1.095224,-1.44312 -0.463861,-0.14173 -0.927722,-0.0902 -0.927722,-0.0902 l -4.883429,-0.0387 h -7.099652 -6.004429 z" class="st23" style="fill:url(#Head);stroke-width:0.12885033"/>
      <path id="path9445" d="m -79.141058,104.39869 c -2.873364,-0.21905 -12.524253,0.32212 -9.7282,3.13106 -1.365811,0.27058 -2.912015,-0.0644 -2.912015,-0.0644 l -0.747336,-0.55406 c -0.592709,-0.76022 -0.23193,-2.43527 0.927723,-2.51258 1.159653,-0.0773 5.308637,-0.12885 5.308637,-0.12885 z" class="st16" style="opacity:0.3;fill:#ffffff;stroke-width:0.12885033"/>
      <path id="path9473" d="m -74.798801,104.39869 c 0.721563,1.10811 1.082342,3.14395 -2.370845,3.24702 2.525465,-0.1675 5.347285,0.74734 5.720955,-1.5462 0.01291,-0.85041 -0.335013,-1.39158 -0.992152,-1.61063 -0.966375,-0.32213 -2.357958,-0.0902 -2.357958,-0.0902 z" class="st11" style="opacity:0.5;fill:#000000;fill-opacity:1;stroke-width:0.12885033"/>
      <path id="path9447" d="m -73.085091,104.39869 -11.622302,0.0773 -5.81115,0.0387 c -0.244817,0 -0.489628,0 -0.721559,0.0129 -0.21905,0.0129 -0.425209,0.0644 -0.618482,0.1675 -0.386551,0.20616 -0.670025,0.57983 -0.747335,1.00503 -0.0902,0.42521 0.02576,0.87619 0.296355,1.22408 0.270588,0.33501 0.695792,0.54118 1.133886,0.54118 l 11.622297,0.0387 5.811151,0.0258 c 0.244816,0 0.489633,0 0.721563,0 0.231931,-0.0129 0.450976,-0.0644 0.657135,-0.16751 0.399436,-0.20616 0.708677,-0.6056 0.811759,-1.05657 0.103082,-0.45098 -0.01291,-0.94061 -0.309241,-1.31428 -0.296355,-0.36078 -0.74733,-0.59271 -1.224077,-0.59271 z m 0,-0.10308 c 0.502514,0 0.992147,0.23193 1.314273,0.61848 0.322127,0.38655 0.463861,0.91484 0.373665,1.41735 -0.0902,0.50252 -0.425208,0.95349 -0.876183,1.19831 -0.231931,0.11596 -0.476747,0.19327 -0.734445,0.20616 -0.244816,0.0129 -0.489633,0 -0.734449,0.0129 l -5.811151,0.0258 -11.622297,0.0387 c -0.541171,0 -1.069457,-0.24481 -1.404469,-0.65713 -0.347898,-0.41232 -0.489633,-0.97927 -0.373665,-1.50755 0.103077,-0.52829 0.463861,-0.99215 0.940608,-1.24985 0.231931,-0.12885 0.502514,-0.19327 0.773102,-0.20616 0.257697,0 0.489628,0 0.734444,0 l 5.811151,0.0387 z" style="fill:url(#Contour);stroke-width:0.12885033"/>
      <path id="path9449" d="m -73.342793,104.30849 c 0.206159,0.21905 0.347898,0.50252 0.438089,0.78599 0.0902,0.28347 0.128854,0.59271 0.128854,0.88907 -0.01291,0.29635 -0.03867,0.60559 -0.141735,0.88906 -0.0902,0.28348 -0.219049,0.56694 -0.425208,0.79888 l -0.115963,-0.0902 c 0.15462,-0.23193 0.257697,-0.48963 0.322122,-0.76022 0.06443,-0.27058 0.103081,-0.55405 0.103081,-0.83752 0,-0.28348 -0.02576,-0.56695 -0.103081,-0.83753 -0.06442,-0.27059 -0.180388,-0.52829 -0.335008,-0.76022 z" style="fill:url(#Contour);stroke-width:0.12885033"/>
      <path id="path9451" d="m -90.415462,104.39869 c -0.167506,0.21904 -0.283469,0.48963 -0.347898,0.76021 -0.07731,0.27059 -0.103077,0.55406 -0.103077,0.83753 0,0.28347 0.03867,0.56694 0.115963,0.83753 0.07731,0.27058 0.180392,0.54117 0.347898,0.76022 l -0.115967,0.0902 c -0.193273,-0.23193 -0.322127,-0.5154 -0.399437,-0.79887 -0.09019,-0.28347 -0.128849,-0.57983 -0.128849,-0.88907 0,-0.29636 0.03867,-0.59271 0.115968,-0.88907 0.09019,-0.28347 0.219045,-0.56694 0.412318,-0.79887 z" style="fill:url(#Contour);stroke-width:0.12885033"/>
      <path id="path9453" d="m -75.352859,104.34715 c 0.07731,0.27058 0.06442,0.54117 0.06442,0.82464 l -0.01291,0.82464 c -0.01291,0.54117 -0.02576,1.09523 -0.05154,1.6364 h -0.141735 c -0.02576,-0.54117 -0.03867,-1.09523 -0.05154,-1.6364 l -0.01291,-0.82464 c 0,-0.27059 -0.02576,-0.54117 0.06442,-0.82464 z" style="fill:url(#Contour);stroke-width:0.12885033"/>
      <path id="path9455" d="m -78.020058,104.34715 c 0.02576,0.54117 0.02576,1.09523 0.02576,1.6364 v 0.82464 c 0,0.27059 -0.0129,0.54117 -0.02576,0.82464 h -0.141739 c -0.01286,-0.27059 -0.01286,-0.54117 -0.02576,-0.82464 v -0.82464 c 0,-0.54117 0,-1.09523 0.02576,-1.6364 z" style="fill:url(#Contour);stroke-width:0.12885033"/>
      <path id="path9457" d="m -80.687262,104.34715 c 0.06442,0.27058 0.06442,0.54117 0.06442,0.82464 l -0.01291,0.82464 c 0,0.27059 -0.01291,0.54117 -0.01291,0.82464 -0.0129,0.27059 -0.02576,0.54117 -0.03867,0.82464 h -0.141734 c -0.01291,-0.27058 -0.02576,-0.54117 -0.03867,-0.82464 0,-0.27058 -0.01291,-0.54117 -0.01291,-0.82464 l -0.01291,-0.82464 c 0,-0.27059 0,-0.54117 0.06442,-0.82464 z" style="fill:url(#Contour);stroke-width:0.12885033"/>
      <path id="path9459" d="m -83.354462,104.34715 c 0.02576,0.54117 0.02576,1.09523 0.03867,1.6364 0,0.27058 0,0.54117 0,0.82464 0,0.27059 -0.01291,0.54117 -0.02576,0.82464 h -0.141735 c -0.01291,-0.27059 -0.02576,-0.54117 -0.02576,-0.82464 0,-0.27059 -0.01291,-0.54117 0,-0.82464 0,-0.54117 0.0129,-1.09523 0.03867,-1.6364 z" style="fill:url(#Contour);stroke-width:0.12885033"/>
      <path id="path9461" d="m -86.021666,104.34715 c 0.02576,0.27058 0.02576,0.54117 0.03867,0.82464 0,0.27059 0,0.54117 0,0.82464 0,0.27059 0,0.54117 -0.0129,0.82464 0,0.27059 -0.01291,0.54117 -0.02576,0.82464 h -0.141735 c -0.01291,-0.27058 -0.01291,-0.54117 -0.02576,-0.82464 0,-0.27058 -0.01291,-0.54117 -0.01291,-0.82464 0,-0.27059 0,-0.54117 0,-0.82464 0,-0.27059 0.01291,-0.54117 0.03867,-0.82464 z" style="fill:url(#Contour);stroke-width:0.12885033"/>
      <path id="path9463" d="m -88.688865,104.34715 c 0.02576,0.27058 0.02576,0.54117 0.03867,0.82464 0,0.27059 0.01291,0.54117 0,0.82464 0,0.27059 0,0.54117 -0.01291,0.82464 0,0.27059 -0.0129,0.54117 -0.02576,0.82464 h -0.14174 c -0.0129,-0.27058 -0.02576,-0.54117 -0.02576,-0.82464 -0.0129,-0.27058 -0.0129,-0.54117 -0.0129,-0.82464 0,-0.27059 0,-0.54117 0,-0.82464 0.0129,-0.27059 0.0129,-0.54117 0.03867,-0.82464 z" style="fill:url(#Contour);stroke-width:0.12885033"/>
      <path d="m -70.585398,106.61491 c 0.05154,0.20616 0.03867,0.41232 -0.01291,0.61849 -0.05154,0.20615 -0.154621,0.39943 -0.283474,0.55405 -0.128849,0.1675 -0.296355,0.30924 -0.476747,0.39944 -0.180387,0.0902 -0.412318,0.14173 -0.605596,0.0773 0.206164,0.0258 0.399437,-0.0387 0.566943,-0.14174 0.167506,-0.10308 0.322127,-0.23193 0.450975,-0.38655 0.128849,-0.15462 0.219045,-0.33501 0.28347,-0.52829 0.06443,-0.19327 0.07731,-0.38655 0.06443,-0.59271 z" id="path9465" style="fill:url(#Contour);stroke-width:0.12885033"/>
      <path id="path9471" d="m -85.312988,109.63001 c -0.219045,0.27059 3.478959,1.19831 6.829069,0.1675 -2.190457,-0.4252 -4.75458,-0.34789 -4.75458,-0.34789 l -1.71371,0.10308 z" class="st11" style="opacity:0.5;fill:#000000;fill-opacity:1;stroke-width:0.12885033"/>
      <path style="opacity:0.9;fill:#e74c3c;fill-opacity:1;stroke-width:0.12885033" class="st18" d="m -77.002144,90.676128 h -10.578612 c -0.476747,0 -0.863298,0.386551 -0.863298,0.863298 v 0.193273 c 0,0.476747 0.386551,0.863298 0.863298,0.863298 h 10.578612 c 0.476747,0 0.863298,-0.386551 0.863298,-0.863298 v -0.193273 c 0,-0.476747 -0.399437,-0.863298 -0.863298,-0.863298 z" id="path9425"/>
      <path style="opacity:0.9;fill:#e74c3c;fill-opacity:1;stroke-width:0.12885033" class="st18" d="m -77.002144,88.292397 h -10.578612 c -0.476747,0 -0.863298,0.386551 -0.863298,0.863293 v 0.193278 c 0,0.476747 0.386551,0.863298 0.863298,0.863298 h 10.578612 c 0.476747,0 0.863298,-0.386551 0.863298,-0.863298 V 89.15569 c 0,-0.476742 -0.399437,-0.863293 -0.863298,-0.863293 z" id="path9427"/>
      <path style="opacity:0.9;fill:#f1c40f;fill-opacity:1;stroke-width:0.12885033" class="st19" d="m -77.002144,85.895781 h -10.578612 c -0.476747,0 -0.863298,0.386551 -0.863298,0.863293 v 0.193278 c 0,0.476747 0.386551,0.863298 0.863298,0.863298 h 10.578612 c 0.476747,0 0.863298,-0.386551 0.863298,-0.863298 v -0.193278 c 0,-0.463861 -0.399437,-0.863293 -0.863298,-0.863293 z" id="path9429"/>
      <path style="opacity:0.9;fill:#f1c40f;fill-opacity:1;stroke-width:0.12885033" class="st20" d="m -77.002144,83.512046 h -10.578612 c -0.476747,0 -0.863298,0.386551 -0.863298,0.863298 v 0.193278 c 0,0.476747 0.386551,0.863298 0.863298,0.863298 h 10.578612 c 0.476747,0 0.863298,-0.386551 0.863298,-0.863298 v -0.193278 c 0,-0.476747 -0.399437,-0.863298 -0.863298,-0.863298 z" id="path9431"/>
      <path style="opacity:0.9;fill:#27ae60;fill-opacity:1;stroke-width:0.12885033" class="st21" d="m -77.002144,81.128316 h -10.578612 c -0.476747,0 -0.863298,0.386551 -0.863298,0.863298 v 0.193278 c 0,0.476742 0.386551,0.863293 0.863298,0.863293 h 10.578612 c 0.476747,0 0.863298,-0.386551 0.863298,-0.863293 v -0.193278 c 0,-0.476747 -0.399437,-0.863298 -0.863298,-0.863298 z" id="path9433"/>
      <path style="opacity:0.9;fill:#27ae60;fill-opacity:1;stroke-width:0.12885033" class="st22" d="m -77.002144,78.744585 h -10.578612 c -0.476747,0 -0.863298,0.386551 -0.863298,0.863298 v 0.193273 c 0,0.476747 0.386551,0.863298 0.863298,0.863298 h 10.578612 c 0.476747,0 0.863298,-0.386551 0.863298,-0.863298 v -0.193273 c 0,-0.476747 -0.399437,-0.863298 -0.863298,-0.863298 z" id="path9435"/>
      <path id="path9469" d="m -85.377413,109.5527 c 0.605596,-0.11597 1.224078,-0.15462 1.829673,-0.18039 0.605596,-0.0129 1.224078,0 1.829673,0.0258 0.605601,0.0258 1.224083,0.0773 1.829678,0.14174 0.309241,0.0387 0.605596,0.0773 0.901951,0.12885 0.296355,0.0515 0.605596,0.10308 0.88907,0.21904 -0.29636,-0.0902 -0.592715,-0.11596 -0.901956,-0.15462 -0.296355,-0.0258 -0.605595,-0.0644 -0.914836,-0.0773 -0.605596,-0.0387 -1.211192,-0.0644 -1.816788,-0.0902 -0.6056,-0.0129 -1.211196,-0.0129 -1.816792,0 -0.605595,0.0129 -1.211191,0.0387 -1.816787,0.11597 v 0 c -0.03867,0 -0.06443,-0.0258 -0.07731,-0.0515 0.01291,-0.0387 0.03867,-0.0644 0.06442,-0.0773 z" style="fill:url(#Contour);stroke-width:0.12885033"/>
    </g>
  </g>
</svg>