<?xml version="1.0" encoding="utf-8"?>
<svg viewBox="0 119.063 238.125 119.063" width="238.125" height="119.063" xmlns="http://www.w3.org/2000/svg" xmlns:xlink="http://www.w3.org/1999/xlink">
  <defs>
    <radialGradient id="radialGradient8869" gradientUnits="userSpaceOnUse" gradientTransform="matrix(0.49484642,0,0,0.24856418,112.72668,-398.66607)" cx="-268.28397" cy="765.6449" r="239.54193" xlink:href="#Background"/>
    <linearGradient id="Background">
      <stop id="stop2858" offset="0" style="stop-color:#000000;stop-opacity:0.1254902"/>
      <stop style="stop-color:#000000;stop-opacity:0.03137255" offset="0.8714" id="stop2978"/>
      <stop id="stop2862" offset="1" style="stop-color:#000000;stop-opacity:0"/>
    </linearGradient>
    <linearGradient id="Head" gradientTransform="matrix(1.7794098e-4,0,0,1.7794098e-4,-550.5605,2.600199)">
      <stop style="stop-color:#fd9644;stop-opacity:1;" offset="0" id="stop13236"/>
    </linearGradient>
    <linearGradient id="Body" gradientTransform="matrix(0,0,0,0,-550.66328,2.4560221)">
      <stop style="stop-color:#a5b1c2;stop-opacity:1;" offset="0" id="stop13242"/>
    </linearGradient>
    <linearGradient id="linearGradient13325" x1="904.09998" y1="570.75" x2="1206.5" y2="570.75" gradientUnits="userSpaceOnUse" xlink:href="#linearGradient13323"/>
    <linearGradient id="linearGradient13323">
      <stop style="stop-color:#a5b1c2;stop-opacity:1;" offset="0" id="stop13319"/>
      <stop style="stop-color:#a5b1c2;stop-opacity:0;" offset="1" id="stop13321"/>
    </linearGradient>
    <linearGradient id="linearGradient13306" x1="91.5" y1="570.75" x2="373.11517" y2="570.75" gradientUnits="userSpaceOnUse" xlink:href="#linearGradient13304"/>
    <linearGradient id="linearGradient13304">
      <stop style="stop-color:#a5b1c2;stop-opacity:0" offset="0" id="stop13300"/>
      <stop style="stop-color:#a5b1c2;stop-opacity:1" offset="1" id="stop13302"/>
    </linearGradient>
    <linearGradient id="Middle" gradientTransform="matrix(0.01333946,0,0,0.01333946,-543.31773,2.4232587)">
      <stop style="stop-color:#778ca3;stop-opacity:1;" offset="0" id="stop13265"/>
    </linearGradient>
    <linearGradient id="Contour" gradientTransform="matrix(0,0,0,0,-550.66328,2.4560207)">
      <stop style="stop-color:#000000;stop-opacity:1;" offset="0" id="stop13253"/>
    </linearGradient>
    <linearGradient id="linearGradient13317" x1="-1650.207" y1="789.63965" x2="-1348.3086" y2="789.63965" gradientUnits="userSpaceOnUse" gradientTransform="matrix(0.12885033,0,0,0.12885033,-282.49391,1.2599549)" xlink:href="#linearGradient13315"/>
    <linearGradient id="linearGradient13315">
      <stop style="stop-color:#000000;stop-opacity:1;" offset="0" id="stop13311"/>
      <stop style="stop-color:#000000;stop-opacity:0;" offset="1" id="stop13313"/>
    </linearGradient>
    <linearGradient id="linearGradient13298" x1="-2463.3086" y1="789.63965" x2="-2155.176" y2="789.63965" gradientUnits="userSpaceOnUse" gradientTransform="matrix(0.12885033,0,0,0.12885033,-282.49391,1.2599549)" xlink:href="#linearGradient13296"/>
    <linearGradient id="linearGradient13296">
      <stop style="stop-color:#000000;stop-opacity:0" offset="0" id="stop13292"/>
      <stop style="stop-color:#000000;stop-opacity:1" offset="1" id="stop13294"/>
    </linearGradient>
    <linearGradient id="Shadow" gradientTransform="matrix(0.01006758,0,0,0.01150266,-539.14922,6.2963781)">
      <stop style="stop-color:#131116;stop-opacity:0.99607843;" offset="0" id="stop13218"/>
    </linearGradient>
    <linearGradient id="Text-1" gradientTransform="matrix(0.26458333,0,0,0.26458333,-139.09524,-386.94792)">
      <stop style="stop-color:#0e0e0e;stop-opacity:1;" offset="0" id="stop15666"/>
    </linearGradient>
  </defs>
  <g id="g2426" transform="matrix(1, 0, 0, 1, 139.095245, 386.947906)">
    <path style="opacity:1;fill:url(#radialGradient8869);fill-opacity:1;stroke:none;stroke-width:0.52455026;stroke-linecap:round;stroke-linejoin:round;stroke-miterlimit:4;stroke-dasharray:none;stroke-opacity:1" d="m -139.09524,-267.88542 h 238.125 v 119.0625 h -238.125 z" id="path8703"/>
    <g transform="translate(508.02526,-308.36676)" id="g7788">
      <path id="path11731" d="m -543.95801,98.141176 c 0,0 -1.62351,-10.449763 -1.19831,-13.31024 0.42521,-2.860477 5.03805,-11.51922 15.7584,-10.900738 10.73323,0.618482 13.54217,4.522649 15.33319,8.594318 1.121,2.435274 0,9.947244 0,9.947244 l -0.52829,5.669416 z" class="st6" style="opacity:0.3;fill:#b596bc;stroke-width:0.12885033"/>
      <path style="opacity:1;fill:url(#Head);stroke-width:0.12885033" class="st6" d="m -543.97089,97.909245 c 0,0 -1.62352,-10.449762 -1.19831,-13.31024 0.42521,-2.860477 5.03805,-11.519219 15.7584,-10.900738 10.73323,0.618482 13.54216,4.522649 15.33318,8.594318 1.121,2.435274 0,9.947244 0,9.947244 l -0.52828,5.669416 z" id="path11796"/>
      <path style="fill:url(#Body);stroke-width:0.12885033" class="st12" d="m -514.87649,100.06105 -1.59774,12.3954 -8.00161,7.80833 h -9.67666 l -7.89852,-7.69237 -1.53332,-11.18421 v -1.32715 l 2.17757,-0.592715 c 4.29071,-1.095228 12.44694,-1.108114 12.44694,-1.108114 l 6.73888,0.193278 c 4.53553,0.450975 7.34446,1.507551 7.34446,1.507551 z" id="path11798"/>
      <polygon style="opacity:1;fill:url(#linearGradient13325);fill-opacity:1" class="st13" points="749.9,584.6 1206.5,584.6 1204.5,556.9 751.6,557.3 747.1,583.2 " id="polygon11800" transform="matrix(0.12885033,0,0,0.12885033,-611.68174,29.451066)"/>
      <polygon style="opacity:1;fill:url(#linearGradient13306);fill-opacity:1" class="st13" points="528.2,584.6 91.5,584.6 93.5,556.9 526.6,557.3 530.8,583.2 " id="polygon11802" transform="matrix(0.12885033,0,0,0.12885033,-611.68174,29.451066)"/>
      <path style="opacity:1;fill:url(#Middle);stroke-width:0.12885033" class="st14" d="m -543.70031,100.02239 -0.28347,-2.113145 2.4095,-0.618481 6.35233,-1.056571 8.58143,-0.01291 6.67444,0.450976 2.78317,0.463861 1.88122,0.541171 0.69579,0.244817 -0.36078,2.164692 c -1.121,-0.579836 -3.54339,-1.017925 -3.54339,-1.017925 l -3.80108,-0.502514 -4.88343,-0.103082 c 0,0 -5.70807,0.01291 -5.73384,0.01291 -0.0258,0 -4.5613,0.373665 -4.5613,0.373665 l -4.6515,0.721563 z" id="path11804"/>
      <polygon style="opacity:1;fill:url(#Head)" class="st15" points="640.5,577.6 568.3,575.4 569.9,599 571.9,626.5 630.5,628.7 683.1,631.7 712.8,632.9 712.8,570 " id="polygon11806" transform="matrix(0.12885033,0,0,0.12885033,-611.68174,29.451066)"/>
      <path style="opacity:0.15;fill:#ffffff;stroke-width:0.12885033" class="st16" d="m -537.47684,96.814017 c -1.46889,0.23193 -0.87618,2.100261 -0.87618,2.100261 l -4.48399,0.837526 -0.76022,0.296356 -0.41232,-2.203339 2.22911,-0.566943 3.6207,-0.734444 z" id="path11808"/>
      <path style="opacity:0.15;fill:#ffffff;stroke-width:0.12885033" class="st16" d="m -540.73675,99.365253 0.56694,12.369637 c 0.21905,1.97141 4.08456,6.48117 4.08456,6.48117 l -5.94,-5.38595 -1.10812,-6.54559 -0.56694,-6.27501 1.77814,-0.528289 z" id="path11810"/>
      <path style="opacity:0.1;fill:#ffffff;stroke-width:0.12885033" class="st17" d="m -530.66065,103.83636 c -5.78538,0 -2.97645,6.50694 -2.97645,6.50694 l -4.36802,-0.1675 -0.47675,-6.57137 z" id="path11812"/>
      <path style="opacity:0.15;fill:#ffffff;stroke-width:0.12885033" class="st16" d="m -530.91835,113.01051 c -1.7266,0.11596 -5.28287,0.29635 -4.79324,-0.87619 0.46386,-1.15965 4.79324,0.87619 4.79324,0.87619 z" id="path11814"/>
      <path style="opacity:0.15;fill:#ffffff;stroke-width:0.12885033" class="st16" d="m -536.92278,78.852284 c 1.61063,-2.667204 4.17475,-4.471106 7.78256,-4.471106 l -0.8633,-0.708677 -6.17193,1.005032 -4.6515,2.860477 c 0,0 -4.20051,3.607808 -4.38091,7.344469 l 1.2112,12.975228 6.49405,-1.249849 0.78599,-0.386551 c -1.5462,-2.564122 -2.34508,-5.952885 -2.29353,-9.29011 0.43809,0.154621 0.90195,0.231931 1.39158,0.231931 2.30642,0 4.18764,-1.881217 4.18764,-4.187637 -0.0129,-2.074489 -1.52044,-3.7882 -3.49185,-4.123207 z" id="path11816"/>
      <path style="opacity:0.15;fill:#ffffff;stroke-width:0.12885033" class="st16" d="m -550.27167,101.82629 c 2.07449,0 2.73162,1.31428 0,1.31428 -2.73163,0 -23.38634,-0.94061 -23.38634,-0.94061 z" id="path11818"/>
      <path style="opacity:0.15;fill:#000000;fill-opacity:1;stroke-width:0.12885033" class="st7" d="m -522.32404,75.321782 c 6.90638,4.896314 5.64365,16.621692 3.46608,21.298962 0.39943,0.193273 1.24985,0.425203 1.24985,0.425203 l 1.32715,0.231931 1.67506,0.631367 0.85041,-8.452583 0.32213,-3.672232 c -0.0644,-3.981478 -2.96356,-7.318697 -2.96356,-7.318697 l -3.68512,-2.744515 z" id="path11820"/>
      <path style="opacity:0.25;fill:#000000;fill-opacity:1;stroke-width:0.12885033" class="st18" d="m -524.25679,96.375927 c 3.06663,1.082343 1.53332,2.177572 1.53332,2.177572 l 4.83189,0.644248 c 1.67505,0.21905 2.91201,0.889073 2.91201,0.889073 l 0.21905,-2.164689 c -1.34005,-0.811759 -6.14616,-1.546204 -6.14616,-1.546204 z" id="path11822"/>
      <path style="opacity:0.25;fill:#000000;fill-opacity:1;stroke-width:0.12885033" class="st18" d="m -521.22881,98.746772 c 1.86833,1.159653 5.23132,3.221258 4.49688,13.671018 0.2577,0.0515 0.68291,-3.31145 0.68291,-3.31145 l 1.26273,-8.91644 c -0.77311,-0.450981 -3.77532,-1.108116 -3.77532,-1.108116 z" id="path11824"/>
      <path style="opacity:0.25;fill:#000000;fill-opacity:1;stroke-width:0.12885033" class="st18" d="m -525.27471,114.3892 c -0.37367,1.70083 -7.49909,-0.64425 -7.49909,-0.64425 l 3.05376,-0.20616 2.88624,0.15462 1.41736,0.37367 z" id="path11826"/>
      <path style="opacity:0.25;fill:#000000;fill-opacity:1;stroke-width:0.12885033" class="st18" d="m -531.43375,102.72825 c 1.01791,0.32213 3.68511,0.46386 4.71592,-0.51541 -0.69579,0.0644 -1.58486,0.42521 -2.44816,0.51541 -1.18542,0.14173 -2.26776,0 -2.26776,0 z" id="path11828"/>
      <path style="opacity:0.25;fill:#000000;fill-opacity:1;stroke-width:0.12885033" class="st18" d="m -518.97393,110.7814 v 0.86329 h -0.95349 c 0.97926,0.52829 1.44312,0.67002 1.39158,0.24482 -0.0515,-0.43809 -0.43809,-1.10811 -0.43809,-1.10811 z" id="path11830"/>
      <path style="opacity:0.25;fill:#000000;fill-opacity:1;stroke-width:0.12885033" class="st18" d="m -498.35787,101.3882 c -7.84699,0.29636 -10.57862,3.33723 -10.57862,3.33723 l -6.51982,0.12885 0.41232,-3.60781 z" id="path11832"/>
      <path style="opacity:0.25;fill:#000000;fill-opacity:1;stroke-width:0.12885033" class="st18" d="m -545.24651,101.25936 c 0.5154,1.13388 0.11596,3.46607 -4.52265,3.46607 1.58486,0.0902 6.63579,0 6.63579,0 l -0.54117,-3.46607 z" id="path11834"/>
      <path style="opacity:0.25;fill:#000000;fill-opacity:1;stroke-width:0.12885033" class="st18" d="m -523.3033,103.25654 c 1.8941,1.81678 1.09523,6.95791 -4.47111,7.34446 l 7.93719,0.38655 v -8.09179 z" id="path11836"/>
      <path d="m -529.15311,74.381178 c -1.22407,0.02576 -2.43526,0.115963 -3.64646,0.309241 -1.19831,0.193273 -2.38373,0.476742 -3.51761,0.889065 -1.13388,0.412322 -2.242,0.940608 -3.23415,1.610628 -0.50251,0.322127 -0.97926,0.708678 -1.44312,1.095229 -0.45098,0.399437 -0.87618,0.82464 -1.27562,1.288501 -0.38655,0.463862 -0.74733,0.940609 -1.05657,1.456008 -0.30924,0.515405 -0.57983,1.056576 -0.79887,1.610634 -0.43809,1.120995 -0.65714,2.30642 -0.59271,3.504725 0.15462,2.486813 0.38655,4.999397 0.61848,7.486204 0.23193,2.499698 0.47674,4.999396 0.73444,7.486207 0.27059,2.49969 0.54117,4.98651 0.83753,7.47332 l 0.23193,1.86833 c 0.0902,0.61848 0.16751,1.24985 0.28347,1.84256 l 0.0258,0.11596 c 0.0129,0.0387 0.0129,0.0515 0.0258,0.0902 0.0258,0.0515 0.0902,0.11597 0.12885,0.1675 0.10308,0.11597 0.20616,0.23193 0.30924,0.33502 0.21904,0.21904 0.43809,0.45097 0.65714,0.67002 0.43809,0.45097 0.88906,0.87618 1.34004,1.31427 1.81679,1.73948 3.65935,3.44031 5.54056,5.10247 v 0 l -0.15462,-0.0644 9.68955,0.14173 -0.0644,0.0258 v 0 c 1.77814,-1.76524 3.56916,-3.51761 5.34729,-5.25709 0.45098,-0.43809 0.88907,-0.87618 1.32716,-1.31427 0.21905,-0.21905 0.43809,-0.4381 0.65713,-0.67003 l 0.30925,-0.335 0.11596,-0.15463 c 0.0129,-0.0258 0.0129,-0.0387 0.0129,-0.0515 0.0129,-0.0129 0.0129,-0.0644 0.0258,-0.0902 0.0644,-0.28347 0.11597,-0.59271 0.16751,-0.90196 l 0.14173,-0.92772 0.2577,-1.85544 c 0.63137,-4.96074 1.26274,-9.921475 1.80391,-14.895099 0.14173,-1.236963 0.27058,-2.486812 0.38655,-3.736661 0.11596,-1.249849 0.23193,-2.486813 0.32213,-3.736657 0.0902,-1.224082 -0.0773,-2.461045 -0.50252,-3.620698 -0.20616,-0.579824 -0.46386,-1.133881 -0.7731,-1.662167 -0.30924,-0.528286 -0.65714,-1.030804 -1.04369,-1.507546 -1.57197,-1.881217 -3.69801,-3.247029 -5.99154,-4.045902 -2.30642,-0.798874 -4.75458,-1.108115 -7.20274,-1.056572 z m 0,-1.249849 c 1.27562,0.02576 2.56413,0.154621 3.82686,0.386551 1.26273,0.231931 2.49969,0.59271 3.68512,1.095229 1.18542,0.489628 2.31931,1.120995 3.35011,1.881211 0.5154,0.373665 1.00503,0.798874 1.46889,1.236964 0.46386,0.450975 0.87618,0.927722 1.26273,1.443126 0.38655,0.5154 0.73445,1.043686 1.03081,1.610629 0.29635,0.566938 0.55405,1.146767 0.76021,1.752363 0.20617,0.605595 0.3479,1.224077 0.42521,1.86833 0.0773,0.631368 0.0902,1.275616 0.0387,1.906984 -0.20616,2.499698 -0.47675,4.98651 -0.70868,7.473317 -0.24481,2.486812 -0.5154,4.973625 -0.7731,7.460437 l -0.41232,3.73666 c -0.14173,1.23696 -0.29635,2.48681 -0.46386,3.72377 l -0.24482,1.86833 -0.14173,0.92772 c -0.0515,0.30925 -0.10308,0.61849 -0.16751,0.94061 -0.0129,0.0387 -0.0129,0.0773 -0.0387,0.12885 -0.0258,0.0515 -0.0387,0.12886 -0.0644,0.16751 l -0.1675,0.21904 -0.33501,0.3479 c -0.21905,0.21905 -0.4381,0.45098 -0.67003,0.67002 -0.45097,0.4381 -0.90195,0.87618 -1.35292,1.30139 -1.81679,1.72659 -3.65935,3.41453 -5.54057,5.0767 v 0 l -0.0258,0.0258 h -0.0387 l -9.68955,0.14174 h -0.0902 l -0.0644,-0.0644 v 0 c -1.77813,-1.77814 -3.58204,-3.51761 -5.38594,-5.26998 l -1.35293,-1.34004 c -0.21904,-0.21905 -0.45098,-0.43809 -0.67002,-0.67002 -0.10308,-0.11597 -0.21905,-0.23193 -0.32213,-0.3479 -0.0515,-0.0644 -0.11596,-0.12885 -0.15462,-0.20616 -0.0129,-0.0387 -0.0387,-0.10308 -0.0515,-0.14173 l -0.0258,-0.11597 c -0.14174,-0.63137 -0.23193,-1.23697 -0.32213,-1.86833 l -0.27059,-1.86833 c -0.34789,-2.48681 -0.67002,-4.97362 -0.97926,-7.47332 -0.30924,-2.486813 -0.61848,-4.986506 -0.91483,-7.473319 -0.28347,-2.499698 -0.57983,-4.98651 -0.79888,-7.499089 -0.10308,-1.314273 0.10308,-2.654318 0.55406,-3.878396 0.23193,-0.618481 0.50252,-1.211191 0.83753,-1.778134 0.32212,-0.566943 0.70867,-1.095229 1.10811,-1.610629 0.41232,-0.502518 0.8633,-0.979261 1.34004,-1.430241 0.48963,-0.438089 0.99215,-0.850412 1.52044,-1.224077 1.06945,-0.74733 2.22911,-1.34004 3.4403,-1.829673 1.21119,-0.476747 2.46104,-0.824641 3.73666,-1.030804 1.27562,-0.206159 2.57701,-0.28347 3.85262,-0.270584 z" id="path11838" style="fill:url(#Contour);stroke-width:0.12885033"/>
      <path d="m -514.64456,97.97367 c -1.13388,-0.476747 -2.34507,-0.734445 -3.56915,-0.914837 -1.22408,-0.180392 -2.44816,-0.322126 -3.67224,-0.412322 -2.46104,-0.167502 -4.93496,-0.219045 -7.396,-0.193273 -2.46105,0.03867 -4.93497,0.141734 -7.38313,0.347893 -1.22408,0.103082 -2.44816,0.231931 -3.67223,0.412323 -0.6056,0.0902 -1.21119,0.193278 -1.8168,0.30924 -0.5927,0.141735 -1.1983,0.28347 -1.76524,0.489633 l -0.0773,-0.180392 c 1.14676,-0.528285 2.35796,-0.82464 3.58204,-1.082342 1.22407,-0.244817 2.46104,-0.425204 3.68511,-0.554058 1.23697,-0.128848 2.47393,-0.23193 3.71089,-0.296355 1.23697,-0.06442 2.48682,-0.0902 3.72378,-0.0902 1.23696,0 2.48681,0.02576 3.72378,0.07731 1.23696,0.05154 2.48681,0.154621 3.71088,0.283474 1.23697,0.141735 2.47393,0.296355 3.68512,0.566939 1.2112,0.257702 2.43528,0.579829 3.54339,1.146767 z" id="path11840" style="fill:url(#Contour);stroke-width:0.12885033"/>
      <path d="m -514.78629,100.1899 c -1.10811,-0.50252 -2.31931,-0.773103 -3.51762,-0.979267 -1.21119,-0.206159 -2.42238,-0.347893 -3.64646,-0.450975 -1.22408,-0.103082 -2.44816,-0.154621 -3.67223,-0.206159 -1.22409,-0.03867 -2.44816,-0.05154 -3.67224,-0.03867 -1.22408,0.01291 -2.44816,0.05154 -3.67223,0.115968 -1.22408,0.05154 -2.44816,0.141735 -3.65935,0.257698 -1.21119,0.115967 -2.43528,0.244816 -3.64647,0.45098 -0.60559,0.103077 -1.1983,0.219045 -1.8039,0.347893 -0.59271,0.141735 -1.18542,0.309241 -1.75237,0.528292 l -0.0515,-0.11597 c 1.13389,-0.502518 2.34508,-0.785987 3.55627,-1.017917 1.21119,-0.219045 2.43527,-0.399437 3.65935,-0.5154 1.22408,-0.128854 2.44816,-0.21905 3.67224,-0.283474 1.22407,-0.05154 2.46104,-0.0902 3.68511,-0.0902 2.46104,0 4.92209,0.07731 7.37024,0.322126 1.22408,0.128854 2.44816,0.283474 3.65936,0.515405 1.1983,0.244812 2.40949,0.541171 3.51761,1.08234 z" id="path11842" style="fill:url(#Contour);stroke-width:0.12885033"/>
      <path d="m -520.0305,103.15345 c -3.02799,0.32213 -6.0302,0.59272 -9.10972,0.85042 h -0.0129 -0.0129 l -9.30299,-0.37367 0.0129,-0.0129 0.70868,6.55849 -0.18039,-0.18039 18.09059,0.97926 -0.0387,0.0387 c -0.0773,-2.69298 -0.15462,-5.28287 -0.15462,-7.85988 z m 0.38655,-0.4252 c 0,2.79605 -0.0644,5.57922 -0.15462,8.27219 v 0.0387 h -0.0387 l -18.10347,-0.65714 h -0.18039 l -0.0129,-0.1675 -0.34789,-6.58426 v -0.0129 h 0.0129 l 9.31588,0.10308 h -0.0129 c 3.13107,-0.37366 6.32656,-0.70868 9.52204,-0.99215 z" id="path11844" style="fill:url(#Contour);stroke-width:0.12885033"/>
      <path d="m -525.27471,114.37632 c -0.23193,-0.21905 -0.59271,-0.3479 -0.94061,-0.43809 -0.36078,-0.0902 -0.72156,-0.14174 -1.09523,-0.19328 -0.73444,-0.0902 -1.49466,-0.11596 -2.24199,-0.11596 -0.74733,0 -1.49466,0.0129 -2.25488,0.0515 -0.74733,0.0387 -1.49466,0.0902 -2.242,0.15462 0.74734,-0.0902 1.49467,-0.16751 2.242,-0.23193 0.74733,-0.0644 1.49466,-0.10309 2.25488,-0.12885 0.74733,-0.0258 1.50755,-0.0258 2.26776,0.0387 0.37367,0.0258 0.76022,0.0773 1.13389,0.15462 0.37367,0.0902 0.76022,0.19328 1.09522,0.47675 0.0644,0.0515 0.0773,0.15462 0.0129,0.21905 -0.0515,0.0644 -0.15462,0.0773 -0.21904,0.0129 0,0.0129 0,0.0129 -0.0129,0 z" id="path11846" style="fill:url(#Contour);stroke-width:0.12885033"/>
      <path style="fill:url(#linearGradient13317);fill-opacity:1;stroke-width:0.12885033" d="m -514.9925,101.07895 v 0.36088 l 2.49899,-0.006 c 0.17665,0.1795 0.30625,0.40368 0.38731,0.6367 0.10308,0.30924 0.1416,0.63141 0.15451,0.95354 0,0.32213 -0.0384,0.65714 -0.11575,0.96638 -0.0387,0.15462 -0.0903,0.30924 -0.16761,0.45097 -0.0338,0.062 -0.0736,0.12225 -0.11728,0.17239 l -3.06522,-0.005 v 0.32213 l 19.64967,-0.0299 v 0.004 c 0.012,0 0.0225,-0.003 0.034,-0.004 l 39.50999,-0.0604 v -0.14168 l -3.71828,-0.006 c 0.0626,-0.0626 0.12449,-0.12545 0.16206,-0.20058 0.0902,-0.14173 0.15457,-0.2963 0.20611,-0.46381 0.10308,-0.32212 0.14187,-0.67012 0.15478,-1.00513 0,-0.33501 -0.0388,-0.68276 -0.15478,-1.00488 -0.0938,-0.26062 -0.23949,-0.51172 -0.45499,-0.70088 l 3.58616,-0.008 v -0.10318 l -3.74295,-0.008 c -0.002,-10e-4 -0.004,-0.003 -0.007,-0.005 l -0.003,0.005 z m 54.72566,0.24033 -0.003,0.005 c 0.27059,0.1675 0.45077,0.45082 0.56674,0.74718 0.11596,0.30924 0.1547,0.6445 0.16761,0.96663 0,0.32212 -0.0387,0.65708 -0.11602,0.97921 -0.0515,0.1675 -0.10313,0.32207 -0.18044,0.46381 -0.0387,0.0644 -0.0901,0.14173 -0.14169,0.19327 -0.007,0.007 -0.015,0.0132 -0.0226,0.0199 l -3.70318,-0.006 c 0.0606,-0.0607 0.12034,-0.12195 0.15678,-0.19479 0.0902,-0.14173 0.15457,-0.2963 0.20611,-0.46381 0.10308,-0.32213 0.14161,-0.67012 0.15452,-1.00513 0,-0.33502 -0.0386,-0.68276 -0.15452,-1.00489 -0.0925,-0.25678 -0.23516,-0.50438 -0.44543,-0.69257 z m -3.75982,0.008 c 0.26741,0.16794 0.44632,0.44914 0.56146,0.74341 0.11596,0.30924 0.15469,0.6445 0.1676,0.96663 0,0.32212 -0.0387,0.65708 -0.11601,0.97921 -0.0515,0.1675 -0.10313,0.32207 -0.18044,0.46381 -0.0387,0.0644 -0.0901,0.14173 -0.14169,0.19327 -0.005,0.005 -0.0108,0.009 -0.0161,0.0141 l -3.70421,-0.006 c 0.0586,-0.0589 0.11571,-0.11844 0.151,-0.189 0.0902,-0.14173 0.15483,-0.2963 0.20637,-0.46381 0.10308,-0.32213 0.14161,-0.67012 0.15452,-1.00513 0,-0.33502 -0.0385,-0.68276 -0.15452,-1.00489 -0.0911,-0.25298 -0.23096,-0.4971 -0.43613,-0.68426 z m -3.75051,0.008 c 0.26064,0.16878 0.43626,0.44536 0.54964,0.7351 0.11597,0.30924 0.15444,0.6445 0.16735,0.96663 0,0.32213 -0.0387,0.65709 -0.11602,0.97921 -0.0515,0.16751 -0.10287,0.32208 -0.18018,0.46381 -0.0387,0.0644 -0.0904,0.14174 -0.14194,0.19328 -0.003,0.003 -0.007,0.006 -0.01,0.009 l -3.70545,-0.006 c 0.0566,-0.0571 0.11179,-0.11488 0.14596,-0.18321 0.0902,-0.14174 0.15457,-0.29631 0.20611,-0.46381 0.10308,-0.32213 0.14187,-0.67012 0.15478,-1.00514 0,-0.33501 -0.0388,-0.68275 -0.15478,-1.00488 -0.0897,-0.24916 -0.22647,-0.48992 -0.42657,-0.67596 z m -3.75074,0.008 c 0.25396,0.16945 0.42617,0.44155 0.5378,0.7268 0.11596,0.30924 0.15469,0.6445 0.1676,0.96662 0,0.32213 -0.0387,0.65709 -0.11601,0.97922 -0.0515,0.1675 -0.10313,0.32207 -0.18044,0.46381 -0.0387,0.0644 -0.0901,0.14173 -0.14169,0.19327 -10e-4,9e-4 -0.002,0.002 -0.003,0.003 l -3.70621,-0.006 c 0.0546,-0.0553 0.10737,-0.11158 0.14043,-0.17767 0.0902,-0.14173 0.15457,-0.2963 0.20611,-0.46381 0.10308,-0.32213 0.14161,-0.67012 0.15452,-1.00513 0,-0.33502 -0.0385,-0.68276 -0.15452,-1.00489 -0.0883,-0.24532 -0.22193,-0.48281 -0.41701,-0.66765 z m -3.75051,0.008 c 0.24739,0.16998 0.41612,0.43775 0.52598,0.71849 0.11596,0.30924 0.15444,0.6445 0.16735,0.96663 0,0.32212 -0.0385,0.65708 -0.11576,0.97921 -0.0516,0.16751 -0.10313,0.32208 -0.18044,0.46381 -0.038,0.0634 -0.0885,0.13874 -0.13917,0.19026 l -3.70672,-0.006 c 0.0526,-0.0535 0.10297,-0.10804 0.1349,-0.17189 0.0902,-0.14173 0.15457,-0.2963 0.20611,-0.46381 0.10308,-0.32212 0.14186,-0.67012 0.15477,-1.00513 0,-0.33501 -0.0388,-0.68276 -0.15477,-1.00488 -0.087,-0.2416 -0.21744,-0.476 -0.4077,-0.65961 z m -3.75074,0.008 c 0.24095,0.17036 0.40603,0.43392 0.51413,0.71018 0.11597,0.30924 0.1547,0.64451 0.16761,0.96663 0,0.32213 -0.0387,0.65709 -0.11601,0.97921 -0.0515,0.16751 -0.10314,0.32208 -0.18045,0.46381 -0.0368,0.0614 -0.0855,0.13337 -0.13463,0.18472 l -3.23409,-0.005 c 0.0383,-0.044 0.0745,-0.0895 0.10897,-0.14119 0.0902,-0.15462 0.15456,-0.30914 0.2061,-0.47664 0.10307,-0.32213 0.14169,-0.65724 0.14169,-1.00514 0,-0.34789 -0.0516,-0.69558 -0.18044,-1.01771 -0.0995,-0.24874 -0.25323,-0.48151 -0.4603,-0.65205 z m -3.34659,0.007 c 0.21856,0.18989 0.36583,0.44729 0.45928,0.71597 0.0515,0.14174 0.09,0.30919 0.11576,0.46381 0.0386,0.15462 0.0516,0.30914 0.0516,0.47665 0.0129,0.32213 -0.0256,0.65714 -0.10292,0.96638 -0.0387,0.15462 -0.0903,0.30923 -0.16761,0.45097 -0.0368,0.081 -0.0866,0.16124 -0.14873,0.21819 l -3.24366,-0.005 c 0.0466,-0.0432 0.0908,-0.0912 0.11954,-0.14874 0.0902,-0.14173 0.15457,-0.2963 0.20611,-0.46381 0.10308,-0.32212 0.15477,-0.67012 0.15477,-1.00513 0,-0.33501 -0.0388,-0.68275 -0.16761,-1.00488 -0.0885,-0.24594 -0.23743,-0.48402 -0.44041,-0.65759 z m -3.38459,0.007 c 0.23202,0.18998 0.39725,0.44407 0.49376,0.72151 0.11596,0.30924 0.15444,0.63142 0.16735,0.95355 0,0.32212 -0.0256,0.64425 -0.10292,0.96637 -0.0387,0.15462 -0.0903,0.30925 -0.16761,0.45098 -0.025,0.0624 -0.0744,0.12481 -0.12433,0.18724 l -3.23156,-0.005 c 0.0374,-0.0409 0.072,-0.0832 0.0959,-0.13087 0.0902,-0.15462 0.15483,-0.30914 0.20637,-0.47664 0.0902,-0.32213 0.12885,-0.67013 0.12885,-1.00514 0,-0.33501 -0.0516,-0.68275 -0.18044,-1.00488 -0.0991,-0.24768 -0.24449,-0.47968 -0.4467,-0.65004 z m -3.30858,0.007 c 0.20379,0.18438 0.35028,0.4217 0.43914,0.6883 0.11596,0.30924 0.15478,0.63141 0.15478,0.95354 0,0.32213 -0.0387,0.65714 -0.11602,0.96638 -0.0386,0.15462 -0.0903,0.30923 -0.16761,0.45097 -0.0446,0.0743 -0.0981,0.15218 -0.1598,0.20787 l -3.14476,-0.005 c 0.029,-0.0354 0.0562,-0.0721 0.0833,-0.11274 0.10308,-0.15462 0.16766,-0.3094 0.2192,-0.4769 0.10308,-0.33501 0.15451,-0.67007 0.15451,-1.01797 0,-0.34789 -0.0387,-0.69558 -0.18044,-1.01771 -0.10579,-0.24044 -0.26186,-0.46641 -0.4628,-0.62991 z m -3.36371,0.008 c 0.21271,0.19862 0.34742,0.45359 0.43991,0.71949 0.10308,0.29636 0.14187,0.61858 0.15478,0.94071 0,0.32212 -0.0259,0.65714 -0.10319,0.96638 -0.0387,0.15462 -0.0901,0.30924 -0.15451,0.45097 -0.0366,0.0609 -0.0767,0.12386 -0.12307,0.17692 l -3.1304,-0.005 c 0.0197,-0.0272 0.0394,-0.0543 0.0579,-0.082 0.10309,-0.15462 0.15457,-0.32222 0.20611,-0.48973 0.0902,-0.33501 0.12885,-0.66982 0.12885,-1.01772 -0.0129,-0.3479 -0.0644,-0.69584 -0.19327,-1.01797 -0.0952,-0.23804 -0.24703,-0.46866 -0.44443,-0.63544 z m -3.36796,0.007 c 0.20666,0.18951 0.35212,0.44537 0.44493,0.7122 0.10307,0.29635 0.12877,0.61858 0.14168,0.94071 0,0.32212 -0.0387,0.64405 -0.11601,0.95329 -0.0387,0.15462 -0.09,0.30929 -0.16735,0.43814 -0.0372,0.0745 -0.0876,0.14821 -0.14321,0.1978 l -3.17167,-0.005 c 0.0365,-0.0401 0.0703,-0.0817 0.0936,-0.12835 0.0902,-0.14174 0.15457,-0.29631 0.20611,-0.46381 0.10308,-0.32213 0.15451,-0.67013 0.15451,-1.00514 0,-0.33501 -0.0385,-0.68275 -0.16735,-1.00488 -0.0837,-0.23243 -0.22202,-0.45728 -0.40819,-0.62789 z m -3.3632,0.008 c 0.21114,0.18639 0.3551,0.42879 0.45802,0.69181 0.10308,0.30924 0.1547,0.63142 0.16761,0.95355 0,0.32212 -0.0259,0.64425 -0.10318,0.96637 -0.0387,0.15462 -0.0903,0.30925 -0.16761,0.45098 -0.0221,0.0551 -0.0638,0.11706 -0.10746,0.16685 l -3.16917,-0.005 c 0.0234,-0.0314 0.0461,-0.0642 0.0685,-0.0976 0.0902,-0.15462 0.15457,-0.3094 0.20611,-0.4769 0.0902,-0.33501 0.12885,-0.67007 0.12885,-1.01797 -0.0129,-0.33501 -0.0644,-0.68275 -0.19328,-1.00488 -0.0935,-0.23378 -0.23526,-0.45336 -0.4238,-0.62059 z m -3.29852,0.007 c 0.20747,0.18642 0.34372,0.43067 0.4321,0.68477 0.11595,0.30924 0.15477,0.63141 0.15477,0.95354 0,0.32212 -0.0387,0.64405 -0.11601,0.95329 -0.0387,0.15462 -0.0903,0.2964 -0.16761,0.43814 -0.0411,0.0684 -0.0895,0.13643 -0.14319,0.18749 l -3.17571,-0.005 c 0.0281,-0.0331 0.0531,-0.0677 0.072,-0.10545 0.0902,-0.15462 0.15457,-0.30914 0.20611,-0.47664 0.0902,-0.32213 0.14169,-0.67013 0.14169,-1.00514 0,-0.3479 -0.0385,-0.69559 -0.16735,-1.01771 -0.078,-0.21675 -0.19802,-0.42679 -0.36165,-0.60047 z m -3.44926,0.008 c 0.22482,0.1688 0.38635,0.41788 0.49275,0.6898 0.11597,0.29635 0.16753,0.61858 0.18044,0.9407 0.0129,0.32213 -0.0259,0.65714 -0.10318,0.96638 -0.0387,0.15462 -0.0903,0.30924 -0.16761,0.45098 -0.0303,0.0556 -0.0659,0.10873 -0.10493,0.15653 l -3.22303,-0.005 c 0.0264,-0.0316 0.0503,-0.0646 0.0682,-0.10041 0.0902,-0.15462 0.15457,-0.30914 0.20611,-0.47665 0.10307,-0.32212 0.14168,-0.67012 0.14168,-1.00513 -0.0129,-0.33501 -0.0516,-0.68275 -0.18044,-1.00488 -0.0913,-0.21908 -0.22234,-0.43706 -0.40039,-0.60575 z m -3.26556,0.007 c 0.19401,0.18452 0.33492,0.42236 0.42104,0.66992 0.11596,0.30925 0.15469,0.63142 0.1676,0.95355 0,0.32212 -0.0387,0.65713 -0.11601,0.96637 -0.0387,0.15462 -0.0903,0.30925 -0.16761,0.45098 -0.0313,0.0522 -0.0681,0.10452 -0.10873,0.1515 l -3.17947,-0.005 c 0.0206,-0.0262 0.0395,-0.0531 0.0541,-0.0823 0.0902,-0.15462 0.15457,-0.3094 0.20611,-0.4769 0.10306,-0.33501 0.14168,-0.68296 0.14168,-1.01797 0,-0.33501 -0.0513,-0.68275 -0.18018,-1.00488 -0.0895,-0.22377 -0.22359,-0.4341 -0.40015,-0.59845 z" id="polygon11848"/>
      <path style="fill:url(#linearGradient13298);fill-opacity:1;stroke-width:0.12885033" d="m -543.7002,101.07895 -53.39161,0.12281 -0.004,-0.007 c -0.003,0.002 -0.006,0.005 -0.01,0.007 l -2.58002,0.006 v 0.10318 l 2.42878,0.006 c -0.21692,0.18941 -0.36333,0.4415 -0.45752,0.70314 -0.11597,0.32213 -0.15452,0.66987 -0.15452,1.00488 0.0129,0.33502 0.0514,0.68301 0.15452,1.00514 0.0515,0.1675 0.11591,0.32207 0.20611,0.46381 0.0379,0.0757 0.10073,0.13896 0.16383,0.20208 l -2.54756,0.004 v 0.14169 l 36.92166,0.0589 c 0.0152,0.002 0.0295,0.006 0.0456,0.006 v -0.006 l 19.63684,0.0314 v -0.32212 l -3.0524,0.005 c -0.0438,-0.0502 -0.0834,-0.11032 -0.11727,-0.17239 -0.0773,-0.14174 -0.12895,-0.29636 -0.16761,-0.45098 -0.0773,-0.30924 -0.11601,-0.64425 -0.11601,-0.96637 0.0129,-0.32213 0.0517,-0.64431 0.15477,-0.95355 0.0811,-0.23313 0.21078,-0.4574 0.38756,-0.63695 l 2.49874,0.006 z m -53.3224,0.23807 3.23561,0.008 c -0.2119,0.1885 -0.35559,0.43711 -0.44846,0.69509 -0.11597,0.32212 -0.15452,0.66987 -0.15452,1.00488 0.0129,0.33501 0.0514,0.683 0.15452,1.00513 0.0515,0.16751 0.11591,0.32208 0.2061,0.46381 0.0368,0.0735 0.0973,0.13523 0.15855,0.19655 l -3.41957,0.006 c -0.008,-0.007 -0.0173,-0.0143 -0.0247,-0.0216 -0.0515,-0.0515 -0.10303,-0.12885 -0.14168,-0.19328 -0.0773,-0.14173 -0.12891,-0.2963 -0.18045,-0.46381 -0.0773,-0.32213 -0.11575,-0.65709 -0.11575,-0.97921 0.0129,-0.32213 0.0514,-0.65739 0.16735,-0.96663 0.11596,-0.29636 0.2964,-0.57968 0.56699,-0.74718 z m 3.48122,0.008 3.22429,0.007 c -0.207,0.18754 -0.34785,0.43294 -0.43941,0.68729 -0.11596,0.32213 -0.15451,0.66987 -0.15451,1.00488 0.0129,0.33501 0.0514,0.68301 0.15451,1.00513 0.0515,0.16751 0.11592,0.32208 0.20611,0.46381 0.0357,0.0714 0.0939,0.13147 0.15327,0.19102 l -3.42058,0.006 c -0.006,-0.005 -0.0129,-0.0106 -0.0184,-0.0161 -0.0515,-0.0515 -0.10303,-0.12885 -0.14168,-0.19327 -0.0773,-0.14174 -0.12891,-0.29631 -0.18045,-0.46382 -0.0773,-0.32212 -0.11576,-0.65708 -0.11576,-0.97921 0.0129,-0.32212 0.0514,-0.65739 0.16736,-0.96663 0.11569,-0.29568 0.29567,-0.57827 0.56522,-0.74592 z m 3.46739,0.008 3.22654,0.008 c -0.20196,0.18647 -0.33988,0.42842 -0.43009,0.67899 -0.11596,0.32212 -0.15451,0.66987 -0.15451,1.00488 0.0129,0.33501 0.0514,0.683 0.15451,1.00513 0.0515,0.16751 0.11592,0.32208 0.20611,0.46381 0.0346,0.0692 0.0906,0.1277 0.14797,0.18548 l -3.42157,0.006 c -0.004,-0.004 -0.009,-0.007 -0.0121,-0.0106 -0.0515,-0.0515 -0.10303,-0.12885 -0.14168,-0.19327 -0.0773,-0.14174 -0.1289,-0.29631 -0.18044,-0.46382 -0.0773,-0.32212 -0.11576,-0.65708 -0.11576,-0.97921 0.0129,-0.32212 0.0514,-0.65739 0.16735,-0.96663 0.11398,-0.29128 0.29072,-0.56935 0.55366,-0.73787 z m 3.46763,0.008 3.24139,0.008 c -0.19703,0.18532 -0.33191,0.42409 -0.42077,0.67093 -0.11597,0.32212 -0.15452,0.66987 -0.15452,1.00488 0.0129,0.33501 0.0514,0.683 0.15452,1.00513 0.0515,0.16751 0.11617,0.32208 0.20636,0.46381 0.0335,0.067 0.087,0.12391 0.14243,0.17994 l -3.43542,0.006 c -0.002,-0.002 -0.004,-0.003 -0.006,-0.005 -0.0515,-0.0515 -0.10302,-0.12885 -0.14168,-0.19327 -0.0773,-0.14174 -0.1289,-0.29631 -0.18044,-0.46381 -0.0773,-0.32213 -0.11576,-0.65709 -0.11576,-0.97922 0.0129,-0.32212 0.0514,-0.65738 0.16735,-0.96663 0.11228,-0.28694 0.28585,-0.56059 0.54233,-0.72981 z m 3.48021,0.008 3.23108,0.008 c -0.19227,0.18414 -0.32417,0.41971 -0.41172,0.66288 -0.11596,0.32212 -0.15451,0.66987 -0.15451,1.00488 0.0129,0.33501 0.0514,0.683 0.15451,1.00513 0.0515,0.16751 0.11618,0.32208 0.20637,0.46381 0.0324,0.0648 0.0837,0.12011 0.13715,0.1744 l -3.42334,0.006 c -0.0514,-0.0515 -0.10289,-0.12854 -0.14143,-0.19277 -0.0773,-0.14173 -0.12865,-0.2963 -0.18019,-0.46381 -0.0773,-0.32213 -0.11602,-0.65709 -0.11602,-0.97921 0.0129,-0.32213 0.0514,-0.65739 0.16736,-0.96663 0.11055,-0.28252 0.28077,-0.55197 0.53074,-0.72176 z m 3.46739,0.008 3.16665,0.007 c -0.20903,0.17082 -0.36445,0.40478 -0.46457,0.65507 -0.12885,0.32213 -0.18018,0.66982 -0.18018,1.01772 0,0.34789 0.0386,0.683 0.14168,1.00513 0.0515,0.16751 0.11592,0.32202 0.20611,0.47664 0.0351,0.0527 0.0718,0.0989 0.11098,0.1437 l -3.23409,0.005 c -0.0498,-0.0514 -0.0995,-0.12494 -0.13691,-0.18723 -0.0773,-0.14174 -0.12864,-0.29631 -0.18018,-0.46382 -0.0773,-0.32212 -0.11602,-0.65708 -0.11602,-0.97921 0.0129,-0.32212 0.0514,-0.65739 0.16735,-0.96663 0.10883,-0.27811 0.27558,-0.54348 0.51918,-0.71371 z m 3.34557,0.008 3.16364,0.007 c -0.20467,0.17381 -0.35492,0.41285 -0.44393,0.66011 -0.12885,0.32213 -0.16761,0.66987 -0.16761,1.00488 0,0.33501 0.0514,0.68301 0.15452,1.00514 0.0515,0.1675 0.11617,0.32207 0.20637,0.46381 0.0293,0.0585 0.0744,0.10724 0.12205,0.15099 l -3.2434,0.005 c -0.0634,-0.0571 -0.11414,-0.13851 -0.1515,-0.22071 -0.0773,-0.14174 -0.12896,-0.29636 -0.16761,-0.45098 -0.0773,-0.30924 -0.11581,-0.64425 -0.10293,-0.96637 0,-0.16751 0.0126,-0.32203 0.0513,-0.47665 0.0258,-0.15462 0.0645,-0.32208 0.11601,-0.46381 0.094,-0.27019 0.24245,-0.52881 0.46305,-0.71899 z m 3.38409,0.008 3.14828,0.007 c -0.20378,0.17058 -0.35015,0.40339 -0.44972,0.65231 -0.12885,0.32212 -0.18044,0.66986 -0.18044,1.00488 0,0.33501 0.0387,0.683 0.12885,1.00513 0.0515,0.16751 0.11592,0.32203 0.20611,0.47665 0.0242,0.0485 0.0597,0.0916 0.0979,0.13313 l -3.219,0.005 c -0.0505,-0.0631 -0.10057,-0.12635 -0.12582,-0.1895 -0.0773,-0.14173 -0.12896,-0.29635 -0.16761,-0.45097 -0.0773,-0.32213 -0.10293,-0.64426 -0.10293,-0.96638 0.0129,-0.32213 0.0514,-0.6443 0.16735,-0.95354 0.0969,-0.27872 0.26332,-0.53378 0.49703,-0.72403 z m 3.29474,0.008 3.18049,0.007 c -0.20206,0.16365 -0.35912,0.39054 -0.46532,0.63192 -0.14173,0.32213 -0.18044,0.66982 -0.18044,1.01772 0,0.34789 0.0517,0.68295 0.15478,1.01796 0.0515,0.16751 0.11586,0.32228 0.21894,0.4769 0.0275,0.0413 0.0556,0.0786 0.0851,0.11451 l -3.14426,0.005 c -0.0627,-0.0558 -0.11694,-0.13469 -0.16207,-0.20989 -0.0773,-0.14174 -0.12869,-0.29635 -0.16735,-0.45098 -0.0773,-0.30924 -0.11602,-0.64425 -0.11602,-0.96637 0,-0.32213 0.0386,-0.6443 0.15452,-0.95355 0.0892,-0.26764 0.23664,-0.50588 0.44166,-0.69055 z m 3.36345,0.008 3.17395,0.007 c -0.19827,0.16688 -0.35069,0.39819 -0.44619,0.63695 -0.12885,0.32213 -0.18039,0.67007 -0.19328,1.01797 0,0.34789 0.0387,0.68271 0.12885,1.01771 0.0515,0.16751 0.10303,0.33512 0.20611,0.48974 0.0188,0.0283 0.0388,0.0559 0.0589,0.0836 l -3.14324,0.005 c -0.047,-0.0534 -0.0872,-0.11715 -0.12407,-0.17868 -0.0644,-0.14174 -0.11588,-0.29636 -0.15452,-0.45098 -0.0773,-0.30924 -0.10318,-0.64426 -0.10318,-0.96638 0.0129,-0.32212 0.0514,-0.64435 0.15451,-0.94071 0.0928,-0.26681 0.2282,-0.5226 0.44217,-0.72151 z m 3.38081,0.008 3.13193,0.007 c -0.18689,0.17076 -0.32532,0.39639 -0.40921,0.6294 -0.12885,0.32213 -0.1676,0.66987 -0.1676,1.00488 0,0.33501 0.0517,0.68301 0.15477,1.00514 0.0515,0.1675 0.11591,0.32207 0.20611,0.46381 0.0236,0.0472 0.0577,0.0891 0.0946,0.1296 l -3.17119,0.005 c -0.0562,-0.0496 -0.10714,-0.12394 -0.1447,-0.19906 -0.0773,-0.12885 -0.12895,-0.28352 -0.16761,-0.43814 -0.0773,-0.30924 -0.11576,-0.63117 -0.11576,-0.95329 0.0129,-0.32213 0.0386,-0.64436 0.14169,-0.94071 0.0931,-0.26763 0.23929,-0.52404 0.44694,-0.71371 z m 3.3627,0.008 3.13494,0.007 c -0.18906,0.16734 -0.33112,0.38737 -0.42481,0.6216 -0.12885,0.32212 -0.18039,0.66987 -0.19327,1.00488 0,0.34789 0.0387,0.68296 0.12885,1.01797 0.0515,0.1675 0.11591,0.32227 0.20611,0.47689 0.0225,0.0337 0.0454,0.0668 0.069,0.0984 l -3.16892,0.005 c -0.044,-0.0499 -0.0863,-0.11233 -0.10847,-0.16786 -0.0773,-0.14173 -0.12869,-0.29635 -0.16735,-0.45097 -0.0773,-0.32213 -0.10318,-0.64426 -0.10318,-0.96638 0.0129,-0.32213 0.0645,-0.6443 0.16761,-0.95354 0.10318,-0.26368 0.24752,-0.50675 0.45953,-0.69333 z m 3.29801,0.008 3.12487,0.007 c -0.16412,0.17387 -0.28445,0.38429 -0.36264,0.60147 -0.12885,0.32213 -0.16761,0.66982 -0.16761,1.01772 0,0.335 0.0517,0.683 0.14194,1.00513 0.0515,0.16751 0.11592,0.32202 0.20611,0.47664 0.019,0.038 0.0441,0.0729 0.0725,0.10621 l -3.17521,0.005 c -0.0541,-0.0512 -0.10311,-0.11961 -0.14445,-0.18849 -0.0773,-0.14174 -0.1287,-0.28352 -0.16735,-0.43814 -0.0773,-0.30924 -0.11602,-0.63117 -0.11602,-0.95329 0,-0.32213 0.0386,-0.6443 0.15452,-0.95355 0.0885,-0.25453 0.22529,-0.49923 0.43336,-0.68577 z m 3.44952,0.008 3.0768,0.007 c -0.1784,0.16877 -0.30974,0.38714 -0.40115,0.6065 -0.12885,0.32213 -0.16755,0.66987 -0.18044,1.00488 0,0.33501 0.0389,0.68301 0.14194,1.00513 0.0515,0.16751 0.11592,0.32203 0.20611,0.47665 0.018,0.036 0.0418,0.0692 0.0684,0.10092 l -3.20994,0.005 c -0.0393,-0.048 -0.0752,-0.10142 -0.10569,-0.15728 -0.0773,-0.14174 -0.1287,-0.29636 -0.16735,-0.45098 -0.0773,-0.30924 -0.11607,-0.64426 -0.10319,-0.96638 0.0129,-0.32212 0.0645,-0.64435 0.18045,-0.94071 0.10661,-0.27243 0.26851,-0.52198 0.49401,-0.69081 z m 3.2517,0.008 3.17445,0.007 c -0.17668,0.16438 -0.31084,0.37482 -0.40039,0.5987 -0.12885,0.32213 -0.18044,0.66987 -0.18044,1.00488 0,0.33501 0.0389,0.68296 0.14194,1.01797 0.0515,0.1675 0.11591,0.32228 0.20611,0.4769 0.0146,0.0293 0.0337,0.0562 0.0544,0.0825 l -3.19232,0.005 c -0.0408,-0.0471 -0.0778,-0.0997 -0.10922,-0.152 -0.0773,-0.14174 -0.1287,-0.29636 -0.16735,-0.45098 -0.0773,-0.30924 -0.11602,-0.64425 -0.11602,-0.96637 0.0129,-0.32213 0.0516,-0.64431 0.16761,-0.95355 0.0862,-0.24776 0.22702,-0.48584 0.42127,-0.67042 z" id="polygon11884"/>
      <polygon points="658.7,586.2 659.4,588.1 669.7,617.4 666.6,617.2 679.5,589.1 680.5,587 681.5,589.1 693.9,613.8 691.4,614 699.8,590.7 700.1,589.9 700.5,590.7 713.5,616.1 712.1,616.7 699.8,591 700.5,590.9 694,614.8 693,618.3 691.5,615 679.5,590.1 681.5,590 669.6,618.5 667.8,622.8 666.5,618.4 658,588.6 659.4,588.6 648.5,622.2 647.3,626 645.5,622.3 629.9,588.7 631.3,588.5 622.8,615.9 622.7,616.3 622.5,616 609.4,586.9 610.6,586.8 604,616.5 603,620.8 601.2,616.8 588.4,588.6 586.1,616.2 586,618.3 584.8,616.6 569.1,594.2 570.3,593.3 586,615.7 584.7,616.1 588.4,588.6 603.9,615.5 601.1,615.8 609.4,586.5 609.9,584.7 610.6,586.4 622.8,615.9 622.5,615.9 629.9,588.1 630.4,586.3 631.3,588 648.4,620.9 645.5,621.1 658,588.1 " id="polygon11920" style="fill:url(#Contour)" transform="matrix(0.12885033,0,0,0.12885033,-611.68174,29.451066)"/>
      <ellipse cx="-529.05005" cy="127.77674" rx="9.2127981" ry="0.77310199" id="ellipse11922" style="opacity:0.8;fill:url(#Shadow);fill-opacity:1;stroke-width:0.12885033"/>
      <path d="m -529.2433,86.132324 -2.17757,-2.267763 c 0,0.02576 0,0.06442 0,0.0902 -0.10308,5.978652 0.78598,10.862081 1.9843,10.900738 1.1983,0.03867 2.26776,-4.780351 2.37084,-10.771889 0,-0.07731 0,-0.141735 0,-0.219045 z" id="path11924" style="fill:url(#Contour);stroke-width:0.12885033"/>
    </g>
    <text style="font-style: normal; font-weight: normal; font-size: 10.5833px; line-height: 1.25; font-family: sans-serif; text-align: start; letter-spacing: 0px; word-spacing: 0px; text-anchor: start; fill: url(#Text-1); fill-opacity: 1; stroke: none; stroke-width: 0.264583; white-space: pre;" x="-20.054453" y="-242.33096" id="text8861"><tspan id="tspan8859" x="-20.054453" y="-242.33096" style="font-style:normal;font-variant:normal;font-weight:normal;font-stretch:normal;font-size:12.69999981px;font-family:'Roboto Slab';font-variant-ligatures:normal;font-variant-caps:normal;font-variant-numeric:normal;font-feature-settings:normal;text-align:center;text-anchor:middle;fill:url(#Text-1);stroke-width:0.26458332;">403 Forbidden</tspan></text>
    <text style="font-style: normal; font-weight: normal; font-size: 10.5833px; line-height: 1.25; font-family: sans-serif; text-align: start; letter-spacing: 0px; word-spacing: 0px; text-anchor: start; fill: url(#Text-1); fill-opacity: 1; stroke: none; stroke-width: 0.264583; white-space: pre;" x="-20.120592" y="-164.80688" id="text8867"><tspan x="-20.120592" y="-164.80688" style="font-style:normal;font-variant:normal;font-weight:300;font-stretch:normal;font-size:10.58333302px;font-family:'Roboto Condensed';font-variant-ligatures:normal;font-variant-caps:normal;font-variant-numeric:normal;font-feature-settings:normal;text-align:center;text-anchor:middle;fill:url(#Text-1);stroke-width:0.26458332;" id="tspan8865">“This area is off limits!”</tspan></text>
  </g>
</svg>