<?xml version="1.0" encoding="utf-8"?>
<svg viewBox="0 952.5 238.125 119.063" width="238.125" height="119.063" xmlns="http://www.w3.org/2000/svg" xmlns:xlink="http://www.w3.org/1999/xlink">
  <defs>
    <radialGradient id="radialGradient10026" gradientUnits="userSpaceOnUse" gradientTransform="matrix(0.49484642,0,0,0.24856418,112.72668,434.77144)" cx="-268.28397" cy="765.6449" r="239.54193" xlink:href="#Background"/>
    <linearGradient id="Background">
      <stop id="stop2858" offset="0" style="stop-color:#000000;stop-opacity:0.1254902"/>
      <stop style="stop-color:#000000;stop-opacity:0.03137255" offset="0.8714" id="stop2978"/>
      <stop id="stop2862" offset="1" style="stop-color:#000000;stop-opacity:0"/>
    </linearGradient>
    <linearGradient id="Text-1" gradientTransform="matrix(0.26458333,0,0,0.26458333,-139.09524,-386.94792)">
      <stop style="stop-color:#0e0e0e;stop-opacity:1;" offset="0" id="stop15666"/>
    </linearGradient>
    <linearGradient id="Body" gradientTransform="matrix(0,0,0,0,-550.66328,2.4560221)">
      <stop style="stop-color:#a5b1c2;stop-opacity:1;" offset="0" id="stop13242"/>
    </linearGradient>
    <linearGradient id="Middle" gradientTransform="matrix(0.01333946,0,0,0.01333946,-543.31773,2.4232587)">
      <stop style="stop-color:#778ca3;stop-opacity:1;" offset="0" id="stop13265"/>
    </linearGradient>
    <linearGradient id="Head" gradientTransform="matrix(1.7794098e-4,0,0,1.7794098e-4,-550.5605,2.600199)">
      <stop style="stop-color:#fd9644;stop-opacity:1;" offset="0" id="stop13236"/>
    </linearGradient>
    <linearGradient id="Contour" gradientTransform="matrix(0,0,0,0,-550.66328,2.4560207)">
      <stop style="stop-color:#000000;stop-opacity:1;" offset="0" id="stop13253"/>
    </linearGradient>
  </defs>
  <g id="g3703" transform="matrix(1, 0, 0, 1, 139.095245, 386.947906)">
    <path style="opacity:1;fill:url(#radialGradient10026);fill-opacity:1;stroke:none;stroke-width:0.52455026;stroke-linecap:round;stroke-linejoin:round;stroke-miterlimit:4;stroke-dasharray:none;stroke-opacity:1" d="m -139.09524,565.55209 h 238.125 v 119.0625 h -238.125 z" id="path9860"/>
    <text style="font-style: normal; font-weight: normal; font-size: 10.5833px; line-height: 1.25; font-family: sans-serif; text-align: start; letter-spacing: 0px; word-spacing: 0px; text-anchor: start; fill: url(#Text-1); fill-opacity: 1; stroke: none; stroke-width: 0.264583; white-space: pre;" x="17.13555" y="612.55939" id="text10018"><tspan id="tspan10016" x="17.13555" y="612.55939" style="font-style:normal;font-variant:normal;font-weight:normal;font-stretch:normal;font-size:12.69999981px;font-family:'Roboto Slab';font-variant-ligatures:normal;font-variant-caps:normal;font-variant-numeric:normal;font-feature-settings:normal;text-align:center;text-anchor:middle;fill:url(#Text-1);fill-opacity:1;stroke-width:0.26458332;">504 Gateway Timeout</tspan></text>
    <text style="font-style: normal; font-weight: normal; font-size: 10.5833px; line-height: 1.25; font-family: sans-serif; text-align: start; letter-spacing: 0px; word-spacing: 0px; text-anchor: start; fill: url(#Text-1); fill-opacity: 1; stroke: none; stroke-width: 0.264583; white-space: pre;" x="17.170691" y="631.08118" id="text10024"><tspan x="17.170691" y="631.08118" style="font-style:normal;font-variant:normal;font-weight:300;font-stretch:normal;font-size:10.58333302px;font-family:'Roboto Condensed';font-variant-ligatures:normal;font-variant-caps:normal;font-variant-numeric:normal;font-feature-settings:normal;text-align:center;text-anchor:middle;fill:url(#Text-1);fill-opacity:1;stroke-width:0.26458332;" id="tspan10022">“Looks like our server is</tspan><tspan id="tspan10066" x="17.170691" y="644.4137" style="font-style:normal;font-variant:normal;font-weight:300;font-stretch:normal;font-size:10.58333302px;font-family:'Roboto Condensed';font-variant-ligatures:normal;font-variant-caps:normal;font-variant-numeric:normal;font-feature-settings:normal;text-align:center;text-anchor:middle;fill:url(#Text-1);fill-opacity:1;stroke-width:0.26458332;">taking a short timeout.”</tspan></text>
    <g transform="matrix(0.88317142,0,0,0.88317142,-19.20262,453.28024)" id="g8162">
      <g id="g13506" transform="matrix(0.4027104,0,0,0.4027104,-246.86099,34.708772)">
        <path style="opacity:0.4;fill:url(#SVGID_2_);stroke-width:0.26458332" class="st2" d="m 520.60172,391.26726 c 0,-0.10583 -0.0529,-0.21166 -0.0794,-0.3175 l -0.10584,-0.26458 c -0.0265,-0.0794 -0.0794,-0.15875 -0.13229,-0.23813 -0.0529,-0.0794 -0.10583,-0.15875 -0.15875,-0.23812 -0.21167,-0.3175 -0.47625,-0.58208 -0.76729,-0.82021 -0.55563,-0.50271 -1.24354,-0.82021 -1.93146,-1.05833 -1.37583,-0.44979 -2.8575,-0.50271 -4.25979,-0.3175 -0.71438,0.10583 -1.40229,0.26458 -2.06375,0.47625 -0.66146,0.21166 -1.32292,0.44979 -1.95792,0.76729 -1.24354,0.55562 -2.38125,1.29646 -3.43958,2.11667 -0.9525,-1.905 -2.38125,-3.54542 -3.99521,-4.94771 -1.64042,-1.42875 -3.51896,-2.56646 -5.45042,-3.57188 -3.86291,-1.98437 -8.04333,-3.33375 -12.27666,-4.31271 -2.11667,-0.47625 -4.25979,-0.84666 -6.40292,-1.1377 -2.14312,-0.26459 -4.31271,-0.4498 -6.48229,-0.52917 -2.16958,-0.0529 -4.33917,0 -6.50875,0.21167 l -0.82021,0.0794 -0.82021,0.10583 c -0.52916,0.0529 -1.08479,0.15875 -1.61396,0.26459 -0.52916,0.0794 -1.05833,0.21166 -1.5875,0.34396 -0.26458,0.0529 -0.52916,0.13229 -0.79375,0.21166 l -0.60854,0.18521 c -1.48166,-1.98437 -3.14854,-3.81 -4.92125,-5.50333 -3.12208,-2.93688 -6.50875,-5.52979 -10.10708,-7.77875 -3.59833,-2.24896 -7.32896,-4.33917 -11.35062,-5.87375 -3.99521,-1.53459 -8.22855,-2.64584 -12.59417,-2.93688 -4.33917,-0.3175 -8.78417,0.15875 -12.93813,1.53459 -4.15395,1.34937 -8.01687,3.38666 -11.50937,5.9002 -0.44979,0.3175 -0.89958,0.66146 -1.32292,0.97896 -1.03187,-0.47625 -4.07458,-1.77271 -8.22854,-2.8575 l -6.45583,-0.18521 -0.42334,-0.0265 -2.91041,-0.66146 c 0,0 -7.09084,-1.32292 -8.5725,-1.34938 -1.48167,-0.0265 -1.74625,1.95792 -1.45521,2.69875 0.29104,0.74084 1.13771,4.02167 3.12208,5.37104 0,0 -1.50812,0.66146 -3.06916,2.06375 l -6.42938,6.90563 -4.55083,8.41375 -1.40229,3.25437 c -0.79375,0.23813 -1.56105,0.50271 -2.32834,0.84667 -1.03187,0.44979 -2.03729,1.03188 -2.93687,1.71979 -0.89959,0.68792 -1.74625,1.48167 -2.38125,2.46063 -0.635,0.97896 -1.05834,2.03729 -1.40229,3.12208 -0.34396,1.08479 -0.52917,2.2225 -0.635,3.33375 -0.21167,2.27542 0.0265,4.55083 0.635,6.74688 0.60854,2.19604 1.56104,4.25979 2.83104,6.16479 1.11125,1.69333 2.48708,3.175 4.07458,4.41854 l -11.13896,14.73729 -0.18521,0.23813 0.0265,0.3175 v 0 l 1.98438,15.92791 c 0.68791,5.31813 1.27,10.60979 2.24896,15.90146 0.3175,1.42875 1.08479,2.61937 1.95791,3.67771 0.87313,1.05833 1.82563,2.01083 2.83104,2.91041 2.0373,1.79917 4.23334,3.36021 6.50875,4.78896 2.27542,1.42875 4.65667,2.72521 7.09084,3.81 2.46062,1.08479 5.00062,2.06375 7.72583,2.40771 h 0.0265 0.0265 l 18.0975,-0.34396 18.0975,-0.29104 v 0 h 0.21166 l 0.1323,-0.15875 11.24479,-13.86417 0.0529,0.0529 v 0 c 0.635,1.05833 1.56105,1.905 2.51355,2.67229 0.47625,0.37042 0.97895,0.71438 1.50812,1.05834 0.50271,0.34395 1.03188,0.635 1.56104,0.9525 2.14313,1.19062 4.36563,2.16958 6.6675,2.98979 2.27542,0.84666 4.63021,1.50812 6.985,2.09021 2.35479,0.58208 4.7625,1.03187 7.17021,1.34937 4.81542,0.66146 9.71021,0.84667 14.57854,0.3175 1.21708,-0.13229 2.40771,-0.29104 3.62479,-0.52917 1.19063,-0.23812 2.38125,-0.5027 3.57188,-0.8202 2.30187,-0.66146 4.55083,-1.53459 6.64104,-2.69875 0.52917,0.87312 1.11125,1.71979 1.74625,2.54 0.66146,0.84666 1.37583,1.61395 2.19604,2.35479 0.39688,0.37041 0.84667,0.68791 1.29646,1.00541 0.44979,0.29105 0.97896,0.55563 1.53458,0.74084 0.55563,0.15875 1.19063,0.21166 1.79917,0.0265 0.0794,-0.0265 0.15875,-0.0529 0.21167,-0.0794 l 0.21166,-0.10583 c 0.15875,-0.0529 0.26459,-0.15875 0.39688,-0.26459 0.13229,-0.0794 0.23812,-0.1852 0.34396,-0.29104 0.10583,-0.10583 0.21166,-0.21166 0.29104,-0.3175 0.37041,-0.44979 0.66146,-0.92604 0.89958,-1.42875 0.23813,-0.50271 0.42333,-1.03187 0.55563,-1.53458 0.29104,-1.03188 0.47625,-2.09021 0.60854,-3.175 0.10583,-1.05833 0.15875,-2.11667 0.15875,-3.175 0,-1.03188 -0.0529,-2.09021 -0.15875,-3.12208 1.69333,-1.21709 3.30729,-2.54 4.86833,-3.9423 0.84667,-0.74083 1.71979,-1.56104 2.54,-2.4077 0.34396,-0.34396 0.68792,-0.71438 1.05833,-1.05834 0.52917,-0.55562 1.03188,-1.11125 1.53459,-1.66687 0.50271,-0.55563 0.97896,-1.16417 1.48166,-1.71979 0.47625,-0.58209 0.92605,-1.19063 1.4023,-1.77271 3.6777,-4.81542 6.64104,-10.18646 8.83708,-15.84854 1.11125,-2.83104 1.98437,-5.74146 2.69875,-8.70479 0.68792,-2.96334 1.21708,-5.95313 1.50812,-8.96938 0.58209,-6.0325 0.3175,-12.11792 -0.89958,-18.01812 1.05833,-0.84667 2.09021,-1.7198 3.09563,-2.59292 1.03187,-0.89958 2.06375,-1.82563 3.0427,-2.80458 0.26459,-0.23813 0.50271,-0.50271 0.74084,-0.74084 0.74083,-0.74083 1.5875,-1.64041 2.27541,-2.59291 0.34396,-0.4498 0.68792,-0.92605 0.9525,-1.45521 0.15875,-0.3175 0.3175,-0.635 0.4498,-0.97896 0.0529,-0.37042 0.13229,-0.74083 0.0794,-1.16417 z" id="path10226"/>
        <path style="opacity:0.2;fill:#e8e6d9;stroke-width:0.26458332" class="st3" d="m 410.95839,469.45164 40.29604,-88.66188 4.94771,-0.9525 c 8.30791,-0.71437 18.04458,0.9525 21.74875,1.69334 3.70416,0.74083 9.525,2.59291 13.78479,5.29166 4.25979,2.67229 7.01146,7.06438 7.01146,7.06438 0,0 7.3025,-4.89479 12.62062,-2.38125 5.31813,2.51354 -3.12208,9.525 -3.12208,9.525 l -5.37104,4.73604 0.23812,2.96333 0.74084,11.08604 -2.64584,15.31938 -5.08,12.64708 -5.15937,8.59896 -5.52979,6.61458 c -3.46605,3.81 -7.56709,6.93209 -7.56709,6.93209 l -0.39687,7.46125 c 0,0 -1.27,5.45041 -3.75709,5.55625 -2.48708,0.10583 -6.37645,-4.41855 -6.37645,-4.41855 l -1.5875,-1.95791 -1.95792,0.89958 -6.37646,1.85208 c -10.68916,3.22792 -30.98271,-2.0902 -30.98271,-2.0902 l -8.83708,-2.91042 c -4.84187,-2.32833 -6.64104,-4.86833 -6.64104,-4.86833 z" id="path10228"/>
        <path style="opacity:0.2;fill:#e8e6d9;stroke-width:0.26458332" class="st3" d="m 410.90547,469.37226 40.79875,-88.5825 4.94771,-0.9525 c 8.30792,-0.71437 18.04458,0.9525 21.74875,1.69334 3.70417,0.74083 9.525,2.59291 13.78479,5.29166 4.25979,2.67229 6.48229,6.90563 6.48229,6.90563 0,0 7.83167,-4.73604 13.14979,-2.19604 5.31813,2.51354 -3.94229,9.92187 -3.94229,9.92187 l -5.13291,4.39208 0.39687,3.12209 0.635,10.82146 -2.11667,15.39875 -5.08,12.64708 -5.15937,8.59896 -5.52979,6.61458 c -3.46604,3.81 -8.12271,6.90562 -8.12271,6.90562 l -0.37042,7.3025 c 0,0 -0.74083,5.55625 -3.22791,5.68855 -2.48709,0.10583 -6.72042,-4.02167 -6.72042,-4.02167 l -1.66688,-2.30188 -1.53458,0.82021 -6.37646,1.85209 c -10.68916,3.22791 -30.9827,-2.09021 -30.9827,-2.09021 l -8.83709,-2.91042 c -4.84187,-2.30187 -7.14375,-4.92125 -7.14375,-4.92125 z" id="path10230"/>
        <path style="opacity:0.2;fill:#e8e6d9;stroke-width:0.26458332" class="st3" d="m 363.04235,393.64851 c -3.43959,-2.38125 -6.53521,-3.33375 -8.83709,-3.59833 -2.32833,-0.26458 -5.45041,0.15875 -5.45041,0.15875 l -2.69875,0.66146 1.5875,-3.65125 4.60375,-8.41375 6.42937,-6.90563 c 1.53459,-1.40229 3.06917,-2.06375 3.06917,-2.06375 -1.98438,-1.34937 -2.83104,-4.63021 -3.12208,-5.37104 -0.29105,-0.74083 -0.0265,-2.72521 1.4552,-2.69875 1.48167,0.0265 8.5725,1.34938 8.5725,1.34938 l 2.91042,0.66145 0.42333,0.0265 6.45584,0.18521 c 5.21229,1.34938 8.62541,3.04271 8.62541,3.04271 l -8.65187,9.39271 -11.82688,14.57854 -3.4925,2.72521" id="path10232"/>
        <path style="opacity:0.2;fill:#e8e6d9;stroke-width:0.26458332" class="st3" d="m 351.55943,409.6558 c -1.77271,-1.98437 -4.1275,-6.6675 -3.75708,-7.85812 0.34396,-1.19063 0.66146,-3.30729 2.30187,-3.94229 1.64042,-0.635 3.06917,-0.89959 4.68313,-1.05834 1.61396,-0.1852 3.62479,0.47625 3.62479,0.47625 l 1.95792,0.7673 -5.50334,7.67291 z" id="path10234"/>
        <path style="opacity:0.2;fill:#e8e6d9;stroke-width:0.26458332" class="st3" d="m 344.49506,419.41893 -6.72042,8.96937 -1.05833,-1.16416 c -3.3073,-2.30188 -6.90563,-2.35479 -6.90563,-2.35479 -4.39208,-0.3175 -4.70958,-0.74084 -4.7625,-1.11125 -0.0529,-0.34396 1.42875,-1.19063 1.42875,-1.19063 l 5.52979,-1.69333 c 1.32292,-0.37042 2.72521,-0.34396 2.72521,-0.34396 -0.52917,-2.27542 0.9525,-8.33438 0.9525,-8.33438 l 1.53458,-4.52437 0.71438,2.19604 c 1.29646,4.39208 6.56167,9.55146 6.56167,9.55146 z" id="path10236"/>
        <path style="fill:url(#Body);stroke-width:0.26458332" class="st4" d="m 351.53297,409.57643 c -2.67229,-2.56646 -4.49791,-7.91104 -3.25437,-9.97479 1.24354,-2.06375 4.89479,-2.69875 4.89479,-2.69875 2.83104,-0.50271 5.21229,0.34396 5.21229,0.34396 l 1.95792,0.76729 2.88396,-4.28625 c -2.51355,-1.95792 -6.90563,-3.38667 -6.90563,-3.38667 -8.22854,-0.97896 -10.68917,0.60854 -10.68917,0.60854 0,0 -4.36562,1.27 -6.64104,4.36563 -2.27541,3.12208 -2.27541,7.46125 -2.27541,7.51416 0,0.0529 0.5027,5.60917 0.5027,5.60917 l 1.905,4.36563 c 1.64042,2.91041 5.15938,6.56166 5.15938,6.56166 l 3.38667,-4.31271 z" id="path10238"/>
        <path id="path10240" d="m 425.16651,450.40164 c -8.86354,-14.20813 -32.64958,-32.30563 -42.01583,-36.98875 -9.36625,-4.68313 -18.70604,-10.34521 -27.27854,-9.47209 l -22.225,30.03021 c 0,0 2.93687,29.79208 3.73062,32.35854 0.7673,2.56646 8.12271,11.50938 22.83355,16.56292 4.1275,1.27 14.9225,0.29104 14.9225,0.29104 l 23.86541,-0.37042 18.30917,-22.03979 z" class="st5" style="opacity:1;fill:url(#Body);stroke-width:0.26458332"/>
        <path id="path10266" d="m 396.19464,421.77372 c 10.29229,15.76917 -0.52917,35.8775 -3.91583,41.83062 -0.37042,1.11125 -0.66146,2.32834 -0.66146,2.32834 l -2.61938,3.59833 -1.82562,1.42875 -0.76729,0.13229 c -5.45042,4.65667 -11.90625,8.94292 -21.77521,12.17084 1.74625,0.52916 22.62187,-0.0265 22.62187,-0.0265 l 11.82688,-0.15875 10.4775,-12.62063 3.41312,-9.63083 -0.74083,-2.32833 c -0.84667,-3.01625 1.13771,-5.34459 1.13771,-5.34459 l 1.56104,-1.93146 4.02167,-2.75166 -6.7998,-11.82688 -5.79437,-6.56166 z" class="st10" style="opacity:0.5;fill:#000000;fill-opacity:1;stroke-width:0.26458332"/>
        <path id="path10242" d="m 425.24589,450.66622 3.33375,-3.54542 -0.92604,-2.40771 c 0,0 -15.47813,-22.14562 -28.28396,-29.02479 -11.64167,-8.78416 -24.55333,-13.49375 -24.55333,-13.49375 l -15.39875,-2.91041 -3.46605,4.92125 c 0,0 8.91646,-1.93146 26.88167,9.18104 17.96521,11.1125 27.33146,19.71146 27.33146,19.71146 l 7.67292,7.38187 5.31812,6.35 z" class="st6" style="opacity:1;fill:url(#Middle);stroke-width:0.26458332"/>
        <path id="path10244" d="m 451.94235,404.04664 c -0.0794,-0.10584 -0.15875,-0.23813 -0.21167,-0.37042 -0.10583,-0.29104 -0.0794,-0.635 0,-0.89958 0.0265,-0.0794 0.0529,-0.18521 0.0794,-0.23813 0,-0.0265 0,-0.0265 0.0264,-0.0265 v 0 c 0,-0.0529 -0.0264,-0.10583 -0.0264,-0.10583 -0.0265,-0.10583 -0.0794,-0.23812 -0.10584,-0.34396 -0.0794,-0.29104 -0.13229,-0.55562 -0.15875,-0.84666 -0.0265,-0.29105 0.0794,-0.55563 0.29104,-0.7673 -0.0264,-0.34395 0,-0.68791 0.0529,-1.03187 0.13229,-1.24354 0.18521,-1.98438 0.42333,-3.09563 0.3175,-1.4552 0.97896,-2.96333 1.61396,-4.3127 0.13229,-0.29105 0.3175,-0.635 0.52917,-0.9525 -1.29646,-3.70417 -4.47146,-10.45105 -11.66813,-16.72167 -10.60979,-9.26042 -21.56354,-12.62063 -32.91416,-13.73188 -11.32417,-1.08479 -24.36813,9.04875 -24.36813,9.04875 l -12.77937,13.28209 -13.04396,16.37771 7.19667,0.9525 8.70479,2.19604 8.46666,3.81 11.2448,6.48229 14.7902,12.14437 c 0,0 3.25438,3.09563 9.2075,8.96938 5.95313,5.87375 9.81605,13.335 9.81605,13.335 l 1.08479,-2.03729 14.36687,-17.43604 c 0,0 0.635,-1.11125 1.61396,-2.8575 -0.13229,-0.23813 -0.21167,-0.47625 -0.21167,-0.7673 l -0.26458,0.12402 c -0.0265,-0.0794 -0.0529,-0.10251 -0.0529,-0.20835 v 0 c -0.13229,-0.26458 -0.16534,-0.53078 -0.1918,-0.82182 -0.15875,-0.13229 -0.0993,-0.57551 -0.17862,-0.8401 -0.26459,-0.8202 -0.0794,-1.61395 0.15875,-2.4077 -0.13326,-0.49732 -0.14527,-0.71438 -0.0924,-1.0848 -0.23812,-0.26458 -0.0399,-0.60854 0.0659,-1.03187 0.10583,-0.44979 0.34396,-0.84667 0.44979,-1.29646 0.0794,-0.37042 0.0265,-0.74083 0.15875,-1.13771 0.0265,-0.0794 0.0529,-0.13229 0.0794,-0.21166 -0.0265,-0.1323 0,-0.29105 0.0529,-0.42334 0.21167,-0.55562 0.55563,-1.29646 1.00542,-1.95791 0,-0.18521 0.0265,-0.39688 0.13229,-0.60855 0.39688,-0.79375 0.87313,-1.42875 1.34938,-2.14312 0.44979,-0.68792 0.84666,-1.37583 1.34937,-2.06375 -0.0794,-0.52917 0.13229,-1.05833 0.76729,-1.19063 0.15875,-0.84666 0.74084,-1.5875 1.37584,-2.27541 -0.15875,-0.0794 -0.21167,-0.26459 -0.18521,-0.47625 z" class="st7" style="fill:url(#Head);stroke-width:0.26458332"/>
        <path id="path10246" d="m 447.73547,380.81622 c -27.14625,-20.92854 -51.99062,-5.10646 -69.58541,22.72771 -3.99521,-2.03729 -16.21896,-4.49792 -18.415,-4.20688 5.63562,-9.94833 24.84437,-30.00375 30.90333,-33.07291 6.08542,-3.06917 18.70604,-8.14917 29.36875,-4.81542 10.66271,3.33375 23.52146,13.0175 23.52146,13.0175 z" class="st8" style="opacity:0.3;fill:#ffffff;stroke-width:0.26458332"/>
        <path id="path10248" d="m 375.10735,402.85601 c -3.4925,-0.0529 -3.46604,4.68313 -3.46604,4.68313 l -10.13355,-3.06917 -5.55625,-0.26458 3.51896,-4.68313 4.81542,0.39688 10.16,2.16958 z" class="st8" style="opacity:0.3;fill:#ffffff;stroke-width:0.26458332"/>
        <path id="path10250" d="m 362.64547,404.7081 -23.23041,30.55937 c -3.67771,-0.76729 -5.74146,-0.58208 -5.74146,-0.58208 l 13.36146,-18.81188 8.91645,-11.66812 4.5773,0.10583 z" class="st8" style="opacity:0.3;fill:#ffffff;stroke-width:0.26458332"/>
        <path id="path10252" d="m 347.98756,458.39205 c 1.11125,4.68313 9.73666,12.64709 12.72645,12.62063 2.9898,-0.0265 2.06375,-1.71979 2.06375,-1.71979 z" class="st9" style="opacity:0.6;fill:#000000;fill-opacity:1;stroke-width:0.26458332"/>
        <path id="path10254" d="m 449.00547,382.40372 c 7.99042,19.81729 -21.82812,48.92146 -41.14271,40.11083 0,0 17.38313,17.145 21.2725,24.36813 0,0 6.69396,-7.48771 16.8275,-22.35729 -0.0265,-0.13229 -0.0529,-0.26459 -0.0529,-0.39688 0,0 0,0 0,0 -0.0265,-0.0794 -0.0529,-0.18521 -0.0529,-0.29104 0,0 0,0 0,0 -0.13229,-0.26458 -0.21167,-0.58208 -0.23812,-0.87312 -0.15875,-0.1323 -0.3175,-0.3175 -0.39688,-0.58209 -0.26458,-0.82021 -0.0794,-1.61396 0.15875,-2.40771 0.10583,-0.34395 0.15875,-0.71437 0.21167,-1.08479 -0.23813,-0.26458 -0.34396,-0.60854 -0.23813,-1.03187 0.10584,-0.44979 0.34396,-0.84667 0.44979,-1.29646 0.0794,-0.37042 0.0265,-0.74083 0.15875,-1.13771 0.0265,-0.0794 0.0529,-0.13229 0.0794,-0.21167 -0.0265,-0.13229 0,-0.29104 0.0529,-0.42333 0.21166,-0.55562 0.55562,-1.29646 1.00541,-1.95792 0,-0.1852 0.0265,-0.39687 0.13229,-0.60854 0.39688,-0.79375 0.87313,-1.42875 1.34938,-2.14312 0.44979,-0.68792 0.84667,-1.37584 1.34937,-2.06375 -0.0794,-0.52917 0.1323,-1.05834 0.7673,-1.19063 0.15875,-0.84666 0.74083,-1.5875 1.37583,-2.27541 -0.0794,-0.15875 -0.13229,-0.34396 -0.13229,-0.55563 -0.0794,-0.10583 -0.15875,-0.23812 -0.21167,-0.37042 -0.10583,-0.29104 -0.0794,-0.635 0,-0.89958 0.0265,-0.0794 0.0529,-0.18521 0.0794,-0.23812 0,-0.0265 0,-0.0265 0.0264,-0.0265 0,0 0,0 0,0 0,-0.0529 -0.0264,-0.10584 -0.0264,-0.10584 -0.0265,-0.10583 -0.0794,-0.23812 -0.10584,-0.34395 -0.0794,-0.29105 -0.13229,-0.55563 -0.15875,-0.84667 -0.0265,-0.29104 0.0794,-0.55563 0.29104,-0.76729 -0.0264,-0.34396 0,-0.68792 0.0529,-1.03188 0.13229,-1.24354 0.18521,-1.98437 0.42333,-3.09562 0.3175,-1.45521 0.97896,-2.96334 1.61396,-4.31271 0.18521,-0.39688 0.44979,-0.89958 0.79375,-1.29646 0,-0.0529 0.0265,-0.10583 0.0529,-0.15875 -1.00542,-3.01625 -2.83104,-5.79437 -5.76792,-8.09625 z" class="st2" style="opacity:0.4;fill:url(#SVGID_2_);stroke-width:0.26458332"/>
        <path style="fill:url(#Contour);stroke-width:0.26458332" id="path10256" d="m 394.42193,421.61497 c 10.63625,7.96396 24.47726,27.49682 24.47726,27.49682 l 1.73302,0.25466 4.61368,1.29977 0.74083,-0.29104 2.77813,-3.70417 c -3.12209,1.87854 -6.11188,-0.42333 -6.11188,-0.42333 -5.02708,-6.90563 -13.0175,-13.62604 -13.0175,-13.62604 l -13.44083,-10.87438 z"/>
        <path style="fill:url(#Contour);stroke-width:0.26458332" id="path10260" d="m 412.54589,460.34997 c 0.9525,2.98979 -7.77875,15.29292 -7.77875,15.29292 l 11.13896,-12.85875 c -1.37584,-0.0794 -3.36021,-2.43417 -3.36021,-2.43417 z"/>
        <path style="fill:url(#Contour);stroke-width:0.26458332" id="path10262" d="m 412.81047,440.85018 c 2.43417,3.09562 4.47146,5.68854 3.88938,8.86354 1.69333,-0.26458 3.09562,-1.5875 3.09562,-1.5875 l -2.96333,-4.10104 z"/>
        <path style="fill:url(#Contour);stroke-width:0.26458332" id="path10264" d="m 392.27881,463.60434 c -0.18521,4.84188 -4.31271,7.56709 -5.90021,7.48771 4.25979,-2.09021 5.90021,-7.48771 5.90021,-7.48771 z"/>
        <path style="fill:url(#Contour);stroke-width:0.26458332" id="path10268" d="m 424.18756,449.42268 0.3175,0.52916 0.47625,0.71438 c 0.13229,0 0.23812,0 0.37041,0.0265 0.10584,0.0265 0.18521,0.0529 0.29104,0.0794 l -0.5027,-1.03187 -0.34396,-0.66146 c -0.10584,-0.21167 -0.23813,-0.39688 -0.34396,-0.58208 -0.44979,-0.79375 -0.92604,-1.56105 -1.45521,-2.30188 l -0.76729,-1.13771 -0.82021,-1.08479 c -0.52917,-0.74083 -1.11125,-1.42875 -1.69333,-2.14312 -2.30188,-2.83105 -4.81542,-5.42396 -7.43479,-7.9375 -2.61938,-2.51354 -5.31813,-4.92125 -8.14917,-7.22313 -2.83104,-2.27541 -5.68854,-4.47146 -8.67833,-6.56166 -5.92667,-4.15396 -12.11792,-7.99042 -18.70605,-11.1125 -3.28083,-1.56105 -6.6675,-2.93688 -10.18645,-3.9423 l -1.32292,-0.37041 -1.34938,-0.29104 c -0.89958,-0.21167 -1.79916,-0.3175 -2.69875,-0.47625 -1.82562,-0.18521 -3.6777,-0.29105 -5.50333,0.0794 v 0 h -0.10583 l -0.0794,0.10583 -22.64833,29.95084 -0.18521,0.23812 0.0265,0.3175 v 0 l 1.98437,15.92792 c 0.68792,5.31812 1.27,10.60979 2.24896,15.90146 0.3175,1.42875 1.08479,2.61937 1.95792,3.6777 0.87312,1.05834 1.82562,2.01084 2.83104,2.91042 2.03729,1.79917 4.23333,3.36021 6.50875,4.78896 2.27542,1.42875 4.65667,2.72521 7.09083,3.81 2.46063,1.08479 5.00063,2.06375 7.72584,2.40771 h 0.0265 0.0265 l 18.0975,-0.34396 18.0975,-0.29104 v 0 h 0.21167 l 0.13229,-0.15875 16.64229,-20.53167 c -0.21166,-0.0529 -0.42333,-0.13229 -0.635,-0.26458 l -16.58937,20.02896 -17.88583,0.42333 -18.04459,0.37042 c -2.56646,-0.3175 -5.08,-1.29646 -7.48771,-2.3548 -2.4077,-1.08479 -4.7625,-2.38125 -6.985,-3.78354 -2.24895,-1.42875 -4.39208,-2.98979 -6.37645,-4.73604 -0.97896,-0.87312 -1.93146,-1.82562 -2.72521,-2.83104 -0.82021,-1.00542 -1.53459,-2.11667 -1.77271,-3.33375 -0.47625,-2.59292 -0.79375,-5.26521 -1.11125,-7.91104 -0.3175,-2.64584 -0.635,-5.29167 -0.89958,-7.96396 l -0.79375,-7.96396 -0.66146,-7.67291 21.64291,-30.1625 c 1.7198,-0.1323 3.43959,0.0794 5.13292,0.37041 0.87313,0.21167 1.71979,0.37042 2.56646,0.635 l 1.27,0.37042 1.27,0.42333 c 3.36021,1.16417 6.61458,2.64584 9.81604,4.23334 3.175,1.61395 6.32354,3.3602 9.39271,5.21229 3.06917,1.82562 6.08542,3.78354 9.02229,5.82083 5.87375,4.10104 11.56229,8.49313 16.88042,13.30854 2.64583,2.40771 5.18583,4.94771 7.56708,7.59354 0.60854,0.66146 1.19063,1.32292 1.74625,2.03729 l 0.84667,1.03188 0.79375,1.05833 c 0.55562,0.71438 1.03187,1.45521 1.53458,2.19604 z"/>
        <path style="fill:url(#Contour);stroke-width:0.26458332" id="path10270" d="m 445.90985,424.12851 c -0.0265,-0.0794 -0.0794,-0.29104 -0.0794,-0.29104 -0.0794,-0.15875 -0.30592,-0.69618 -0.33238,-0.85493 -1.64041,2.61937 -3.18658,5.61743 -4.98574,8.15743 -4.81542,6.74688 -10.08063,13.20271 -15.24,19.71146 l 0.44979,0.37041 c 5.52979,-6.2177 11.00667,-12.48833 16.13958,-19.10291 1.66688,-2.16958 3.28084,-4.36563 4.81542,-6.61458 -0.10583,-0.0529 -0.21167,-0.1323 -0.26458,-0.21167 -0.3175,-0.37042 -0.50271,-0.71438 -0.50271,-1.16417 z"/>
        <path style="fill:url(#Contour);stroke-width:0.26458332" id="path10272" d="m 454.9586,389.99726 c 0.21166,-0.42333 0.55562,-0.71437 0.97896,-0.89958 -0.4498,-1.32292 -0.9525,-2.61938 -1.61396,-3.86292 -1.98438,-3.88937 -4.78896,-7.3025 -7.88459,-10.23937 -3.12208,-2.93688 -6.50875,-5.52979 -10.10708,-7.77875 -3.59833,-2.24896 -7.32896,-4.33917 -11.35062,-5.87375 -3.99521,-1.53459 -8.22855,-2.64584 -12.59417,-2.93688 -4.33917,-0.3175 -8.78417,0.15875 -12.93813,1.53459 -4.15395,1.34937 -8.01687,3.38666 -11.50937,5.9002 -6.985,5.00063 -12.62063,11.40355 -17.75354,17.99167 -5.13292,6.61458 -9.78959,13.49375 -14.65792,20.26708 l 0.44979,0.37042 c 5.52979,-6.24417 10.60979,-12.85875 16.00729,-19.12937 2.69875,-3.12209 5.45042,-6.21771 8.3873,-9.07521 2.93687,-2.8575 6.00604,-5.55625 9.33979,-7.80521 3.33375,-2.24896 6.90562,-4.15396 10.68916,-5.31813 0.9525,-0.29104 1.905,-0.5027 2.8575,-0.76729 0.97896,-0.15875 1.93146,-0.34396 2.91042,-0.44979 1.95792,-0.18521 3.94229,-0.29104 5.92667,-0.13229 3.94229,0.26458 7.85812,1.24354 11.61521,2.67229 3.78354,1.40229 7.32895,3.41313 10.795,5.52979 3.4925,2.11667 6.74687,4.57729 9.73666,7.3025 2.93688,2.72521 5.55625,5.84729 7.38188,9.33979 0.9525,1.7198 1.61396,3.59834 2.16958,5.47688 0,0.0265 0,0.0265 0,0.0529 0.0265,-0.0529 0.0529,-0.0794 0.0529,-0.1323 0.18521,-0.39687 0.44979,-0.89958 0.79375,-1.32291 0.13229,-0.26459 0.21166,-0.47625 0.3175,-0.71438 z"/>
        <path style="fill:url(#Contour);stroke-width:0.26458332" id="path10274" d="m 347.14089,457.73059 16.35125,10.9273 c 0.37042,0.23812 0.44979,0.74083 0.21167,1.08479 -0.23813,0.37041 -0.74084,0.44979 -1.0848,0.21166 -0.0265,0 -0.0265,-0.0265 -0.0529,-0.0265 z"/>
        <path style="fill:url(#Contour);stroke-width:0.26458332" id="path10276" d="m 428.57964,447.1208 c -0.76729,-1.61396 -1.77271,-3.12208 -2.80458,-4.57729 -1.03188,-1.48167 -2.16959,-2.88396 -3.28084,-4.28625 -2.30187,-2.77812 -4.7625,-5.42396 -7.3025,-7.99041 -5.10646,-5.10646 -10.58333,-9.8425 -16.40416,-14.1023 -5.82084,-4.25979 -12.01209,-8.04333 -18.57375,-10.9802 -6.53521,-2.93688 -13.52021,-5.10646 -20.74334,-5.29167 v -0.58208 l 2.75167,0.0264 2.72521,0.21167 c 0.89958,0.10583 1.79916,0.26458 2.72521,0.39688 0.89958,0.15875 1.79916,0.37041 2.69875,0.55562 3.57187,0.84667 7.03791,2.03729 10.39812,3.4925 3.36021,1.45521 6.58813,3.14854 9.73667,5.02708 3.12208,1.87855 6.13833,3.9423 9.07521,6.11188 2.93687,2.16958 5.76791,4.445 8.51958,6.85271 2.72521,2.40771 5.37104,4.92125 7.91104,7.54062 2.51354,2.61938 4.97417,5.34459 7.22313,8.20209 1.11125,1.4552 2.2225,2.88395 3.22791,4.41854 1.00542,1.53458 1.95792,3.09562 2.72521,4.7625 z"/>
        <path style="fill:url(#Body);stroke-width:0.26458332" class="st4" d="m 416.32943,450.32226 c -4.445,4.445 -1.53458,10.16 -1.53458,10.16 l 4.31271,4.07458 c 10.92729,5.50334 20.5052,3.3073 20.5052,3.3073 14.31396,-2.59292 19.49979,-7.51417 19.49979,-7.51417 0,0 8.62542,-6.13833 9.3398,-16.66875 0.71437,-10.53042 -6.35,-15.39875 -13.12334,-17.22437 -6.74687,-1.82563 -11.05958,0.0794 -11.05958,0.0794 l -5.31812,8.54604 c 6.58812,-0.50271 10.71562,2.88396 12.85875,5.13292 2.14312,2.24896 2.2225,5.3975 1.29645,7.09083 -0.92604,1.69333 -5.52979,3.4925 -5.52979,3.4925 l -5.97958,1.905 c -3.51896,0.42333 -9.55146,-0.42333 -9.55146,-0.42333 l -9.525,-2.30188 z" id="path10280"/>
        <path style="fill:url(#Contour);stroke-width:0.26458332" d="m 453.47693,446.8033 c 1.16417,0.79375 2.51354,1.08479 3.86292,1.08479 1.34937,0 2.7252,-0.21166 4.04812,-0.55562 1.32292,-0.34396 2.67229,-0.82021 3.91583,-1.42875 0.635,-0.3175 1.24355,-0.66146 1.77271,-1.08479 0.52917,-0.42334 1.08479,-0.92604 1.32292,-1.56104 l 0.21167,0.0794 c -0.1323,0.37042 -0.3175,0.68792 -0.55563,0.9525 -0.21167,0.29104 -0.47625,0.55563 -0.74083,0.79375 -0.52917,0.50271 -1.11125,0.92604 -1.71979,1.32292 -1.21709,0.79375 -2.54,1.42875 -3.9423,1.87854 -1.40229,0.42333 -2.88395,0.68792 -4.39208,0.55562 l -0.55562,-0.0529 -0.55563,-0.10584 -0.55562,-0.15875 c -0.18521,-0.0529 -0.34396,-0.13229 -0.52917,-0.21166 -0.68792,-0.29104 -1.32292,-0.76729 -1.77271,-1.34938 z" id="path10282"/>
        <path style="fill:url(#Contour);stroke-width:0.26458332" d="m 449.42881,437.86039 c 1.19062,-0.39688 2.2225,-1.16417 3.09562,-2.06375 0.84667,-0.92604 1.56104,-1.95792 2.09021,-3.09563 0.52917,-1.11125 0.9525,-2.30187 1.08479,-3.4925 0,-0.15875 0.0265,-0.29104 0.0265,-0.44979 0,-0.0794 0,-0.15875 0,-0.21167 v -0.21166 c 0,-0.15875 -0.0265,-0.29104 -0.0529,-0.42334 -0.0265,-0.0794 -0.0265,-0.13229 -0.0529,-0.21166 -0.0265,-0.0794 -0.0265,-0.13229 -0.0794,-0.18521 -0.0794,-0.26458 -0.26458,-0.47625 -0.44979,-0.68792 -0.21167,-0.21166 -0.47625,-0.3175 -0.76729,-0.42333 l 0.0265,-0.23813 0.26458,0.0265 c 0.0794,0 0.15875,0.0265 0.26458,0.0529 l 0.26459,0.0794 0.23812,0.1323 c 0.3175,0.1852 0.58208,0.44979 0.74083,0.79375 0.0529,0.0794 0.0794,0.15875 0.1323,0.23812 0.0265,0.0794 0.0794,0.15875 0.10583,0.26458 0.0529,0.15875 0.10583,0.34396 0.13229,0.50271 l 0.0265,0.26459 c 0,0.0794 0,0.1852 0.0265,0.26458 0.0265,0.18521 0,0.34396 0,0.50271 -0.0794,1.37583 -0.58209,2.61937 -1.21709,3.75708 -0.3175,0.58208 -0.71437,1.11125 -1.11125,1.61396 -0.39687,0.50271 -0.84666,0.97896 -1.32291,1.42875 -0.9525,0.87312 -2.06375,1.61396 -3.33375,1.98437 z" id="path10284"/>
        <path style="fill:url(#Contour);stroke-width:0.26458332" d="m 444.7986,428.41476 c -0.13229,-0.3175 -0.29104,-0.635 -0.47625,-0.92604 -0.0794,0.0794 -0.18769,0.0864 -0.26707,0.13932 0.13229,0.26458 0.29353,0.62797 0.3729,0.91901 0.23813,0.7673 0.26458,1.56105 0.21167,2.32834 -0.0529,0.76729 -0.18521,1.56104 -0.42334,2.27541 -0.23812,0.74084 -0.635,1.42875 -1.08479,2.11667 l 0.18521,0.15875 c 0.635,-0.55562 1.13771,-1.27 1.48167,-2.03729 0.18521,-0.39688 0.3175,-0.79375 0.39687,-1.21708 0.10584,-0.42334 0.13229,-0.84667 0.13229,-1.27 0,-0.87313 -0.21166,-1.7198 -0.52916,-2.48709 z" id="path10286"/>
        <path style="fill:url(#Contour);stroke-width:0.26458332" d="m 344.62735,419.73643 c -1.79917,-1.32292 -3.38667,-2.98979 -4.65667,-4.86833 -1.24354,-1.87855 -2.2225,-3.96875 -2.83104,-6.1648 -0.60854,-2.19604 -0.84667,-4.47145 -0.635,-6.74687 0.10583,-1.13771 0.29104,-2.24896 0.635,-3.33375 0.34396,-1.08479 0.76729,-2.14313 1.40229,-3.12208 0.635,-0.97896 1.48167,-1.77271 2.38125,-2.46063 0.89958,-0.68792 1.905,-1.24354 2.93688,-1.71979 2.06375,-0.92604 4.3127,-1.42875 6.56166,-1.5875 2.24896,-0.15875 4.52438,0.0794 6.69396,0.71437 2.16958,0.60855 4.20688,1.69334 5.97958,3.06917 l -0.13229,0.18521 c -0.89958,-0.66146 -1.85208,-1.24354 -2.83104,-1.71979 -0.23812,-0.10584 -0.50271,-0.23813 -0.74083,-0.34396 l -0.76729,-0.3175 -0.79375,-0.26458 c -0.26459,-0.0794 -0.52917,-0.15875 -0.79375,-0.23813 -2.14313,-0.58208 -4.36563,-0.76729 -6.56167,-0.60854 -2.19604,0.18521 -4.36563,0.71437 -6.37646,1.61396 -1.00542,0.44979 -1.95792,1.00541 -2.80458,1.66687 -0.84667,0.66146 -1.64042,1.42875 -2.2225,2.32834 -0.58209,0.89958 -1.00542,1.93145 -1.32292,2.96333 -0.3175,1.03187 -0.50271,2.11667 -0.60854,3.22792 -0.18521,2.16958 0.0529,4.39208 0.635,6.50875 0.58208,2.11666 1.53458,4.1275 2.75167,5.95312 0.15875,0.23813 0.29104,0.44979 0.47625,0.68792 0.15875,0.21166 0.3175,0.44979 0.47625,0.66146 0.15875,0.21166 0.34395,0.44979 0.5027,0.66145 0.18521,0.21167 0.34396,0.42334 0.52917,0.635 0.71438,0.84667 1.48167,1.64042 2.24896,2.43417 z" id="path10288"/>
        <path style="fill:url(#Contour);stroke-width:0.26458332" d="m 360.21131,398.06705 c -0.87313,-0.44979 -1.85209,-0.74083 -2.83105,-0.89958 -0.97895,-0.18521 -1.98437,-0.26458 -2.96333,-0.21167 -0.97896,0.0529 -1.95792,0.21167 -2.88396,0.52917 -0.92604,0.3175 -1.77271,0.79375 -2.40771,1.50813 -0.3175,0.34395 -0.55562,0.74083 -0.74083,1.19062 -0.15875,0.44979 -0.26458,0.89958 -0.26458,1.37583 -0.0529,0.9525 0.18521,1.93146 0.50271,2.8575 0.68791,1.85209 1.7727,3.57188 3.01625,5.13292 l -0.18521,0.15875 c -1.24354,-1.5875 -2.40771,-3.25437 -3.20146,-5.13292 -0.37042,-0.9525 -0.66146,-1.95791 -0.66146,-3.01625 -0.0265,-0.52916 0.10583,-1.05833 0.26458,-1.56104 0.21167,-0.50271 0.4498,-0.97896 0.82021,-1.37583 0.34396,-0.39688 0.79375,-0.71438 1.24354,-1.00542 0.47625,-0.23812 0.9525,-0.47625 1.42875,-0.60854 1.00542,-0.3175 2.01084,-0.42333 3.04271,-0.44979 1.03188,-0.0265 2.03729,0.0794 3.04271,0.29104 1.00542,0.21167 1.95792,0.52917 2.8575,1.03188 z" id="path10290"/>
        <path style="fill:url(#Contour);stroke-width:0.26458332" d="m 357.22151,397.00872 c -0.3175,-0.50271 -0.42333,-1.08479 -0.42333,-1.66687 0,-0.58209 0.10583,-1.13771 0.29104,-1.69334 0.18521,-0.52916 0.44979,-1.05833 0.79375,-1.50812 0.18521,-0.21167 0.39688,-0.42334 0.635,-0.58209 0.13229,-0.0794 0.26459,-0.13229 0.39688,-0.1852 0.13229,-0.0265 0.29104,-0.0529 0.42333,0 v 0.0529 c -0.26458,0 -0.50271,0.13229 -0.68792,0.29104 -0.1852,0.18521 -0.34395,0.39688 -0.5027,0.60855 -0.29105,0.44979 -0.47625,0.9525 -0.635,1.4552 -0.29105,1.03188 -0.37042,2.09021 -0.0794,3.12209 z" id="path10292"/>
        <path style="fill:url(#Contour);stroke-width:0.26458332" d="m 350.42172,397.80247 c -0.21166,-0.0265 -0.42333,-0.0265 -0.635,-0.0794 -0.10583,-0.0265 -0.21166,-0.0265 -0.3175,-0.0529 l -0.3175,-0.0794 c -0.42333,-0.13229 -0.82021,-0.34395 -1.16416,-0.60854 -0.71438,-0.55562 -1.16417,-1.40229 -1.32292,-2.24896 -0.15875,-0.87312 -0.10583,-1.74625 0.15875,-2.56645 0.13229,-0.39688 0.3175,-0.82021 0.55562,-1.16417 0.1323,-0.15875 0.26459,-0.34396 0.4498,-0.47625 0.15875,-0.13229 0.37041,-0.23813 0.58208,-0.26458 v 0.0529 c -0.39688,0.10584 -0.66146,0.44979 -0.87313,0.79375 -0.1852,0.34396 -0.34395,0.74084 -0.44979,1.13771 -0.18521,0.79375 -0.21166,1.61396 -0.0265,2.40771 0.18521,0.76729 0.58209,1.48167 1.19063,1.98437 0.60854,0.50271 1.37583,0.79375 2.19604,0.9525 z" id="path10294"/>
        <polygon style="fill:url(#Contour)" points="711.5,364.9 717.2,350.9 817.3,388.4 807,411.9 " id="polygon10296" transform="matrix(0.26458333,0,0,0.26458333,193.49735,306.07143)"/>
        <path style="fill:url(#Contour);stroke-width:0.26458332" d="m 445.67172,424.5783 c -0.68791,-1.82562 -0.92604,-3.83645 -0.79375,-5.79437 0.0529,-0.50271 0.0794,-0.97896 0.15875,-1.48167 l 0.13229,-0.74083 c 0.0529,-0.23813 0.10584,-0.47625 0.15875,-0.71438 l 0.18521,-0.71437 c 0.0794,-0.23813 0.15875,-0.47625 0.21167,-0.71438 l 0.23812,-0.71437 c 0.0794,-0.23813 0.18521,-0.44979 0.26459,-0.68792 1.45521,-3.67771 3.75708,-6.93208 6.40291,-9.78958 2.6723,-2.8575 5.66209,-5.37104 8.83709,-7.59354 1.5875,-1.11125 3.25437,-2.11667 4.97416,-3.01625 1.71979,-0.89959 3.51896,-1.66688 5.37104,-2.2225 -1.82562,0.635 -3.57187,1.48166 -5.2652,2.40771 -1.66688,0.9525 -3.28084,2.01083 -4.84188,3.175 -3.09562,2.30187 -5.95312,4.92125 -8.44021,7.83166 -1.24354,1.45521 -2.4077,2.96334 -3.46604,4.55084 -1.05833,1.5875 -2.01083,3.25437 -2.75166,5.00062 -0.10584,0.21167 -0.18521,0.42333 -0.29105,0.66146 l -0.23812,0.66146 c -0.0794,0.21166 -0.15875,0.44979 -0.23813,0.66146 l -0.1852,0.68791 c -0.0529,0.23813 -0.1323,0.44979 -0.18521,0.68792 l -0.15875,0.68792 c -0.10584,0.44979 -0.15875,0.92604 -0.23813,1.40229 -0.13229,0.92604 -0.13229,1.87854 -0.10583,2.83104 0,0.23812 0.0529,0.47625 0.0529,0.71437 l 0.0794,0.71438 c 0.0794,0.47625 0.18521,0.92604 0.29104,1.40229 z" id="path10298"/>
        <path style="fill:url(#Contour);stroke-width:0.26458332" d="m 451.86297,404.68164 c -0.42333,-1.64042 -0.58208,-3.36021 -0.50271,-5.05354 0,-0.21167 0.0265,-0.42334 0.0265,-0.635 0.0265,-0.21167 0.0265,-0.42334 0.0529,-0.635 0.0529,-0.42334 0.10583,-0.84667 0.18521,-1.27 0.15875,-0.84667 0.37041,-1.66688 0.66146,-2.48709 0.55562,-1.64041 1.40229,-3.14854 2.43416,-4.52437 0.13229,-0.15875 0.26459,-0.34396 0.39688,-0.50271 0.13229,-0.15875 0.26458,-0.3175 0.42333,-0.47625 0.29104,-0.3175 0.58208,-0.60854 0.89958,-0.89958 0.635,-0.58209 1.29646,-1.11125 2.03729,-1.50813 -1.21708,1.16417 -2.22249,2.48708 -3.09562,3.86292 -0.42333,0.68791 -0.82021,1.40229 -1.16417,2.14312 -0.34395,0.74084 -0.66145,1.48167 -0.92604,2.24896 -0.26458,0.76729 -0.47625,1.56104 -0.66146,2.35479 -0.10583,0.39688 -0.15875,0.79375 -0.23812,1.19063 -0.0529,0.39687 -0.13229,0.82021 -0.15875,1.21708 -0.18521,1.64042 -0.21167,3.28083 -0.13229,4.94771 z" id="path10300"/>
        <path style="fill:url(#Contour);stroke-width:0.26458332" d="m 451.20151,380.55164 0.79375,-0.21167 c 0.26459,-0.0794 0.52917,-0.15875 0.79375,-0.21167 0.52917,-0.10583 1.05834,-0.23812 1.5875,-0.34395 0.52917,-0.10584 1.05834,-0.18521 1.61396,-0.26459 l 0.82021,-0.10583 0.82021,-0.0794 c 2.16958,-0.21166 4.33916,-0.26458 6.50875,-0.21166 2.16958,0.0529 4.33916,0.23812 6.48229,0.52916 2.14312,0.29105 4.28625,0.66146 6.40292,1.13771 4.23333,0.97896 8.38729,2.30188 12.27666,4.31271 1.93146,1.00542 3.81,2.14313 5.45042,3.57188 1.64042,1.42875 3.12208,3.09562 4.07458,5.05354 l -0.15875,-0.0529 v 0 c 1.08479,-0.87312 2.27542,-1.61396 3.54542,-2.19604 0.635,-0.29104 1.29646,-0.55563 1.95792,-0.76729 0.68791,-0.21167 1.37583,-0.37042 2.06375,-0.47625 1.40229,-0.21167 2.88395,-0.15875 4.25979,0.3175 0.68791,0.23812 1.34937,0.55562 1.93146,1.05833 0.29104,0.23813 0.55562,0.50271 0.76729,0.82021 0.0529,0.0794 0.10583,0.15875 0.15875,0.23812 0.0529,0.0794 0.10583,0.15875 0.13229,0.23813 l 0.10583,0.26458 c 0.0265,0.10584 0.0529,0.21167 0.0794,0.3175 0.0529,0.42334 -0.0265,0.79375 -0.13229,1.16417 -0.10584,0.34396 -0.26459,0.68792 -0.4498,0.97896 -0.34395,0.60854 -0.76729,1.19062 -1.19062,1.71979 -0.87313,1.08479 -1.82563,2.09021 -2.80458,3.04271 -0.97896,0.9525 -2.01084,1.87854 -3.04271,2.80458 -1.03188,0.89958 -2.09021,1.79917 -3.175,2.64583 v 0 l 0.0529,-0.10583 c 1.24355,5.92667 1.50813,12.03854 0.92605,18.0975 -0.29105,3.01625 -0.82021,6.0325 -1.50813,8.96938 -0.71437,2.96333 -1.5875,5.87374 -2.69875,8.70479 -2.19604,5.66208 -5.15937,11.03312 -8.83708,15.84854 -0.47625,0.58208 -0.92604,1.19062 -1.40229,1.77271 -0.50271,0.58208 -0.97896,1.16416 -1.48167,1.71979 -0.50271,0.55562 -1.00542,1.13771 -1.53458,1.66687 -0.52917,0.52917 -1.05834,1.08479 -1.5875,1.61396 -2.16959,2.11667 -4.47146,4.07458 -6.90563,5.84729 l 0.0529,-0.10583 v 0 c 0.10583,1.05833 0.15875,2.11667 0.15875,3.175 0,1.05833 -0.0529,2.11667 -0.15875,3.175 -0.10584,1.05833 -0.29104,2.11667 -0.60854,3.175 -0.15875,0.52917 -0.34396,1.03187 -0.55563,1.53458 -0.23812,0.50271 -0.52917,0.97896 -0.89958,1.42875 -0.0794,0.10584 -0.18521,0.21167 -0.29104,0.3175 -0.10584,0.10584 -0.21167,0.21167 -0.34396,0.29104 -0.13229,0.10584 -0.23813,0.18521 -0.39688,0.26459 l -0.21166,0.10583 c -0.0794,0.0265 -0.15875,0.0529 -0.21167,0.0794 -0.60854,0.1852 -1.24354,0.13229 -1.79917,-0.0265 -0.55562,-0.15875 -1.05833,-0.42334 -1.53458,-0.74084 -0.44979,-0.29104 -0.89958,-0.635 -1.29646,-1.00541 -0.79375,-0.71438 -1.53458,-1.50813 -2.19604,-2.35479 -0.66146,-0.84667 -1.27,-1.69334 -1.79917,-2.61938 l 0.15875,0.0529 v 0 c -2.09021,1.21708 -4.39208,2.09021 -6.72041,2.75166 -1.16417,0.3175 -2.35479,0.60855 -3.57188,0.82021 -1.19062,0.21167 -2.40771,0.39688 -3.62479,0.52917 -4.84187,0.52917 -9.76312,0.3175 -14.57854,-0.3175 -2.40771,-0.34396 -4.81542,-0.76729 -7.17021,-1.34938 -2.35479,-0.58208 -4.70958,-1.27 -6.985,-2.0902 -2.27542,-0.82021 -4.52437,-1.79917 -6.6675,-2.9898 -0.52917,-0.29104 -1.05833,-0.60854 -1.56104,-0.9525 -0.50271,-0.3175 -1.03188,-0.66145 -1.50813,-1.05833 -0.9525,-0.74083 -1.905,-1.5875 -2.51354,-2.67229 l 0.18521,-0.13229 c 0.37042,0.44979 0.79375,0.87312 1.27,1.21708 0.44979,0.37042 0.9525,0.68792 1.45521,1.00542 1.00542,0.60854 2.06375,1.16416 3.14854,1.64041 2.16958,0.97896 4.41854,1.77271 6.6675,2.48709 4.55083,1.37583 9.2075,2.38125 13.91708,3.01625 4.70959,0.635 9.47209,0.89958 14.20813,0.66146 4.73604,-0.26459 9.44562,-1.05834 13.94354,-2.75167 v 0 l 0.0794,-0.0529 0.0794,0.0794 c 0.66146,0.82021 1.34937,1.61396 2.06375,2.35479 0.71437,0.76729 1.45521,1.48167 2.24896,2.14312 0.79375,0.635 1.64041,1.21709 2.56646,1.48167 0.44979,0.13229 0.89958,0.15875 1.29645,0.0265 0.39688,-0.10583 0.74084,-0.39688 1.05834,-0.76729 0.635,-0.71438 1.03187,-1.66688 1.34937,-2.64584 0.3175,-0.97895 0.52917,-1.98437 0.68792,-3.01625 0.3175,-2.06375 0.44979,-4.15395 0.47625,-6.24416 v 0 -0.0529 l 0.0529,-0.0529 c 2.32833,-1.87854 4.57729,-3.91583 6.64104,-6.08541 0.52916,-0.52917 1.00541,-1.11125 1.53458,-1.64042 0.50271,-0.55562 0.97896,-1.13771 1.45521,-1.69333 0.47625,-0.58209 0.92604,-1.16417 1.40229,-1.74625 0.47625,-0.58209 0.89958,-1.19063 1.34938,-1.79917 3.51895,-4.84187 6.35,-10.16 8.4402,-15.74271 1.03188,-2.80458 1.905,-5.66208 2.59292,-8.5725 0.68792,-2.91041 1.16417,-5.84729 1.48167,-8.81062 0.635,-5.92667 0.60854,-11.93271 0.0529,-17.93875 v -0.0794 l 0.0529,-0.0265 v 0 c 2.11667,-1.74625 4.15396,-3.57188 6.05896,-5.5298 0.9525,-0.97895 1.87854,-1.98437 2.69875,-3.06916 0.39687,-0.52917 0.79375,-1.11125 1.08479,-1.69334 0.15875,-0.29104 0.29104,-0.58208 0.37042,-0.89958 0.0794,-0.29104 0.13229,-0.60854 0.0794,-0.87312 0,-0.0794 -0.0265,-0.1323 -0.0529,-0.18521 l -0.10584,-0.21167 c -0.0265,-0.0794 -0.0794,-0.13229 -0.10583,-0.21167 -0.0265,-0.0794 -0.0794,-0.13229 -0.13229,-0.1852 -0.18521,-0.23813 -0.39688,-0.47625 -0.66146,-0.66146 -0.50271,-0.37042 -1.11125,-0.635 -1.71979,-0.79375 -0.635,-0.15875 -1.27,-0.23813 -1.93146,-0.26459 -0.66146,-0.0264 -1.32292,0 -1.95792,0.0794 -1.32291,0.15875 -2.61937,0.50271 -3.86291,0.97896 -1.27,0.47625 -2.48709,1.05833 -3.67771,1.71979 v 0 l -0.10584,0.0794 -0.0529,-0.10583 c -1.03188,-1.87854 -2.51354,-3.46604 -4.18042,-4.78896 -1.66687,-1.32291 -3.51896,-2.43416 -5.45042,-3.36021 -1.93145,-0.92604 -3.91583,-1.71979 -5.95312,-2.38125 -2.03729,-0.66145 -4.10104,-1.21708 -6.19125,-1.66687 -4.18042,-0.92604 -8.46667,-1.45521 -12.72646,-1.66688 -2.14312,-0.10583 -4.28625,-0.10583 -6.42937,0 l -0.79375,0.0529 -0.79375,0.0794 c -0.26459,0.0265 -0.52917,0.0265 -0.79375,0.0794 l -0.79375,0.0794 c -1.05834,0.13229 -2.11667,0.3175 -3.175,0.52916 z" id="path10302"/>
        <path style="fill:url(#Contour);stroke-width:0.26458332" d="m 337.77464,428.3883 c -0.66146,-0.74083 -1.48167,-1.32291 -2.38125,-1.7727 -0.44979,-0.21167 -0.89958,-0.39688 -1.37583,-0.58209 -0.47625,-0.15875 -0.9525,-0.29104 -1.45521,-0.42333 -0.97896,-0.26458 -1.98438,-0.42333 -2.96334,-0.60854 -1.00541,-0.15875 -2.01083,-0.29104 -3.01625,-0.47625 -0.26458,-0.0529 -0.5027,-0.0794 -0.76729,-0.15875 -0.13229,-0.0265 -0.26458,-0.0794 -0.37041,-0.13229 -0.13229,-0.0529 -0.26459,-0.10584 -0.37042,-0.23813 -0.0529,-0.0529 -0.10583,-0.13229 -0.13229,-0.23812 -0.0265,-0.10584 0.0265,-0.18521 0.0529,-0.26459 0.0794,-0.15875 0.1852,-0.23812 0.29104,-0.34396 0.21166,-0.1852 0.42333,-0.3175 0.66145,-0.44979 0.4498,-0.26458 0.92605,-0.50271 1.37584,-0.68791 0.47625,-0.21167 0.9525,-0.39688 1.45521,-0.55563 0.97895,-0.3175 1.98437,-0.58208 2.98979,-0.76729 0.50271,-0.10583 1.00541,-0.18521 1.53458,-0.23813 0.26458,-0.0265 0.52917,-0.0529 0.76729,-0.0529 0.26459,0 0.52917,0 0.79375,0.0794 v 0 l -0.13229,0.13229 c -0.39687,-1.08479 -0.50271,-2.24895 -0.47625,-3.41312 0.0265,-1.16417 0.21167,-2.30188 0.44979,-3.41313 0.13229,-0.55562 0.26459,-1.11125 0.44979,-1.64041 0.18521,-0.52917 0.34396,-1.08479 0.55563,-1.61396 0.39687,-1.05833 0.87312,-2.09021 1.45521,-3.06917 l 0.21166,0.10584 c -0.34395,1.08479 -0.66145,2.14312 -0.97895,3.22791 -0.15875,0.52917 -0.3175,1.05834 -0.4498,1.61396 -0.15875,0.52917 -0.29104,1.08479 -0.39687,1.61396 -0.13229,0.52917 -0.23813,1.08479 -0.34396,1.61396 -0.10583,0.55562 -0.18521,1.08479 -0.23812,1.64041 -0.1323,1.0848 -0.15875,2.19605 0,3.3073 l 0.0265,0.21166 -0.15875,-0.0529 v 0 c -0.44979,-0.0529 -0.97895,0.0265 -1.4552,0.10583 -0.50271,0.0794 -0.97896,0.18521 -1.48167,0.3175 -0.97896,0.23812 -1.95792,0.52917 -2.91042,0.82021 -0.9525,0.3175 -1.93146,0.60854 -2.83104,1.03187 -0.21167,0.10584 -0.44979,0.23813 -0.60854,0.37042 -0.0794,0.0794 -0.15875,0.15875 -0.21167,0.23812 -0.0265,0.0794 -0.0529,0.1323 0.0265,0.18521 0.13229,0.13229 0.39688,0.21167 0.60854,0.26459 0.23813,0.0529 0.47625,0.10583 0.74084,0.15875 1.00541,0.15875 2.01083,0.23812 3.0427,0.37041 1.00542,0.13229 2.0373,0.29104 3.04271,0.55563 1.00542,0.26458 1.98438,0.60854 2.91042,1.08479 0.44979,0.26458 0.89958,0.52917 1.29646,0.87312 0.39687,0.34396 0.76729,0.71438 1.08479,1.13771 z" id="path10304"/>
        <path style="fill:url(#Contour);stroke-width:0.26458332" d="m 345.81797,390.87039 c 0.60854,-2.16959 1.48167,-4.23334 2.46063,-6.27063 1.00541,-2.01083 2.14312,-3.96875 3.43958,-5.79437 0.3175,-0.44979 0.66146,-0.89959 1.00542,-1.37584 0.34396,-0.44979 0.71437,-0.87312 1.05833,-1.32291 0.18521,-0.21167 0.37042,-0.42334 0.55563,-0.635 l 0.55562,-0.635 0.29104,-0.3175 0.29104,-0.29104 0.60855,-0.58209 c 1.64041,-1.56104 3.4925,-2.93687 5.55625,-3.81 l -0.0265,0.18521 v 0 c -1.56104,-1.03187 -2.83104,-2.56646 -3.41313,-4.445 -0.13229,-0.47625 -0.21166,-0.9525 -0.23812,-1.45521 -0.0265,-0.50271 0.0265,-1.03187 0.21166,-1.53458 0.0794,-0.26458 0.21167,-0.50271 0.39688,-0.74083 0.18521,-0.23813 0.42333,-0.4498 0.68792,-0.58209 0.29104,-0.13229 0.60854,-0.18521 0.84666,-0.18521 0.26459,0 0.50271,0 0.74084,0.0265 0.9525,0.10584 1.85208,0.26459 2.75166,0.44979 0.89959,0.18521 1.79917,0.39688 2.67229,0.60855 1.77271,0.44979 3.54542,0.92604 5.29167,1.50812 v 0 h -0.0529 c 0.3175,-0.0794 0.635,-0.13229 0.97896,-0.21167 0.15875,-0.0264 0.3175,-0.0794 0.47625,-0.10583 l 0.50271,-0.0529 c 0.3175,-0.0264 0.66146,-0.0794 0.97896,-0.10583 l 1.00542,-0.0265 c 1.32291,0.0265 2.67229,0.15875 3.96875,0.42334 1.29645,0.26458 2.59291,0.635 3.81,1.16416 0.60854,0.26459 1.21708,0.52917 1.79916,0.84667 0.58209,0.3175 1.13771,0.66146 1.66688,1.08479 l -0.13229,0.21167 c -1.21709,-0.44979 -2.43417,-0.89959 -3.65125,-1.29646 -1.21709,-0.39688 -2.46063,-0.76729 -3.70417,-1.05833 -1.24354,-0.29105 -2.51354,-0.50271 -3.78354,-0.60855 l -0.9525,-0.0794 -0.9525,-0.0265 h -0.47625 l -0.47625,0.0265 c -0.3175,0.0265 -0.635,0.0265 -0.97896,0.0265 h -0.0529 v 0 0 l -5.37104,-1.03188 c -0.89958,-0.15875 -1.79917,-0.34396 -2.69875,-0.47625 -0.89958,-0.13229 -1.79917,-0.29104 -2.67229,-0.34396 -0.42333,-0.0265 -0.89958,-0.0265 -1.11125,0.0794 -0.26458,0.13229 -0.47625,0.39687 -0.58208,0.76729 -0.10584,0.34396 -0.15875,0.76729 -0.1323,1.16417 0.0265,0.39687 0.10584,0.82021 0.21167,1.24354 0.10583,0.39687 0.26458,0.82021 0.42333,1.21708 0.18521,0.39688 0.37042,0.76729 0.60855,1.16417 0.44979,0.76729 1.00541,1.45521 1.56104,2.16958 v 0 l 0.13229,0.10584 -0.15875,0.10583 c -1.87854,1.19062 -3.51896,2.67229 -5.00063,4.28625 -0.74083,0.82021 -1.4552,1.64042 -2.11666,2.51354 -0.34396,0.44979 -0.66146,0.87313 -1.00542,1.32292 -0.3175,0.44979 -0.635,0.89958 -0.9525,1.34937 -1.24354,1.82563 -2.40771,3.67771 -3.4925,5.60917 -1.11125,1.905 -2.14312,3.86292 -3.175,5.84729 z" id="path10306"/>
        <path style="fill:url(#Contour);stroke-width:0.26458332" d="m 476.25755,465.64164 c 0.26459,-0.21167 0.50271,-0.42334 0.74084,-0.60855 0.23812,-0.21166 0.47625,-0.37041 0.71437,-0.58208 0.50271,-0.42333 1.00542,-0.82021 1.45521,-1.27 l 0.71438,-0.66146 c 0.23812,-0.21166 0.44979,-0.44979 0.68791,-0.68791 l 0.68792,-0.68792 0.66146,-0.71438 c 1.74625,-1.93145 3.30729,-3.9952 4.73604,-6.13833 0.71437,-1.08479 1.40229,-2.16958 2.06375,-3.30729 0.635,-1.11125 1.27,-2.24896 1.85208,-3.41313 1.16417,-2.30187 2.19604,-4.68312 3.14854,-7.09083 1.85209,-4.81541 3.46605,-9.73666 4.65667,-14.76375 1.19063,-5.02708 2.01083,-10.16 2.30188,-15.34583 v 0 h 0.0529 c -1.24354,4.94771 -2.64583,9.8425 -4.10104,14.73729 -0.71437,2.43417 -1.53458,4.86833 -2.27542,7.3025 -0.37041,1.21708 -0.74083,2.43417 -1.1377,3.65125 -0.39688,1.21708 -0.82021,2.40771 -1.29646,3.59833 -0.47625,1.19063 -0.9525,2.38125 -1.45521,3.54542 -0.50271,1.16417 -1.00542,2.35479 -1.56104,3.4925 -0.52917,1.16417 -1.11125,2.30187 -1.66688,3.46604 -0.58208,1.13771 -1.16416,2.27542 -1.79916,3.38667 -1.24355,2.2225 -2.56646,4.41854 -4.07459,6.50875 -0.37041,0.50271 -0.76729,1.03187 -1.16416,1.53458 -0.39688,0.50271 -0.82021,0.97896 -1.21709,1.48167 -0.18521,0.23812 -0.42333,0.47625 -0.66146,0.71437 l -0.66145,0.68792 c -0.10584,0.13229 -0.21167,0.21167 -0.34396,0.3175 -0.10584,0.10583 -0.23813,0.18521 -0.34396,0.29104 -0.21167,0.15875 -0.47625,0.34396 -0.71438,0.55563 z m -0.10583,0.0794 c 0.21167,-0.21167 0.44979,-0.44979 0.66146,-0.68792 0.10583,-0.13229 0.23812,-0.23812 0.34396,-0.37041 0.13229,-0.10584 0.23812,-0.23813 0.34396,-0.34396 l 0.635,-0.71438 c 0.21166,-0.23812 0.42333,-0.47625 0.60854,-0.71437 l 0.58208,-0.74083 c 0.18521,-0.26459 0.39688,-0.50271 0.58208,-0.7673 0.37042,-0.52916 0.74084,-1.03187 1.0848,-1.56104 1.40229,-2.11666 2.61937,-4.33916 3.75708,-6.61458 0.58208,-1.13771 1.11125,-2.27542 1.64042,-3.43958 0.52916,-1.16417 1.03187,-2.30188 1.53458,-3.4925 0.97896,-2.32834 1.95792,-4.68313 2.8575,-7.06438 0.89958,-2.38125 1.905,-4.70958 2.8575,-7.06437 l 0.34396,-0.89959 0.34396,-0.89958 c 0.21166,-0.60854 0.44979,-1.19062 0.635,-1.79917 0.42333,-1.19062 0.84666,-2.4077 1.24354,-3.59833 0.39687,-1.21708 0.79375,-2.40771 1.19062,-3.62479 0.39688,-1.21708 0.76729,-2.43417 1.13771,-3.65125 0.74083,-2.43417 1.42875,-4.89479 2.09021,-7.35542 l 0.0529,-0.21166 v 0.21166 0 c 0.1852,2.59292 0.10583,5.21229 -0.10584,7.83167 -0.21166,2.61937 -0.60854,5.21229 -1.11125,7.77875 -1.05833,5.13292 -2.59291,10.16 -4.73604,14.94896 -2.11667,4.78895 -4.65667,9.36625 -7.64646,13.6525 -1.50812,2.14312 -3.14854,4.18041 -4.94771,6.05895 l -0.68791,0.71438 -0.71438,0.68792 c -0.23812,0.21166 -0.47625,0.44979 -0.71437,0.66145 l -0.74084,0.635 c -0.47625,0.4498 -1.00541,0.82021 -1.50812,1.24355 -0.23813,0.21166 -0.52917,0.39687 -0.82021,0.60854 -0.23812,0.23812 -0.52917,0.39687 -0.79375,0.58208 z" id="path10310"/>
        <polygon style="fill:url(#Contour)" points="946.4,455.6 945.5,457.8 947.4,459.9 948.2,459.2 " id="polygon10314" transform="matrix(0.26458333,0,0,0.26458333,193.49735,306.07143)"/>
        <path style="fill:url(#Contour);stroke-width:0.26458332" d="m 445.83047,423.83747 c 0.34396,0.92604 1.24354,1.905 1.24354,1.905 l -0.3175,0.15875 -0.8202,-0.0529 0.0794,-0.79375 z" id="path10316"/>
        <path style="fill:url(#Contour);stroke-width:0.26458332" d="m 437.36381,437.70164 c 1.50812,-1.87854 5.29166,-2.16959 5.29166,-2.16959 l -2.09021,-0.47625 -2.43416,0.10584 z" id="path10318"/>
        <path style="fill:url(#Contour);stroke-width:0.26458332" d="m 440.88276,432.03955 c -1.24354,1.95792 -0.3175,2.61938 -0.3175,2.61938 l -1.42875,1.00542 -1.00541,-0.29105 z" id="path10320"/>
        <path style="fill:url(#Contour);stroke-width:0.26458332" d="m 443.37306,427.97651 c 1.29646,-1.40229 3.80679,-1.65196 3.80679,-1.65196 l -2.2994,-0.23971 -0.98144,0.53076 -0.44979,0.8202 -0.0205,0.41209 z" id="path10322"/>
        <path style="opacity:1;fill:url(#Head);stroke-width:0.26458332" class="st11" d="m 380.69006,465.45643 c -11.45646,-6.13834 -13.4673,-8.46667 -13.4673,-8.46667 l -7.14375,-5.23875 -8.83708,-5.55625 c -3.4925,-1.87854 -4.86833,-2.64583 -4.86833,-2.64583 l -0.29104,-2.8575 c 0,0 0.1852,-2.59292 1.16416,-4.70958 0.97896,-2.11667 3.51896,-4.49792 4.60375,-5.23875 1.05834,-0.74084 5.21229,-2.69875 7.14375,-2.88396 1.93146,-0.18521 3.28084,-0.10584 3.28084,-0.10584 l 8.5725,2.11667 c 0,0 7.14375,2.40771 11.27125,5.50333 4.1275,3.09563 6.48229,7.09084 7.14375,9.15459 0.66145,2.03729 1.50812,6.8527 1.4552,8.99583 -0.0265,2.14312 -1.34937,8.28146 -2.93687,9.94833 -1.5875,1.66688 -3.75708,2.19604 -5.05354,2.16959 -1.37584,-0.0529 -2.03729,-0.18521 -2.03729,-0.18521 z" id="path10324"/>
        <path style="fill:url(#Contour);stroke-width:0.26458332" d="m 352.03568,426.37747 c 2.43417,0.0529 4.86833,0.3175 7.27604,0.68792 2.40771,0.37041 4.81542,0.82021 7.19667,1.37583 4.73604,1.16417 9.44562,2.77813 13.62604,5.34458 l 0.79375,0.47625 0.76729,0.52917 c 0.50271,0.34396 0.97896,0.74083 1.48167,1.11125 0.23812,0.18521 0.47625,0.39688 0.71437,0.60854 l 0.68792,0.60854 0.635,0.66146 c 0.21167,0.21167 0.42333,0.44979 0.635,0.68792 l 0.60854,0.71437 c 0.21167,0.23813 0.37042,0.50271 0.55563,0.74084 0.18521,0.26458 0.37041,0.47625 0.55562,0.74083 l 0.50271,0.76729 c 0.18521,0.26458 0.3175,0.52917 0.47625,0.79375 l 0.44979,0.82021 0.37042,0.84667 0.18521,0.42333 c 0.0529,0.13229 0.10583,0.29104 0.15875,0.42333 0.89958,2.32834 1.27,4.81542 1.27,7.3025 0.0265,0.3175 -0.0265,0.60854 -0.0265,0.92604 l -0.0529,0.92605 c -0.0529,0.60854 -0.13229,1.21708 -0.21166,1.85208 -0.15875,1.21708 -0.39688,2.43417 -0.74084,3.62479 -0.18521,0.58208 -0.37041,1.19063 -0.635,1.74625 -0.23812,0.58208 -0.52916,1.13771 -0.87312,1.64042 -0.34396,0.52916 -0.74084,1.03187 -1.21709,1.45521 -0.47625,0.42333 -1.00541,0.79375 -1.5875,1.03187 -1.16416,0.52917 -2.48708,0.60854 -3.73062,0.47625 -1.24354,-0.13229 -2.46063,-0.50271 -3.59833,-0.9525 -4.60375,-1.87854 -8.54605,-5.02708 -12.1973,-8.14917 -3.83645,-2.98979 -7.83166,-5.79437 -11.95916,-8.38729 -2.06375,-1.29646 -4.15396,-2.54 -6.32354,-3.65125 -1.0848,-0.55562 -2.16959,-1.11125 -3.28084,-1.56104 -0.55562,-0.23812 -1.11125,-0.47625 -1.69333,-0.66146 -0.58208,-0.21166 -1.16417,-0.37041 -1.74625,-0.47625 v -0.0265 c 1.21708,0.15875 2.40771,0.50271 3.54542,0.92605 1.1377,0.42333 2.27541,0.92604 3.3602,1.48166 1.0848,0.55563 2.16959,1.11125 3.22792,1.71979 1.05833,0.60855 2.11667,1.24355 3.14854,1.87855 2.09021,1.27 4.1275,2.61937 6.16479,3.96875 1.00542,0.68791 2.0373,1.34937 3.04271,2.03729 1.03188,0.68791 2.03729,1.32291 3.06917,2.01083 1.03187,0.71438 1.95792,1.45521 2.93687,2.2225 0.9525,0.74083 1.905,1.50813 2.88396,2.19604 1.95792,1.42875 3.94229,2.80459 6.11188,3.78354 1.08479,0.50271 2.2225,0.89959 3.38666,1.0848 0.58209,0.0794 1.16417,0.13229 1.74625,0.0794 0.58209,-0.0529 1.16417,-0.18521 1.69334,-0.42333 1.08479,-0.44979 1.95791,-1.29646 2.59291,-2.30188 0.635,-1.00541 1.03188,-2.14312 1.34938,-3.30729 0.29104,-1.16417 0.47625,-2.35479 0.58208,-3.54542 0.0265,-0.60854 0.10584,-1.19062 0.13229,-1.79916 l 0.0265,-0.89959 c 0,-0.29104 0.0265,-0.60854 0,-0.89958 -0.0265,-2.40771 -0.39687,-4.78896 -1.11125,-7.06437 -0.71437,-2.27542 -1.93146,-4.41855 -3.51896,-6.21771 -0.1852,-0.23813 -0.39687,-0.44979 -0.60854,-0.66146 l -0.635,-0.66146 -0.66146,-0.60854 c -0.21166,-0.21167 -0.44979,-0.39687 -0.68791,-0.58208 -0.47625,-0.37042 -0.92604,-0.76729 -1.42875,-1.08479 l -0.74084,-0.52917 -0.76729,-0.47625 c -2.06375,-1.27 -4.25979,-2.30188 -6.53521,-3.14854 -2.27541,-0.84667 -4.60375,-1.53459 -6.95854,-2.11667 -2.35479,-0.58208 -4.73604,-1.03187 -7.14375,-1.42875 -2.46062,-0.34396 -4.86833,-0.66146 -7.27604,-1.11125 z" id="path10326"/>
        <path style="fill:url(#Contour);stroke-width:0.26458332" d="m 346.18839,443.60184 c -0.37042,-1.05833 -0.52917,-2.16958 -0.47625,-3.30729 0.0529,-1.13771 0.29104,-2.24895 0.68792,-3.30729 0.39687,-1.05833 0.9525,-2.03729 1.61395,-2.96333 0.66146,-0.89958 1.4023,-1.74625 2.24896,-2.48708 1.66688,-1.48167 3.65125,-2.59292 5.76792,-3.28084 1.05833,-0.34396 2.14312,-0.58208 3.25437,-0.66146 1.11125,-0.10583 2.2225,-0.0794 3.3073,0.10584 l -0.0265,0.26458 c -1.08479,-0.10583 -2.16959,-0.0794 -3.22792,0.0794 -1.05833,0.15875 -2.11667,0.42333 -3.12208,0.76729 -2.01084,0.74083 -3.86292,1.85208 -5.45042,3.28083 -0.79375,0.71438 -1.50812,1.50813 -2.11667,2.38125 -0.60854,0.87313 -1.1377,1.79917 -1.53458,2.77813 -0.79375,1.95791 -1.05833,4.12749 -0.66146,6.24416 z" id="path10328"/>
        <path style="fill:url(#Contour);stroke-width:0.26458332" d="m 355.50172,449.0258 c -0.3175,-1.05833 -0.42333,-2.19604 -0.37041,-3.30729 0.0794,-1.11125 0.3175,-2.2225 0.71437,-3.28083 0.76729,-2.11667 2.01083,-4.02167 3.46604,-5.68854 1.48167,-1.66688 3.20146,-3.09563 5.08,-4.28625 1.87854,-1.19063 3.91584,-2.09021 6.05896,-2.69875 l 0.0794,0.23812 c -2.0373,0.79375 -3.96875,1.82563 -5.76792,3.01625 -0.89958,0.60854 -1.77271,1.24354 -2.56646,1.95792 -0.82021,0.68792 -1.5875,1.45521 -2.32833,2.24896 -1.45521,1.5875 -2.67229,3.38666 -3.4925,5.37104 -0.82021,1.98437 -1.19063,4.18041 -0.79375,6.32354 z" id="path10330"/>
        <path style="fill:url(#Contour);stroke-width:0.26458332" d="m 363.2011,454.21164 c 0.0265,-1.21709 0.15875,-2.40771 0.42333,-3.59834 0.26458,-1.19062 0.66146,-2.32833 1.16417,-3.43958 0.50271,-1.11125 1.08479,-2.19604 1.79916,-3.20146 0.71438,-1.00542 1.53459,-1.905 2.43417,-2.72521 0.87313,-0.84666 1.82563,-1.61396 2.83104,-2.30187 1.00542,-0.68792 2.03729,-1.32292 3.12209,-1.85208 0.52916,-0.26459 1.11125,-0.50271 1.66687,-0.74084 0.29104,-0.10583 0.58208,-0.21166 0.84667,-0.3175 0.29104,-0.0794 0.58208,-0.18521 0.87312,-0.26458 1.16417,-0.29104 2.38125,-0.52917 3.59834,-0.34396 v 0.0529 c -1.19063,-0.0265 -2.3548,0.29104 -3.46605,0.68791 -1.11125,0.39688 -2.16958,0.92605 -3.20145,1.50813 -2.0373,1.16416 -3.9423,2.61937 -5.60917,4.25979 -0.82021,0.82021 -1.5875,1.71979 -2.32833,2.64583 -0.71438,0.92604 -1.4023,1.87854 -1.98438,2.88396 -0.58208,1.03188 -1.03187,2.11667 -1.34937,3.25438 -0.3175,1.1377 -0.50271,2.30187 -0.55563,3.4925 z" id="path10332"/>
        <path style="fill:url(#Contour);stroke-width:0.26458332" d="m 373.0436,461.61997 c -0.18521,-1.08479 -0.13229,-2.16958 0.0529,-3.25438 0.21167,-1.08479 0.55563,-2.11666 1.00542,-3.12208 0.89958,-2.01083 2.2225,-3.78354 3.70417,-5.37104 1.48166,-1.5875 3.20146,-2.98979 5.05354,-4.1275 0.92604,-0.55563 1.905,-1.05833 2.93687,-1.42875 0.52917,-0.18521 1.05834,-0.3175 1.5875,-0.39688 0.52917,-0.0794 1.11125,-0.10583 1.64042,0.0794 l -0.0265,0.0794 -0.39687,-0.0529 h -0.39688 c -0.26458,0.0265 -0.52916,0.0529 -0.76729,0.13229 -0.26458,0.0529 -0.50271,0.15875 -0.76729,0.23812 -0.23813,0.10584 -0.50271,0.18521 -0.74083,0.29105 -0.97896,0.42333 -1.905,0.97895 -2.77813,1.56104 -1.77271,1.19062 -3.41312,2.56646 -4.86833,4.1275 -0.74084,0.76729 -1.40229,1.5875 -2.03729,2.43416 l -0.4498,0.66146 -0.42333,0.66146 c -0.26458,0.44979 -0.55562,0.89958 -0.79375,1.37583 -0.9525,1.87855 -1.5875,3.96875 -1.45521,6.13834 z" id="path10334"/>
        <path style="opacity:0.4;fill:url(#SVGID_2_);stroke-width:0.26458332" class="st2" d="m 460.43547,428.7058 c -10.66271,-1.79916 -12.30312,8.44021 -12.30312,8.44021 l -4.97417,-1.85208 c -2.75167,-0.50271 -4.86833,-0.34396 -4.86833,-0.34396 l 6.27062,-8.94292 2.54,-0.26458 c 8.41375,-0.74083 13.335,2.96333 13.335,2.96333 z" id="path10336"/>
        <path style="opacity:0.4;fill:url(#SVGID_2_);stroke-width:0.26458332" class="st2" d="m 464.69526,393.83372 c -6.69395,2.64583 -10.58333,-2.72521 -10.58333,-2.72521 l -2.19604,5.55625 -0.13229,6.35 0.3175,1.66688 4.10104,-4.57729 c 3.09562,-2.64584 8.33437,-6.29709 8.33437,-6.29709" id="path10338"/>
        <path style="opacity:0.4;fill:url(#SVGID_2_);stroke-width:0.26458332" class="st2" d="m 458.02776,386.95455 c -3.175,-2.06375 -0.84666,-7.35541 -0.84666,-7.35541 -4.55084,-0.0529 -6.93209,1.71979 -6.93209,1.71979 l 4.55084,7.46125 0.47625,1.24354 z" id="path10340"/>
        <path style="opacity:0.4;fill:url(#SVGID_2_);stroke-width:0.26458332" class="st2" d="m 425.64276,450.77205 12.77938,-14.84312 3.75708,-0.87313 c 6.16479,1.50813 8.22854,3.83646 8.22854,3.83646 4.7625,4.23333 3.20146,7.54063 2.69875,8.41375 -0.5027,0.87313 -5.84729,4.15396 -9.57791,4.89479 -3.75709,0.74084 -7.24959,0.97896 -7.24959,0.97896 l -8.09625,-1.42875 z" id="path10342"/>
        <path style="opacity:0.4;fill:url(#SVGID_2_);stroke-width:0.26458332" class="st2" d="m 436.46422,468.73726 c -11.32416,0.79375 -19.71146,-1.93146 -19.71146,-1.93146 -2.59291,0.87313 -4.10104,4.18042 -4.10104,4.18042 l -2.38125,-2.19604 5.90021,-7.27604 c 3.175,4.04812 12.43542,7.14375 17.40958,7.01145 4.97417,-0.13229 2.88396,0.21167 2.88396,0.21167 z" id="path10344"/>
        <path style="opacity:0.4;fill:url(#SVGID_2_);stroke-width:0.26458332" class="st2" d="m 350.8186,408.72976 c 2.32833,-3.14854 1.48166,-11.64166 1.5875,-11.66812 1.03187,-0.34396 3.41312,-0.26459 3.41312,-0.26459 3.12209,0.34396 4.55084,1.24355 4.55084,1.24355 l -6.19125,8.14916 -2.51355,3.81 z" id="path10346"/>
        <path style="opacity:0.4;fill:url(#SVGID_2_);stroke-width:0.26458332" class="st2" d="m 375.87464,377.24435 c 6.21771,-5.15938 7.14375,-12.11792 7.14375,-12.11792 l 4.02167,1.85208 -6.32355,6.13834 z" id="path10348"/>
        <path style="opacity:0.3;fill:#ffffff;stroke-width:0.26458332" class="st8" d="m 417.59943,458.02164 c 5.10646,5.10645 19.57917,8.99583 27.86063,5.82083 8.28145,-3.175 6.35,-5.82083 1.24354,-5.10646 -5.10646,0.71438 -29.10417,-0.71437 -29.10417,-0.71437 z" id="path10350"/>
        <path style="fill:url(#Contour);stroke-width:0.26458332" d="m 468.45235,439.65955 c -0.1323,-0.9525 -0.34396,-1.87854 -0.66146,-2.77812 -0.29104,-0.89958 -0.66146,-1.79917 -1.11125,-2.64583 -0.44979,-0.84667 -0.97896,-1.64042 -1.56104,-2.40771 -0.58209,-0.76729 -1.27,-1.42875 -2.01084,-2.06375 -0.71437,-0.635 -1.50812,-1.19063 -2.35479,-1.66688 -0.82021,-0.50271 -1.69333,-0.89958 -2.59292,-1.24354 -1.79916,-0.68792 -3.70416,-1.08479 -5.60916,-1.24354 -1.905,-0.15875 -3.83646,-0.10583 -5.715,0.13229 -0.60854,0.0794 -1.21708,0.18521 -1.82563,0.29104 0.0265,0.18521 -0.0265,0.37042 -0.0794,0.52917 2.51354,-0.3175 5.05354,-0.44979 7.56708,-0.21167 l 0.68792,0.0794 0.68792,0.10583 c 0.44979,0.0529 0.89958,0.15875 1.37583,0.23813 0.89958,0.21166 1.79917,0.44979 2.67229,0.76729 l 0.3175,0.10583 0.3175,0.13229 c 0.21167,0.0794 0.42333,0.18521 0.635,0.26459 0.42333,0.21166 0.84667,0.39687 1.24354,0.635 0.82021,0.44979 1.5875,0.9525 2.30188,1.53458 0.71437,0.58208 1.37583,1.21708 1.98437,1.93146 0.58208,0.71437 1.13771,1.48166 1.5875,2.27541 0.47625,0.79375 0.84667,1.66688 1.13771,2.54 0.3175,0.87313 0.52917,1.79917 0.68792,2.69875 0.13229,0.92604 0.23812,1.85209 0.23812,2.77813 0,0.92604 -0.0794,1.87854 -0.21167,2.80458 -0.13229,0.92604 -0.34395,1.82563 -0.60854,2.75167 -0.26458,0.89958 -0.58208,1.77271 -0.9525,2.64583 -1.50812,3.43958 -3.86291,6.45583 -6.74687,8.83708 -2.88396,2.38125 -6.24417,4.15396 -9.81604,5.31813 -0.44979,0.15875 -0.87313,0.3175 -1.32292,0.44979 l -1.34937,0.42333 c -0.89959,0.29105 -1.79917,0.50271 -2.69875,0.74084 -0.4498,0.13229 -0.89959,0.21166 -1.37584,0.3175 -0.44979,0.10583 -0.89958,0.21166 -1.37583,0.29104 -0.92604,0.15875 -1.82563,0.34396 -2.77813,0.44979 -1.85208,0.26458 -3.70416,0.37042 -5.5827,0.37042 -0.47625,0 -0.92605,0 -1.4023,-0.0265 l -1.37583,-0.0794 -1.37583,-0.15875 c -0.23813,-0.0264 -0.44979,-0.0529 -0.68792,-0.10583 l -0.68792,-0.10583 c -1.82562,-0.34396 -3.59833,-0.84667 -5.2652,-1.61396 -1.66688,-0.74083 -3.22792,-1.69333 -4.52438,-2.93688 l -0.47625,-0.47625 -0.44979,-0.5027 -0.21167,-0.23813 c -0.0794,-0.0794 -0.13229,-0.18521 -0.21166,-0.26458 l -0.39688,-0.52917 c -0.47625,-0.74083 -0.92604,-1.50812 -1.21708,-2.32833 -0.29104,-0.82021 -0.44979,-1.69334 -0.50271,-2.54 -0.0265,-0.87313 0.0794,-1.71979 0.3175,-2.56646 0.23812,-0.84667 0.60854,-1.61396 1.13771,-2.16958 0.52916,-0.55563 1.27,-0.87313 2.09021,-0.9525 0.8202,-0.0794 1.71979,0.0265 2.61937,0.15875 0.89958,0.15875 1.79917,0.39687 2.69875,0.60854 1.79917,0.47625 3.62479,0.97896 5.50333,1.40229 1.85209,0.42333 3.73063,0.74083 5.66209,0.87312 1.905,0.1323 3.83646,0.10584 5.715,-0.15875 1.905,-0.26458 3.75708,-0.74083 5.52979,-1.42875 0.89958,-0.34395 1.74625,-0.74083 2.59292,-1.16416 0.84666,-0.44979 1.66687,-0.89959 2.46062,-1.42875 0.21167,-0.13229 0.39688,-0.26459 0.58208,-0.39688 0.18521,-0.13229 0.39688,-0.26458 0.58209,-0.42333 0.39687,-0.29104 0.74083,-0.66146 1.00541,-1.08479 0.52917,-0.84667 0.66146,-1.905 0.55563,-2.8575 -0.13229,-0.97896 -0.47625,-1.905 -0.92604,-2.75167 -0.44979,-0.84667 -1.03188,-1.64042 -1.69334,-2.32833 -1.29645,-1.40229 -2.91041,-2.54 -4.68312,-3.33375 -1.77271,-0.79375 -3.67771,-1.21708 -5.60917,-1.24354 -0.92604,-0.0265 -1.82562,0.0529 -2.72521,0.21166 -0.0529,0.21167 -0.13229,0.42334 -0.29104,0.58209 1.00542,-0.13229 1.98438,-0.18521 2.98979,-0.13229 0.92605,0.0264 1.82563,0.15875 2.72521,0.34395 0.89959,0.21167 1.77271,0.47625 2.61938,0.84667 1.69333,0.71438 3.25437,1.74625 4.55083,3.09562 0.635,0.66146 1.21708,1.4023 1.66688,2.19605 0.44979,0.79375 0.79375,1.66687 0.89958,2.56645 0.10583,0.89959 -0.0265,1.82563 -0.50271,2.59292 -0.23812,0.37042 -0.55562,0.71438 -0.89958,0.97896 -0.18521,0.13229 -0.39688,0.26458 -0.58209,0.39687 -0.1852,0.1323 -0.39687,0.26459 -0.58208,0.37042 -0.79375,0.50271 -1.61396,0.9525 -2.46062,1.37583 -0.84667,0.39688 -1.69334,0.7673 -2.56646,1.0848 -1.74625,0.60854 -3.57188,1.05833 -5.42396,1.24354 -1.85208,0.18521 -3.70417,0.18521 -5.55625,-0.0265 -1.85208,-0.21167 -3.67771,-0.58208 -5.47688,-1.03188 -1.79916,-0.44979 -3.59833,-1.03187 -5.42395,-1.56104 -0.89959,-0.26458 -1.82563,-0.52916 -2.77813,-0.71437 -0.47625,-0.10584 -0.9525,-0.15875 -1.45521,-0.21167 -0.50271,-0.0529 -1.00541,-0.0529 -1.53458,-0.0265 -0.52917,0.0529 -1.05833,0.15875 -1.56104,0.37042 -0.50271,0.21167 -0.97896,0.55562 -1.37584,0.9525 -0.39687,0.39687 -0.68791,0.84667 -0.92604,1.32292 -0.23812,0.47625 -0.42333,0.9525 -0.55562,1.42875 -0.29104,0.97895 -0.42334,2.01083 -0.39688,3.01625 0.0529,1.00541 0.26459,2.01083 0.58209,2.96333 0.34395,0.9525 0.84666,1.82562 1.37583,2.67229 l 0.44979,0.58208 c 0.0794,0.10584 0.15875,0.21167 0.23813,0.29105 l 0.23812,0.26458 c 0.15875,0.18521 0.34396,0.37042 0.50271,0.55562 l 0.52917,0.50271 c 1.4552,1.34938 3.175,2.35479 4.9477,3.09563 1.79917,0.76729 3.67771,1.24354 5.55625,1.56104 l 0.71438,0.10583 c 0.23812,0.0265 0.47625,0.0794 0.71437,0.0794 l 1.42875,0.13229 1.42875,0.0529 c 0.47625,0.0265 0.9525,0 1.42875,0 1.905,-0.0529 3.81,-0.21167 5.68855,-0.52917 3.75708,-0.60854 7.40833,-1.64042 10.95375,-2.96333 3.57187,-1.27 6.985,-3.09563 9.86895,-5.55625 1.45521,-1.24355 2.77813,-2.61938 3.88938,-4.1275 1.13771,-1.50813 2.11666,-3.14855 2.88396,-4.8948 0.37041,-0.87312 0.68791,-1.7727 0.97895,-2.67229 0.26459,-0.92604 0.4498,-1.85208 0.60855,-2.77812 0.39687,-1.82563 0.42333,-3.75709 0.15875,-5.63563 z" id="path10352"/>
        <path style="fill:url(#Contour);stroke-width:0.26458332" d="m 428.6061,451.90976 c -0.66146,0.37042 -1.32292,0.76729 -1.905,1.21708 -0.58209,0.4498 -1.11125,0.9525 -1.5875,1.50813 -0.47625,0.55562 -0.87313,1.16417 -1.24354,1.77271 -0.37042,0.60854 -0.74084,1.27 -0.97896,1.98437 -0.47625,1.40229 -0.635,2.93688 -0.50271,4.445 0.0794,0.74084 0.23812,1.48167 0.50271,2.19604 0.13229,0.34396 0.29104,0.68792 0.50271,0.97896 0.21166,0.29104 0.47625,0.58209 0.79375,0.74084 l -0.10584,0.21166 c -0.37041,-0.15875 -0.66146,-0.47625 -0.89958,-0.79375 -0.23813,-0.3175 -0.42333,-0.66146 -0.58208,-1.03187 -0.3175,-0.71438 -0.50271,-1.48167 -0.60855,-2.24896 -0.21166,-1.53458 -0.13229,-3.14854 0.23813,-4.68313 0.18521,-0.76729 0.39687,-1.53458 0.74083,-2.27541 0.34396,-0.74084 0.84667,-1.37584 1.40229,-1.95792 0.55563,-0.58208 1.21709,-1.05833 1.905,-1.45521 0.68792,-0.37041 1.45521,-0.66146 2.19605,-0.84666 z" id="path10354"/>
        <path style="fill:url(#Contour);stroke-width:0.26458332" d="m 436.27901,453.20622 c -0.47625,0.635 -0.76729,1.29646 -0.89958,2.03729 l -0.0529,0.26458 -0.0265,0.29105 c -0.0265,0.1852 -0.0529,0.37041 -0.0529,0.55562 -0.0265,0.37042 -0.0265,0.76729 0,1.13771 0.10583,1.53458 0.50271,3.12208 1.27,4.49792 0.76729,1.37583 1.87854,2.61937 3.20146,3.4925 0.66146,0.42333 1.40229,0.76729 2.16958,0.97895 0.76729,0.21167 1.56104,0.3175 2.35479,0.29105 v 0.23812 c -1.64041,-0.0265 -3.28083,-0.44979 -4.65666,-1.32292 -1.4023,-0.87312 -2.54,-2.0902 -3.38667,-3.4925 -0.87313,-1.37583 -1.56104,-2.93687 -1.77271,-4.60375 -0.0265,-0.21166 -0.0529,-0.42333 -0.0529,-0.635 0,-0.21166 0,-0.42333 0,-0.635 0.0265,-0.21166 0.0265,-0.42333 0.0529,-0.635 l 0.0529,-0.3175 0.0794,-0.3175 c 0.0529,-0.21166 0.15875,-0.42333 0.23813,-0.60854 0.0529,-0.10583 0.10583,-0.18521 0.15875,-0.29104 0.0529,-0.10583 0.10583,-0.18521 0.18521,-0.26458 0.26458,-0.37042 0.60854,-0.66146 0.97895,-0.84667 z" id="path10356"/>
        <path style="fill:url(#Contour);stroke-width:0.26458332" d="m 448.07943,450.63976 c -0.0529,1.34938 0.18521,2.61938 0.71438,3.81 0.5027,1.19063 1.24354,2.30188 2.14312,3.28083 0.89958,0.97896 1.93146,1.82563 3.06917,2.48709 0.58208,0.3175 1.19062,0.60854 1.79916,0.79375 0.635,0.18521 1.29646,0.26458 1.93146,0.13229 l 0.0794,0.23812 c -0.68792,0.23813 -1.42875,0.23813 -2.11667,0.10584 -0.68792,-0.13229 -1.37583,-0.37042 -2.01083,-0.68792 -1.27,-0.60854 -2.40771,-1.48167 -3.38667,-2.48708 -0.50271,-0.50271 -0.9525,-1.05834 -1.34937,-1.64042 -0.39688,-0.58208 -0.74084,-1.21708 -1.00542,-1.87854 -0.26458,-0.66146 -0.42333,-1.37583 -0.44979,-2.09021 -0.0265,-0.71437 0.0794,-1.45521 0.3175,-2.09021 z" id="path10358"/>
        <path style="fill:url(#Contour);stroke-width:0.26458332" d="m 414.6361,450.90434 c -2.67229,3.51896 -2.32834,3.99521 -2.67229,5.87375 -0.3175,1.87855 1.08479,4.7625 1.08479,4.7625 l 1.05833,1.45521 1.77271,-0.18521 0.66146,-0.15875 -2.24896,-3.88937 c -1.71979,-2.54 0.34396,-7.85813 0.34396,-7.85813 z" id="path10360"/>
        <path style="opacity:0.4;fill:url(#SVGID_2_);stroke-width:0.26458332" class="st2" d="m 342.96047,418.01664 c 3.96875,-3.04271 5.92667,-12.14438 5.92667,-12.14438 l 0.68792,0.92604 c 1.08479,1.61396 2.14312,2.91042 2.14312,2.91042 l -7.01146,9.65729 z" id="path10362"/>
        <path style="opacity:0.4;fill:url(#SVGID_2_);stroke-width:0.26458332" class="st2" d="m 357.96235,397.16747 c 2.54,-1.45521 -0.21167,-6.21771 -0.21167,-6.21771 2.91042,0.68792 5.45042,2.67229 5.45042,2.67229 l -2.72521,4.23334 h -0.39688 c -1.24354,-0.635 -2.11666,-0.68792 -2.11666,-0.68792 z" id="path10364"/>
        <path style="opacity:0.3;fill:#ffffff;stroke-width:0.26458332" class="st8" d="m 339.54735,397.03518 c -1.00542,2.91042 -1.40229,13.75833 1.32291,16.08667 2.72521,2.32833 -1.32291,-16.08667 -1.32291,-16.08667 z" id="path10366"/>
        <path style="fill:url(#Contour);stroke-width:0.26458332" d="m 347.88172,402.4856 c -0.42333,0.37041 -0.89958,0.71437 -1.40229,1.00541 -0.50271,0.29104 -1.03187,0.52917 -1.61396,0.71438 -1.11125,0.37041 -2.35479,0.50271 -3.54541,0.26458 -0.60855,-0.10583 -1.19063,-0.3175 -1.7198,-0.635 -0.52916,-0.3175 -1.00541,-0.71437 -1.37583,-1.21708 -0.76729,-0.97896 -1.03187,-2.24896 -0.84667,-3.38667 h 0.10584 c 0.15875,1.11125 0.60854,2.14313 1.32291,2.88396 0.71438,0.74083 1.66688,1.19062 2.69875,1.40229 1.03188,0.18521 2.09021,0.13229 3.14855,-0.10583 0.52916,-0.13229 1.05833,-0.26459 1.56104,-0.47625 0.52916,-0.18521 1.03187,-0.42334 1.53458,-0.66146 z" id="path10368"/>
        <path style="fill:url(#Contour);stroke-width:0.26458332" d="m 350.02485,407.2481 c -0.23813,0.55562 -0.52917,1.08479 -0.87313,1.5875 -0.34396,0.5027 -0.74083,0.97895 -1.16416,1.40229 -0.87313,0.87312 -1.905,1.56104 -3.09563,1.98437 -1.16417,0.42334 -2.43417,0.58209 -3.67771,0.34396 -0.3175,-0.0529 -0.60854,-0.13229 -0.89958,-0.23812 -0.29104,-0.10584 -0.58208,-0.23813 -0.84667,-0.39688 -0.52916,-0.3175 -1.00541,-0.71437 -1.37583,-1.19062 l 0.0529,-0.0529 c 0.47625,0.34396 0.97895,0.635 1.50812,0.82021 0.26458,0.0794 0.52917,0.18521 0.82021,0.23812 0.26458,0.0529 0.55562,0.10584 0.82021,0.13229 1.11125,0.10584 2.24896,-0.0265 3.30729,-0.39687 1.05833,-0.37042 2.03729,-0.9525 2.91042,-1.71979 0.42333,-0.37042 0.8202,-0.79375 1.21708,-1.21709 0.37042,-0.44979 0.71437,-0.89958 1.05833,-1.40229 z" id="path10370"/>
        <path style="stroke-width:0.26458332" d="m 337.77464,333.95851 0.26458,-1.61396 2.30188,0.39688 0.52916,-3.22792 2.30188,0.39688 0.52917,-3.22792 2.30187,0.39688 0.52917,-3.22792 2.30187,0.39687 0.26459,-1.61395 2.30187,0.39687 0.52917,-3.22792 2.30187,0.39688 0.52917,-3.22792 -13.75833,-2.43416 0.79375,-4.84188 25.42645,4.23333 -0.26458,1.61396 -2.30187,-0.39687 -0.52917,3.22791 -2.30188,-0.39687 -0.52916,3.22792 -2.30188,-0.39688 -0.52916,3.22792 -2.30188,-0.39688 -0.26458,1.61396 -2.30188,-0.39687 -0.52916,3.22791 -2.30188,-0.39687 -0.52917,3.22791 13.86417,2.30188 -0.79375,4.84187 z" id="path10448"/>
        <path style="stroke-width:0.26458332" d="m 363.41276,359.06747 -0.15875,-1.00542 1.42875,-0.23812 -0.3175,-1.98438 1.42875,-0.23812 -0.3175,-1.98438 1.42875,-0.23812 -0.3175,-1.98438 1.42875,-0.23812 -0.15875,-1.00542 1.42875,-0.23812 -0.3175,-1.98438 1.42875,-0.23812 -0.3175,-1.98438 -8.51958,1.40229 -0.50271,-2.98979 15.63688,-2.59291 0.15875,1.00541 -1.42875,0.23813 0.3175,1.98437 -1.42875,0.23813 0.3175,1.98437 -1.42875,0.23813 0.3175,1.98437 -1.42875,0.23813 0.15875,1.00541 -1.42875,0.23813 0.3175,1.98437 -1.42875,0.23813 0.3175,1.98437 8.51958,-1.40229 0.50271,2.98979 z" id="path10454"/>
      </g>
    </g>
  </g>
</svg>